<?xml version="1.0" encoding="UTF-8"?>
<svg id="Capa_2" data-name="Capa 2" xmlns="http://www.w3.org/2000/svg" viewBox="0 0 2841.38 1594.27">
  <defs>
    <style>
      .cls-1 {
        fill: #fff;
      }

      .cls-2 {
        fill: #f99746;
      }

      .cls-3 {
        fill: #143d7a;
      }

      .cls-4 {
        fill: #2e3552;
      }

      .cls-5 {
        fill: #e06d20;
      }

      .cls-6 {
        fill: #d2e0ff;
      }

      .cls-7 {
        opacity: .7;
      }

      .cls-7, .cls-8 {
        fill: #759be0;
      }

      .cls-9 {
        fill: #2c3a64;
      }

      .cls-10 {
        fill: #ed985f;
      }

      .cls-11 {
        fill: #dfebfd;
      }

      .cls-12 {
        fill: #ed975d;
      }

      .cls-13 {
        fill: #2f539b;
      }

      .cls-14 {
        opacity: .5;
      }

      .cls-14, .cls-15 {
        fill: #aec3ff;
      }

      .cls-16 {
        fill: #94b0ed;
      }

      .cls-17 {
        fill: #ed7d2b;
      }

      .cls-18 {
        fill: #ffb27d;
      }

      .cls-19 {
        fill: #233862;
      }

      .cls-20 {
        fill: #163560;
      }

      .cls-21 {
        fill: #2b478b;
      }

      .cls-22 {
        fill: #ebf3fa20;
      }
    </style>
  </defs>
  <g id="_лой_1" data-name="‘лой_1">
    <g>
      <path class="cls-22" d="M119.33,1590.96s-199.02-155.42-60.24-526.94c81.81-219.03,357.79-185.4,343.83-578.79-13.96-393.39,240.42-564.87,696.43-386.32,329.09,128.85,822.55-454.16,1230.49,278.75,157.34,282.67,432.68,246.05,505.98,762.99,20.04,141.3-10.02,289.23-158.48,450.32H119.33Z"/>
      <path class="cls-11" d="M1321.21,653.44l23.81-17.65c2-1.45,4.63-1.66,6.83-.54,2.8,1.43,5.68,2.76,8.64,3.98,5.5,2.27,11.04,4.09,16.62,5.41,2.61,.62,4.58,2.72,4.96,5.36l4.7,30.61c.47,3.27,3.41,5.64,6.76,5.41l28.25-1.86c3.2-.22,5.7-2.79,5.86-5.98l1.21-28.49c.06-2.77,1.99-5.16,4.74-5.91,11.63-3.18,22.73-8.23,32.86-14.93,2.45-1.61,5.76-1.33,7.92,.64l12.8,11.71c2.45,2.2,6.2,2.27,8.71,.09l21.04-18.65c.44-.38,.81-.78,1.11-1.26,1.49-2.18,1.46-5.17-.19-7.35l-13.16-17.8-3.22-4.33c2.67-4.53,5.07-9.35,7.13-14.34,2.77-6.73,4.86-13.59,6.28-20.42,.55-2.61,2.6-4.63,5.25-5.01l24.66-3.76c3.37-.54,5.79-3.53,5.54-6.91l-1.42-21.6-.42-6.19c-.22-3.38-2.95-6.08-6.33-6.21l-23.81-1.03c-2.76-.09-5.16-1.91-5.9-4.53-2.35-7.79-5.51-15.31-9.45-22.39-.29-.65-.62-1.2-.97-1.8-.13-.19-.22-.4-.31-.62-1.09-2.37-.61-5.15,1.17-7.07l18.96-20.83c.23-.22,.41-.49,.58-.74,1.62-2.41,1.44-5.7-.51-7.94l-18.56-21c-2.24-2.53-6.03-2.94-8.78-.92l-24.82,18.42c-2.09,1.59-4.92,1.68-7.15,.31-4.93-2.97-10.17-5.62-15.7-7.9-2.93-1.21-5.88-2.28-8.85-3.22-2.41-.78-4.18-2.84-4.55-5.34l-4.53-29.42c-.48-3.24-3.4-5.59-6.7-5.38l-27.95,1.88c-3.38,.22-6.06,2.92-6.22,6.36l-.96,22.54c-.13,3.03-2.28,5.53-5.22,6.14-11.59,2.25-22.75,6.33-33.09,12-2.42,1.38-5.49,1.02-7.58-.88l-18.76-17.1c-2.52-2.3-6.36-2.3-8.92-.07l-20.93,18.48c-2.52,2.21-2.9,6.01-.9,8.65l.76,1.05,15.3,20.67c1.64,2.21,1.72,5.15,.24,7.48v.03c-3.56,5.57-6.68,11.52-9.29,17.86-1.39,3.38-2.58,6.77-3.65,10.21-.71,2.4-2.73,4.16-5.19,4.54l-25.04,3.82c-3.43,.51-5.89,3.59-5.65,7.01l1.86,27.83c.06,.79,.27,1.55,.55,2.22,.99,2.19,3.17,3.76,5.68,3.88l19.02,.77c2.33,.12,4.43,1.47,5.49,3.48,.27,.53,.49,1.11,.62,1.72,2.97,14.86,8.89,28.94,17.39,41.5,1.47,2.11,1.45,4.9,.11,7.04-.2,.3-.42,.6-.68,.88l-15.37,16.85c-2.23,2.44-2.26,6.17-.08,8.68l.43,.49,18.07,20.49c2.3,2.56,6.13,2.94,8.9,.9Zm121-166.87c3.57,2.8,7.02,6.04,10.28,9.76,6.2,7.1,11.91,20.67,12.54,30.1,.07,1.01,.12,2.01,.16,3,1.92,60.73-68.75,89.42-109.8,43.46-5.36-6.02-10.25-16.46-12.23-25.49-.43-2.1-.75-4.12-.84-5.94-.52-8.57,.37-16.53,2.45-23.78,11.88-41.33,61.61-58.9,97.43-31.1Z"/>
      <path class="cls-11" d="M1511.04,360.2l20.44-11.08c1.71-.91,3.78-.78,5.37,.33,2.02,1.42,4.11,2.77,6.28,4.04,4.02,2.37,8.13,4.4,12.31,6.04,1.96,.77,3.26,2.62,3.26,4.71l.27,24.3c0,2.59,2.03,4.76,4.66,4.95l22.15,1.67c2.51,.18,4.73-1.54,5.21-4l4.08-22c.35-2.15,2.11-3.79,4.34-4.07,9.38-1.19,18.56-3.88,27.18-7.97,2.08-.98,4.62-.4,6.08,1.37l8.65,10.51c1.66,1.98,4.56,2.45,6.75,1.03l18.4-12.16c.38-.25,.72-.52,1-.85,1.4-1.53,1.71-3.85,.66-5.73l-8.26-15.28-2.02-3.72c2.57-3.22,4.97-6.7,7.12-10.35,2.89-4.92,5.28-10.02,7.13-15.17,.71-1.96,2.53-3.31,4.63-3.31l19.58-.2c2.67-.04,4.89-2.1,5.07-4.76l1.28-16.94,.35-4.85c.2-2.65-1.62-5.05-4.23-5.52l-18.38-3.43c-2.14-.37-3.79-2.06-4.08-4.17-.97-6.31-2.59-12.5-4.87-18.44-.16-.53-.35-1-.56-1.5-.08-.16-.12-.34-.17-.51-.58-1.96,.1-4.06,1.69-5.37l17.03-14.09c.2-.15,.38-.34,.54-.51,1.53-1.69,1.75-4.27,.48-6.22l-12.1-18.36c-1.46-2.22-4.36-2.95-6.72-1.69l-21.32,11.57c-1.8,1-4.01,.76-5.59-.55-3.5-2.85-7.28-5.49-11.32-7.87-2.14-1.26-4.32-2.42-6.52-3.48-1.78-.87-2.93-2.67-2.95-4.65l-.27-23.36c-.02-2.57-2.02-4.72-4.61-4.92l-21.92-1.62c-2.65-.2-5.03,1.6-5.53,4.25l-3.24,17.41c-.43,2.34-2.38,4.05-4.73,4.19-9.26,.47-18.37,2.41-27.03,5.67-2.03,.81-4.38,.19-5.79-1.52l-12.69-15.36c-1.7-2.06-4.69-2.49-6.92-1.04l-18.3,12.05c-2.2,1.44-2.91,4.35-1.66,6.62l.47,.9,9.6,17.75c1.03,1.9,.77,4.19-.64,5.84v.02c-3.39,3.93-6.46,8.21-9.19,12.85-1.45,2.47-2.75,4.98-3.96,7.53-.82,1.79-2.58,2.93-4.54,2.96l-19.87,.2c-2.72,.02-4.97,2.14-5.16,4.82l-1.63,21.83c-.04,.62,.04,1.23,.18,1.79,.53,1.81,2.05,3.27,3.98,3.64l14.69,2.7c1.8,.35,3.28,1.63,3.88,3.31,.15,.44,.26,.92,.29,1.41,.67,11.87,3.71,23.46,8.93,34.16,.91,1.8,.58,3.96-.69,5.48-.19,.21-.39,.42-.62,.61l-13.8,11.4c-2,1.65-2.44,4.54-1.02,6.73l.28,.43,11.78,17.91c1.51,2.24,4.44,2.96,6.81,1.68Zm112.42-116.28c2.46,2.57,4.79,5.47,6.91,8.72,4.04,6.2,6.97,17.38,6.42,24.76-.05,.79-.13,1.57-.21,2.35-5.21,47.39-63.28,61.88-90.09,21.65-3.5-5.27-6.15-13.92-6.69-21.16-.1-1.68-.13-3.28,0-4.71,.54-6.72,2.11-12.8,4.53-18.21,13.79-30.8,54.36-38.96,79.13-13.41Z"/>
      <path class="cls-11" d="M2427.27,1269.04l25.24-13.68c2.11-1.12,4.67-.96,6.63,.41,2.49,1.76,5.07,3.42,7.75,4.99,4.97,2.92,10.04,5.43,15.2,7.46,2.42,.95,4.02,3.24,4.03,5.82l.34,30c0,3.2,2.51,5.87,5.75,6.11l27.35,2.06c3.1,.23,5.84-1.9,6.43-4.94l5.04-27.17c.43-2.65,2.61-4.68,5.36-5.03,11.59-1.47,22.92-4.8,33.56-9.84,2.57-1.21,5.71-.5,7.51,1.69l10.68,12.97c2.05,2.44,5.64,3.02,8.34,1.27l22.72-15.02c.47-.3,.89-.64,1.24-1.05,1.73-1.89,2.11-4.76,.82-7.08l-10.2-18.87-2.5-4.59c3.18-3.98,6.14-8.27,8.79-12.78,3.57-6.08,6.52-12.38,8.81-18.74,.88-2.43,3.13-4.08,5.71-4.09l24.17-.25c3.3-.05,6.03-2.59,6.26-5.88l1.58-20.91,.44-5.99c.25-3.27-2-6.23-5.22-6.82l-22.7-4.23c-2.64-.46-4.69-2.54-5.04-5.15-1.2-7.79-3.2-15.44-6.01-22.77-.19-.66-.44-1.24-.69-1.86-.1-.2-.15-.42-.21-.63-.72-2.42,.12-5.02,2.08-6.63l21.03-17.39c.25-.18,.46-.42,.66-.63,1.88-2.09,2.16-5.27,.59-7.68l-14.94-22.67c-1.81-2.74-5.38-3.64-8.3-2.08l-26.32,14.28c-2.22,1.24-4.95,.94-6.9-.68-4.32-3.52-8.99-6.78-13.98-9.72-2.65-1.56-5.33-2.99-8.05-4.3-2.2-1.08-3.62-3.29-3.64-5.74l-.33-28.84c-.02-3.17-2.5-5.83-5.69-6.08l-27.06-2c-3.27-.25-6.21,1.98-6.83,5.25l-3.99,21.49c-.53,2.88-2.94,5-5.84,5.18-11.43,.58-22.69,2.97-33.38,7-2.51,.99-5.41,.23-7.15-1.88l-15.67-18.96c-2.1-2.54-5.79-3.08-8.55-1.29l-22.6,14.87c-2.72,1.78-3.6,5.37-2.05,8.17l.59,1.11,11.86,21.91c1.27,2.35,.95,5.18-.79,7.21l-.02,.03c-4.16,4.86-7.97,10.14-11.33,15.87-1.8,3.05-3.4,6.14-4.89,9.3-1.01,2.21-3.18,3.62-5.6,3.65l-24.54,.25c-3.36,.02-6.13,2.64-6.38,5.95l-2.01,26.95c-.05,.77,.05,1.52,.23,2.21,.65,2.23,2.53,4.03,4.92,4.49l18.14,3.33c2.22,.43,4.05,2.02,4.79,4.09,.19,.55,.32,1.13,.36,1.74,.82,14.66,4.58,28.97,11.02,42.18,1.13,2.22,.72,4.89-.86,6.77-.23,.27-.48,.51-.77,.75l-17.04,14.07c-2.47,2.04-3.01,5.61-1.25,8.31l.34,.53,14.54,22.11c1.86,2.77,5.48,3.66,8.41,2.08Zm138.81-143.57c3.04,3.17,5.91,6.75,8.53,10.76,4.98,7.66,8.6,21.45,7.92,30.58-.07,.98-.16,1.94-.25,2.9-6.44,58.51-78.14,76.41-111.24,26.73-4.32-6.5-7.59-17.19-8.26-26.12-.13-2.07-.16-4.05,0-5.81,.67-8.3,2.61-15.8,5.59-22.48,17.03-38.03,67.12-48.11,97.7-16.56Z"/>
      <path class="cls-15" d="M2576.6,1007.42l13.5-7.32c1.13-.6,2.5-.51,3.55,.22,1.33,.94,2.71,1.83,4.15,2.67,2.66,1.56,5.37,2.91,8.13,3.99,1.29,.51,2.15,1.73,2.15,3.11l.18,16.05c0,1.71,1.34,3.14,3.08,3.27l14.63,1.1c1.66,.12,3.13-1.02,3.44-2.64l2.7-14.53c.23-1.42,1.4-2.5,2.87-2.69,6.2-.79,12.26-2.57,17.95-5.26,1.37-.65,3.05-.26,4.02,.91l5.72,6.94c1.1,1.31,3.02,1.62,4.46,.68l12.16-8.04c.25-.16,.47-.34,.66-.56,.92-1.01,1.13-2.54,.44-3.79l-5.46-10.09-1.34-2.46c1.7-2.13,3.28-4.43,4.7-6.84,1.91-3.25,3.49-6.62,4.71-10.02,.47-1.3,1.67-2.18,3.06-2.19l12.93-.13c1.77-.03,3.23-1.39,3.35-3.14l.85-11.19,.23-3.21c.13-1.75-1.07-3.33-2.79-3.65l-12.14-2.26c-1.41-.25-2.51-1.36-2.7-2.75-.64-4.17-1.71-8.26-3.22-12.18-.1-.35-.23-.66-.37-.99-.05-.11-.08-.22-.11-.34-.39-1.3,.06-2.68,1.11-3.54l11.25-9.31c.13-.1,.25-.22,.35-.34,1.01-1.12,1.15-2.82,.32-4.11l-7.99-12.13c-.97-1.46-2.88-1.95-4.44-1.11l-14.08,7.64c-1.19,.66-2.65,.5-3.69-.37-2.31-1.88-4.81-3.63-7.48-5.2-1.42-.83-2.85-1.6-4.31-2.3-1.18-.58-1.94-1.76-1.95-3.07l-.18-15.43c-.01-1.7-1.33-3.12-3.05-3.25l-14.48-1.07c-1.75-.13-3.33,1.06-3.66,2.81l-2.14,11.5c-.29,1.54-1.57,2.67-3.13,2.77-6.11,.31-12.14,1.59-17.86,3.75-1.34,.53-2.89,.13-3.82-1l-8.38-10.14c-1.12-1.36-3.1-1.65-4.57-.69l-12.09,7.96c-1.45,.95-1.92,2.87-1.09,4.37l.31,.59,6.34,11.72c.68,1.26,.51,2.77-.42,3.86h0c-2.23,2.61-4.26,5.44-6.06,8.5-.96,1.63-1.82,3.29-2.62,4.97-.54,1.18-1.7,1.94-3,1.95l-13.13,.13c-1.8,.01-3.28,1.41-3.41,3.19l-1.07,14.42c-.03,.41,.03,.81,.12,1.18,.35,1.2,1.36,2.16,2.63,2.4l9.71,1.78c1.19,.23,2.17,1.08,2.56,2.19,.1,.29,.17,.61,.19,.93,.44,7.84,2.45,15.5,5.9,22.56,.6,1.19,.38,2.62-.46,3.62-.12,.14-.26,.28-.41,.4l-9.12,7.53c-1.32,1.09-1.61,3-.67,4.45l.18,.28,7.78,11.83c1,1.48,2.93,1.96,4.5,1.11Zm74.26-76.81c1.63,1.7,3.16,3.61,4.57,5.76,2.66,4.1,4.6,11.48,4.24,16.36-.04,.52-.09,1.04-.14,1.55-3.44,31.3-41.8,40.88-59.51,14.3-2.31-3.48-4.06-9.2-4.42-13.97-.07-1.11-.08-2.17,0-3.11,.36-4.44,1.4-8.45,2.99-12.03,9.11-20.35,35.91-25.74,52.27-8.86Z"/>
      <path class="cls-11" d="M328.77,1010.16l14.81-8.03c1.24-.66,2.74-.56,3.89,.24,1.46,1.03,2.98,2.01,4.54,2.93,2.91,1.71,5.89,3.19,8.92,4.37,1.42,.56,2.36,1.9,2.36,3.42l.2,17.6c0,1.88,1.47,3.44,3.37,3.58l16.05,1.21c1.82,.13,3.43-1.12,3.77-2.9l2.96-15.93c.25-1.56,1.53-2.75,3.14-2.95,6.8-.86,13.45-2.81,19.69-5.77,1.51-.71,3.35-.29,4.4,.99l6.27,7.61c1.2,1.43,3.31,1.77,4.89,.75l13.33-8.81c.28-.18,.52-.38,.73-.62,1.01-1.11,1.24-2.79,.48-4.15l-5.98-11.07-1.46-2.69c1.86-2.34,3.6-4.85,5.16-7.5,2.1-3.56,3.82-7.26,5.17-10.99,.52-1.42,1.84-2.4,3.35-2.4l14.18-.14c1.94-.03,3.54-1.52,3.67-3.45l.93-12.27,.26-3.52c.15-1.92-1.18-3.66-3.06-4l-13.31-2.48c-1.55-.27-2.75-1.49-2.96-3.02-.7-4.57-1.88-9.06-3.53-13.35-.11-.39-.26-.73-.4-1.09-.06-.12-.09-.25-.12-.37-.42-1.42,.07-2.94,1.22-3.89l12.34-10.2c.15-.11,.27-.24,.39-.37,1.1-1.23,1.27-3.09,.35-4.51l-8.76-13.3c-1.06-1.6-3.16-2.13-4.87-1.22l-15.44,8.38c-1.3,.73-2.9,.55-4.05-.4-2.54-2.07-5.27-3.98-8.2-5.7-1.55-.91-3.13-1.75-4.72-2.52-1.29-.63-2.12-1.93-2.13-3.37l-.2-16.92c-.01-1.86-1.46-3.42-3.34-3.56l-15.87-1.17c-1.92-.15-3.65,1.16-4.01,3.08l-2.34,12.61c-.31,1.69-1.72,2.93-3.43,3.04-6.7,.34-13.31,1.74-19.58,4.11-1.47,.58-3.17,.14-4.19-1.1l-9.19-11.12c-1.23-1.49-3.39-1.8-5.01-.75l-13.26,8.72c-1.59,1.05-2.11,3.15-1.2,4.79l.34,.65,6.96,12.85c.75,1.38,.56,3.04-.46,4.23v.02c-2.45,2.85-4.68,5.95-6.66,9.31-1.05,1.79-1.99,3.6-2.87,5.45-.59,1.29-1.87,2.12-3.28,2.14l-14.39,.15c-1.97,.01-3.6,1.55-3.74,3.49l-1.18,15.81c-.03,.45,.03,.89,.13,1.29,.38,1.31,1.49,2.37,2.88,2.64l10.64,1.95c1.3,.25,2.37,1.18,2.81,2.4,.11,.32,.19,.66,.21,1.02,.48,8.6,2.69,17,6.47,24.74,.66,1.31,.42,2.87-.5,3.97-.13,.16-.28,.3-.45,.44l-9.99,8.25c-1.45,1.19-1.77,3.29-.74,4.88l.2,.31,8.53,12.97c1.09,1.62,3.21,2.15,4.93,1.22Zm81.42-84.22c1.78,1.86,3.47,3.96,5.01,6.31,2.92,4.49,5.05,12.58,4.65,17.94-.04,.57-.09,1.14-.15,1.7-3.78,34.32-45.83,44.82-65.25,15.68-2.53-3.81-4.45-10.08-4.84-15.32-.07-1.22-.09-2.38,0-3.41,.39-4.87,1.53-9.27,3.28-13.19,9.99-22.31,39.37-28.22,57.31-9.71Z"/>
      <path class="cls-11" d="M1679.37,762.24l38.05-27.24c3.19-2.24,7.36-2.5,10.8-.68,4.39,2.34,8.9,4.51,13.54,6.51,8.63,3.72,17.33,6.75,26.1,8.98,4.11,1.05,7.16,4.42,7.69,8.6l6.62,48.46c.66,5.18,5.24,8.99,10.53,8.71l44.66-2.2c5.06-.26,9.07-4.26,9.4-9.29l2.66-44.95c.16-4.38,3.27-8.1,7.65-9.21,18.44-4.72,36.1-12.4,52.28-22.71,3.91-2.48,9.13-1.96,12.49,1.22l19.91,18.82c3.81,3.54,9.73,3.75,13.74,.37l33.71-28.89c.7-.59,1.3-1.22,1.79-1.95,2.42-3.41,2.45-8.12-.11-11.61l-20.31-28.45-4.96-6.92c4.33-7.08,8.25-14.62,11.63-22.45,4.55-10.55,8.04-21.33,10.45-32.08,.94-4.1,4.23-7.24,8.41-7.77l39.04-5.29c5.33-.76,9.23-5.42,8.93-10.77l-1.67-34.14-.51-9.78c-.25-5.34-4.5-9.67-9.82-9.97l-37.57-2.25c-4.36-.21-8.09-3.16-9.19-7.3-3.51-12.36-8.3-24.32-14.33-35.6-.45-1.03-.96-1.91-1.49-2.87-.2-.31-.33-.64-.47-.98-1.65-3.77-.83-8.14,2.03-11.14l30.49-32.39c.37-.34,.67-.77,.94-1.15,2.62-3.76,2.42-8.96-.59-12.55l-28.75-33.65c-3.48-4.06-9.44-4.8-13.84-1.69l-39.68,28.42c-3.34,2.45-7.82,2.52-11.3,.29-7.71-4.83-15.91-9.14-24.58-12.89-4.59-1.98-9.22-3.76-13.89-5.32-3.78-1.3-6.53-4.6-7.05-8.55l-6.38-46.57c-.68-5.13-5.21-8.92-10.44-8.67l-44.18,2.24c-5.34,.25-9.65,4.46-9.99,9.87l-2.11,35.57c-.28,4.77-3.74,8.67-8.4,9.55-18.37,3.25-36.09,9.4-52.57,18.08-3.86,2.12-8.7,1.47-11.94-1.59l-29.18-27.49c-3.91-3.69-9.98-3.81-14.09-.35l-33.54,28.63c-4.04,3.43-4.73,9.42-1.66,13.63l1.17,1.67,23.61,33.04c2.53,3.54,2.59,8.18,.19,11.81l-.02,.05c-5.75,8.7-10.83,18.02-15.12,27.96-2.29,5.3-4.25,10.62-6.03,16.03-1.18,3.77-4.41,6.49-8.32,7.03l-39.63,5.37c-5.43,.72-9.39,5.52-9.1,10.92l2.21,43.99c.07,1.25,.39,2.45,.82,3.52,1.5,3.48,4.91,6.01,8.86,6.27l30.01,1.71c3.67,.25,6.95,2.44,8.57,5.65,.41,.85,.74,1.77,.93,2.74,4.3,23.54,13.27,45.93,26.36,65.98,2.27,3.37,2.15,7.77-.01,11.12-.32,.47-.68,.93-1.09,1.36l-24.71,26.21c-3.58,3.79-3.73,9.68-.35,13.7l.66,.79,27.99,32.82c3.57,4.1,9.6,4.81,14.02,1.66Zm195.44-260.29c5.56,4.51,10.93,9.72,15.98,15.68,9.61,11.37,18.26,32.96,19,47.85,.09,1.6,.13,3.17,.18,4.75,1.43,95.93-110.91,139.39-174.5,65.74-8.3-9.64-15.75-26.26-18.64-40.57-.62-3.33-1.08-6.53-1.17-9.4-.6-13.55,1.02-26.08,4.5-37.49,19.85-64.95,98.82-91.39,154.66-46.55Z"/>
      <path class="cls-11" d="M498.34,681.49c11.91-60.41,113.26-48.89,113.26-48.89,0,0,75.2,99.01,95.14,100.09,19.94,1.09-47.76-97.2-47.76-97.2,38.03-6.39,138.9,33.73,138.9,33.73,0,0,2.29,121.49,21.89,117.63,19.59-3.85-7.52-107.47-7.52-107.47,37.83,8.52,75.45,49.34,75.45,49.34,48.16,67.38-40.85,125.75-40.85,125.75,0,0,1.7,42.08,31.01,88.44h0s6.48,8.49,13.49,23.19l-10.1,.71c-1.01-2.65-2.11-5.21-3.29-7.65,0-.02,0-.03-.02-.04-.02-.04-.04-.07-.05-.11-.8-1.51-1.95-3.66-3.38-6.28,0,0,0,0,0,0,0,0,0,0,0-.01-3.51-5.83-5.91-10.14-7.45-13.27,0,0,0-.02-.01-.03-10.58-18.32-25.63-42.1-34.88-46.66,0,0,1.01-1.65,1.84-4.79-.59,1.53-1.2,3.12-1.84,4.79-14.7,38.27-100.73,50.49-149.6,43.98-48.87-6.51-28.82-21.57-4.42-45.44,24.4-23.87,79.15-21.86,94.61-31.63,15.45-9.77-8.62-16.77-40.56-12.06-31.94,4.72-45.75,37.96-97.29,46.53-51.53,8.57-97.89-86.25-97.89-86.25,36.6,8.61,99.45-15.65,101.06-28.17,1.61-12.53-93.42-4.63-108.5-7.3-15.08-2.67-43.1-30.5-31.19-90.91Z"/>
      <path class="cls-8" d="M1314.66,911.32l-53.61,637.39s-5.62,38.64,23.12,38.71c47.25,.11,235.2,0,235.2,0,0,0-35.56-8.04-35.13-26.14,.51-21.33,62.66-655.99,62.66-655.99l-232.24,6.03Z"/>
      <path class="cls-15" d="M1534.62,1575.85c-9.29,.03-188.8,.59-234.82,0-20.06-.25-23.57-17.83-23.74-29.21-.08-5.46,.61-9.49,.61-9.49l1.39-16.57,3.55-42.22,3.14-37.3,4.03-47.94,3.4-40.46,38.09-452.91,232.24-6.03s-26.17,265.6-44.69,458.94c-2.07,21.54-4.03,42.2-5.85,61.48-.59,6.16-1.15,12.17-1.71,18.03-1.72,18.29-3.29,35.09-4.65,49.92-.72,7.82-1.38,15.08-1.98,21.74-2.36,26.07-3.75,42.72-3.77,45.89,0,1.85,.15,3.56,.45,5.16,3.81,20.31,30.82,20.98,34.31,20.98Z"/>
      <polygon class="cls-15" points="750.66 564.47 881.23 1088.97 899.11 1160.8 959.93 1405.09 2089.79 1405.09 1865.63 564.47 750.66 564.47"/>
      <polygon class="cls-8" points="750.66 564.47 732.56 570.5 935.87 1423.34 959.93 1405.1 750.66 564.47"/>
      <polygon class="cls-8" points="935.87 1423.34 2058.78 1423.34 2089.78 1405.1 959.93 1405.1 935.87 1423.34"/>
      <rect class="cls-15" x="1330.2" y="1576.11" width="243.13" height="11.55" transform="translate(2903.53 3163.77) rotate(180)"/>
      <polygon class="cls-7" points="1511.52 1423.34 1510.27 1432.17 1281.62 1478.36 1284.76 1441.06 1286.25 1423.34 1511.52 1423.34"/>
      <path class="cls-16" d="M1534.62,1575.85c-9.29,.03-188.8,.59-234.82,0-20.06-.25-23.57-17.83-23.74-29.21l227.57-42.82c-2.36,26.07-3.75,42.72-3.77,45.89,0,1.85,.15,3.56,.45,5.16,3.81,20.31,30.82,20.98,34.31,20.98Z"/>
      <polygon class="cls-16" points="1456.26 1234.92 959.93 1405.1 899.11 1160.8 1456.26 1234.92"/>
      <polygon class="cls-6" points="750.66 564.47 1865.63 564.47 2045.17 1240.07 918.91 1240.07 750.66 564.47"/>
      <polygon class="cls-14" points="795.59 588.47 955.76 1203.9 1991.16 1203.9 1829.24 595.56 795.59 588.47"/>
      <rect class="cls-17" x="1170.4" y="956.77" width="391.64" height="247.11"/>
      <rect class="cls-2" x="1366.22" y="956.78" width="391.63" height="247.1"/>
      <polygon class="cls-5" points="1366.22 993.27 1283.67 1075.83 1170.63 1075.83 1170.63 956.77 1366.22 956.77 1366.22 993.27"/>
      <polygon class="cls-2" points="1170.4 956.77 1082.35 1041.73 1278.29 1041.73 1366.22 956.77 1170.4 956.77"/>
      <polygon class="cls-17" points="1757.86 965.53 1366.22 956.77 1366.22 988.08 1366.22 988.08 1366.22 993.2 1439.04 1073.04 1757.85 1073.04 1757.85 993.56 1755.84 991.19 1757.86 991.19 1757.86 965.53"/>
      <polygon class="cls-2" points="1366.22 956.77 1443.71 1041.73 1830.17 1041.73 1757.86 956.77 1366.22 956.77"/>
      <path class="cls-9" d="M683.77,925.5s2.72-29.68-30.43-29.68c0,0,10.05,2.73,15.24,8.18,0,0-21.15-12.42-44.16,6.66-23.01,19.08-8.71,66.92-15.71,76.01-7,9.08-34.25,10.9-30.92,40.28,3.33,29.37,86.5,66.16,81.16,90.47,0,0,32.59-47.91,9.29-69.77,0,0,11.36,10.7,12.52,23.42,0,0,3.08-24.83-12.72-32.77-13.98-7.03-25.44-32.73-24.23-37.33,1.21-4.59,39.97-75.45,39.97-75.45Z"/>
      <path class="cls-18" d="M651.13,1067.98s24.77,102.48,49.09,122.96c14.62,12.31,58.07,40.57,58.07,40.57l-18.08,6.56s-60.28-20.36-73.77-36.22c-13.49-15.87-50.44-95.37-50.44-95.37l35.13-38.5Z"/>
      <g>
        <path class="cls-2" d="M793.71,1268.98l-5.82-14.42c-6.24-15.46-21.24-25.58-37.91-25.58h-107.39v359.05h444.22v-290.91h-251.38c-18.34,0-34.85-11.14-41.72-28.15Z"/>
        <g>
          <path class="cls-1" d="M709.6,1447.32v-25.88l90.78-39.76v26.45l-63.39,26.07,63.39,26.07v26.82l-90.78-39.76Z"/>
          <path class="cls-1" d="M894.71,1350.73h24.19l-83.09,173.68h-24.19l83.09-173.68Z"/>
          <path class="cls-1" d="M1019.81,1421.44v25.88l-90.78,39.76v-26.44l63.39-26.07-63.39-26.07v-26.82l90.78,39.76Z"/>
        </g>
      </g>
      <path class="cls-13" d="M418.32,1248.02c.22,.39,.45,.8,.68,1.2,5.42,9.42,17.86,32.51,31.55,57.77,6.48,11.99,13.26,24.46,19.7,36.2,11.09,20.26,21.17,38.31,27.06,47.84,5.99,9.7,10.39,16.51,12.17,19.23h.01c.54,.86,.65,1.84,.58,2.83-.62,8.55-.45,17.04,.39,25.41,8.26,82.19,63.68,126.24,63.68,126.24l16.48,2.43s-23.32-86.39-30.19-135.24c-1.16-8.28-1.67-14.99-1.26-19.36,1.22-12.73-1.04-31.41-5.32-52.86-7.61-38.12-21.57-84.9-33.7-122.35-.77-2.39-23.94-86.22-23.94-86.22-19.45,17-90.39,24.02-90.39,24.02,0,0-12.03,29.25,12.49,72.86Z"/>
      <path class="cls-19" d="M625.22,1588.03h-68.78s-1.65-10.48,1.94-18.43c3.44-7.63,8.35-7.87,.63-19.84,4.37,4.5,18.42,6.36,28.36,5.02,1.22,1.97,7.85,15.23,11.92,18.15,4.49,3.23,24.54,2.08,25.92,15.1Z"/>
      <path class="cls-19" d="M418.32,1248.02c.22,.39,.45,.8,.68,1.2,5.42,9.42,34.74,63.57,48.43,88.83-15.87-65.29-4.83-130.58-4.83-130.58l-44.28,40.55Z"/>
      <path class="cls-9" d="M674.39,921.33c.45-1.81-39.28,17.96-41.3,20.19-18.63,20.67-13.32,47.64-2.66,47.9,6.84,.17,5.51,11.54,5.51,11.54l76.18-32.23s-9.17-53.49-37.74-47.4Z"/>
      <path class="cls-2" d="M648.79,1052.59s11.59,23.16,10.15,41.95c0,0-13.98,22.07-50.23,27.65,0,0,31.17-69.62,40.09-69.6Z"/>
      <path class="cls-13" d="M471.94,1180.28l.23-12.86c-25.63,3.23-88.37-30.63-88.37-30.63,0,0-26.81,17.83-30.48,68.76-1.79,24.86-13.12,129.98-14.38,161.37-.46,11.38-.61,19.5-.66,22.74,0,.02,0,.02,0,.03-.02,.99-.48,1.86-1.09,2.65-5.3,6.74-9.9,13.88-13.89,21.29-39.11,72.76-18.66,171.63-18.66,171.63l9.08-2.31s33.07-102.49,54.68-146.83c3.67-7.52,7-13.37,9.79-16.75,8.13-9.87,16.69-26.63,25.14-46.8,15.96-38.14,68.6-192.29,68.6-192.29Z"/>
      <path class="cls-19" d="M359.34,1588.03h-68.78s-1.65-10.48,1.94-18.43c3.44-7.63,8.83-11.1,7.54-20.33,4.37,4.5,11.49,9.54,21.44,8.2,1.22,1.97,7.86,12.54,11.93,15.47,4.49,3.23,24.54,2.08,25.92,15.1Z"/>
      <path class="cls-2" d="M604.06,1136.97c-9.24,1.58,1.51,8.92-11.2,10.3-18.08,1.97-36.76,3.33-46.54,7.23-3.57,1.42-5.95,3.18-6.7,5.43-4.24,12.75-31.09,34.66-31.09,34.66-119.76-5.45-127.47-58.83-127.47-58.83,77.73-75.49,143.85-116.63,198.5-121.73,13.3-1.24,31.23,.42,39.64,4.17,19.11,8.51,29.59,34.4,29.59,34.4,0,0-9.63,78.38-44.73,84.37Z"/>
      <path class="cls-17" d="M592.87,1147.27c-18.08,1.97-36.76,3.33-46.54,7.23-4-59.73,24.19-104.65,24.19-104.65,0,0,18.39,74.83,22.35,97.43Z"/>
      <path class="cls-18" d="M608.47,1039.73s-45.48-2.48-53.56,26.07c-8.08,28.55,15.16,142.52,20.17,154.28,9.12,21.42,53.51,82.54,53.51,82.54l16.32-4.97s-29.6-93.37-36.21-102.61c-10.37-14.5,13.37-142.88-.24-155.3Z"/>
      <path class="cls-18" d="M644.92,1297.64s.84,7.24,3.9,10.98,11.96,12.78,12.12,18.08c0,0-.45,2.35-2.36,1.92-1.91-.43-8.54-6.99-11.94-6.52,0,0,1.81,10.61,3.61,13.6,1.8,2.99,.37,15.66-.71,18.24-1.08,2.58-14.35-13.84-19.8-21.18-5.45-7.34-.09-37.1-.09-37.1l15.27,1.99Z"/>
      <path class="cls-2" d="M545.94,1103.98c.12,.67,43.04,7.9,69.88-5.73,0,0,22.43-70.25-9.62-66.89-32.05,3.36-51.02,13.46-51.83,28.8-.81,15.34-8.43,43.82-8.43,43.82Z"/>
      <path class="cls-18" d="M618.18,1023.12c3.42,10.71,14.81,41.22,30.61,29.48-.54-2.28,2.78-8.9,6.7-15.62,5-8.59,10.96-17.38,10.96-17.38l-25.74-22.55-1.54-1.35c-6.73,11.75-13.35,17.41-19.15,21.74-1.76,1.32-2.51,3.59-1.84,5.68Z"/>
      <path class="cls-10" d="M666.44,1019.6s-5.95,8.76-10.95,17.37c-16-9.86-16.02-29.67-14.78-39.93l25.74,22.56Z"/>
      <path class="cls-18" d="M667.16,1030.9s-38.85-21.62-25.01-45.6c13.83-23.98,18.14-42.93,43.52-30.14,25.39,12.79,24.88,24.69,22.21,33.82-2.67,9.13-30.26,46.92-40.73,41.92Z"/>
      <path class="cls-9" d="M714.44,975c-1.78-10.65-7.19-11.67-10.96-10.95-14.35-23.72-37.78-14.46-37.78-14.46-12.52,15.71-30.62,18.39-30.62,18.39,0,0,4.51,8.39,23.08,13.58,5.67,1.59,12.11,.63,18.32-1.46-12.89,7.18-26.36,9.94-26.36,9.94,24.48,2.24,47.76-20.14,50.18-22.53,1.13,3.47,3.11,10.73,1.92,16.04-1.61,7.21-8.01,20.28-4.1,21.97,0,0,18.99-14.52,16.32-30.49Z"/>
      <path class="cls-18" d="M765.4,1231.57s-10.84,8.13-2.67,13.45c8.17,5.32,22.76,6.75,22.82,3.26,.2-11.7-5.64-20.03-20.14-16.71Z"/>
      <rect class="cls-4" y="1587.66" width="2791.71" height="6.61" rx="2.99" ry="2.99"/>
      <path class="cls-2" d="M922.3,785.3c-1.26-5.21,1.02-9.29,5.84-9.3,4.8,0,9.01,4.01,10.29,9.27,1.26,5.21-.99,9.29-5.84,9.3-4.85,0-9.01-4.01-10.29-9.27Zm12.03-.02c-.79-3.26-2.99-5.72-5.38-5.71-2.39,0-3.36,2.39-2.56,5.73,.79,3.28,2.97,5.72,5.38,5.71,2.41,0,3.36-2.42,2.56-5.73Z"/>
      <path class="cls-16" d="M852.59,650.37l-2.98,.77-1.61-3.23,4.84-1.55h2.72s4.38,18.08,4.38,18.08h-3.94s-3.41-14.07-3.41-14.07Z"/>
      <path class="cls-16" d="M866.74,655.46c-1.26-5.21,1.02-9.29,5.84-9.3,4.8,0,9.01,4.01,10.29,9.27,1.26,5.21-.99,9.29-5.84,9.3-4.85,0-9.01-4.01-10.29-9.27Zm12.03-.02c-.79-3.26-2.99-5.72-5.38-5.71-2.38,0-3.36,2.39-2.56,5.73,.79,3.28,2.97,5.72,5.38,5.71,2.41,0,3.36-2.42,2.56-5.73Z"/>
      <path class="cls-16" d="M1184.47,649.77l-2.98,.77-1.61-3.23,4.84-1.55h2.72s4.38,18.08,4.38,18.08h-3.94s-3.41-14.07-3.41-14.07Z"/>
      <path class="cls-16" d="M1198.62,654.85c-1.26-5.21,1.02-9.29,5.84-9.3,4.8,0,9.01,4.01,10.29,9.27,1.26,5.21-.99,9.29-5.84,9.3-4.85,0-9.01-4.01-10.29-9.27Zm12.03-.02c-.79-3.26-2.99-5.72-5.38-5.71-2.39,0-3.36,2.39-2.56,5.73,.79,3.28,2.97,5.72,5.38,5.71,2.41,0,3.36-2.42,2.56-5.73Z"/>
      <path class="cls-16" d="M1222.74,654.81c-1.26-5.21,1.02-9.29,5.84-9.3,4.8,0,9.01,4.01,10.29,9.27,1.26,5.21-.99,9.29-5.84,9.3-4.85,0-9.01-4.01-10.29-9.27Zm12.03-.02c-.79-3.26-2.99-5.72-5.38-5.71-2.39,0-3.36,2.39-2.56,5.73,.79,3.28,2.97,5.72,5.38,5.71,2.41,0,3.36-2.42,2.56-5.73Z"/>
      <path class="cls-16" d="M1346.07,654.85c-1.26-5.21,1.02-9.29,5.84-9.3,4.8,0,9.01,4.01,10.29,9.27,1.26,5.21-.99,9.29-5.84,9.3-4.85,0-9.01-4.01-10.29-9.27Zm12.03-.02c-.79-3.26-2.99-5.72-5.38-5.71-2.39,0-3.36,2.39-2.56,5.73,.79,3.28,2.97,5.72,5.38,5.71,2.41,0,3.36-2.42,2.56-5.73Z"/>
      <path class="cls-16" d="M1370.19,654.81c-1.26-5.21,1.02-9.29,5.84-9.3,4.8,0,9.01,4.01,10.29,9.27,1.26,5.21-.99,9.29-5.84,9.3-4.85,0-9.01-4.01-10.29-9.27Zm12.03-.02c-.79-3.26-2.99-5.72-5.38-5.71-2.38,0-3.36,2.39-2.56,5.73,.79,3.28,2.97,5.72,5.38,5.71,2.41,0,3.36-2.42,2.56-5.73Z"/>
      <path class="cls-16" d="M1394.3,654.77c-1.26-5.21,1.02-9.29,5.84-9.3,4.8,0,9.01,4.01,10.29,9.27,1.26,5.21-.99,9.29-5.84,9.3-4.85,0-9.01-4.01-10.29-9.27Zm12.03-.02c-.79-3.26-2.99-5.72-5.38-5.71-2.39,0-3.36,2.39-2.56,5.73,.79,3.28,2.97,5.72,5.38,5.71,2.41,0,3.36-2.42,2.56-5.73Z"/>
      <path class="cls-16" d="M1561.95,654.36c-1.26-5.21,1.02-9.29,5.84-9.3,4.8,0,9.01,4.01,10.29,9.27,1.26,5.21-.99,9.29-5.84,9.3s-9.01-4.01-10.29-9.27Zm12.03-.02c-.79-3.26-2.99-5.72-5.38-5.71s-3.36,2.39-2.56,5.73c.79,3.28,2.97,5.72,5.38,5.71,2.41,0,3.36-2.42,2.56-5.73Z"/>
      <path class="cls-16" d="M1585.03,654.32c-1.26-5.21,1.02-9.29,5.84-9.3,4.8,0,9.01,4.01,10.29,9.27,1.26,5.21-.99,9.29-5.84,9.3-4.85,0-9.01-4.01-10.29-9.27Zm12.03-.02c-.79-3.26-2.99-5.72-5.38-5.71-2.39,0-3.36,2.39-2.56,5.73,.79,3.28,2.97,5.72,5.38,5.71s3.36-2.42,2.56-5.73Z"/>
      <path class="cls-16" d="M1610.13,654.28c-1.26-5.21,1.02-9.29,5.84-9.3,4.8,0,9.01,4.01,10.29,9.27,1.26,5.21-.99,9.29-5.84,9.3s-9.01-4.01-10.29-9.27Zm12.03-.02c-.79-3.26-2.99-5.72-5.38-5.71-2.39,0-3.36,2.39-2.56,5.73,.8,3.28,2.97,5.72,5.38,5.71,2.41,0,3.36-2.42,2.56-5.73Z"/>
      <path class="cls-16" d="M1651.13,654.21c-1.26-5.21,1.02-9.29,5.84-9.3,4.8,0,9.01,4.01,10.29,9.27,1.26,5.21-.99,9.29-5.84,9.3-4.85,0-9.01-4.01-10.29-9.27Zm12.03-.02c-.79-3.26-2.99-5.72-5.38-5.71-2.39,0-3.36,2.39-2.56,5.73,.8,3.28,2.97,5.72,5.38,5.71,2.41,0,3.36-2.42,2.56-5.73Z"/>
      <path class="cls-16" d="M1677.1,649.06l-2.98,.77-1.61-3.23,4.84-1.55h2.72s4.38,18.08,4.38,18.08h-3.94s-3.41-14.07-3.41-14.07Z"/>
      <path class="cls-16" d="M1691.24,654.14c-1.26-5.21,1.02-9.29,5.84-9.3,4.8,0,9.01,4.01,10.29,9.27,1.26,5.21-.99,9.29-5.84,9.3-4.85,0-9.01-4.01-10.29-9.27Zm12.03-.02c-.79-3.26-2.99-5.72-5.38-5.71-2.39,0-3.36,2.39-2.56,5.73,.79,3.28,2.97,5.72,5.38,5.71,2.41,0,3.36-2.42,2.56-5.73Z"/>
      <path class="cls-16" d="M1731.43,654.04c-1.26-5.21,1.02-9.29,5.84-9.3,4.8,0,9.01,4.01,10.29,9.27,1.26,5.21-.99,9.29-5.84,9.3-4.85,0-9.01-4.01-10.29-9.27Zm12.03-.02c-.79-3.26-2.99-5.72-5.38-5.71-2.39,0-3.36,2.39-2.56,5.73,.8,3.28,2.97,5.72,5.38,5.71,2.41,0,3.36-2.42,2.56-5.73Z"/>
      <path class="cls-16" d="M1035.99,694.27c-1.26-5.21,1.02-9.29,5.84-9.3,4.8,0,9.01,4.01,10.29,9.27,1.26,5.21-.99,9.29-5.84,9.3-4.85,0-9.01-4.01-10.29-9.27Zm12.03-.02c-.79-3.26-2.99-5.72-5.38-5.71-2.39,0-3.36,2.39-2.56,5.73,.79,3.28,2.97,5.72,5.38,5.71,2.41,0,3.36-2.42,2.56-5.73Z"/>
      <path class="cls-16" d="M1060.1,694.23c-1.26-5.21,1.02-9.29,5.84-9.3,4.8,0,9.01,4.01,10.29,9.27,1.26,5.21-.99,9.29-5.84,9.3-4.85,0-9.01-4.01-10.29-9.27Zm12.03-.02c-.79-3.26-2.99-5.72-5.38-5.71-2.39,0-3.36,2.39-2.56,5.73,.79,3.28,2.97,5.72,5.38,5.71,2.41,0,3.36-2.42,2.56-5.73Z"/>
      <path class="cls-16" d="M1660.59,693.29c-1.26-5.21,1.02-9.29,5.84-9.3,4.8,0,9.01,4.01,10.29,9.27,1.26,5.21-.99,9.29-5.84,9.3s-9.01-4.01-10.29-9.27Zm12.03-.02c-.79-3.26-2.99-5.72-5.38-5.71-2.39,0-3.36,2.39-2.56,5.73,.8,3.28,2.97,5.72,5.38,5.71,2.41,0,3.36-2.42,2.56-5.73Z"/>
      <path class="cls-16" d="M1686.56,688.14l-2.98,.77-1.61-3.23,4.84-1.55h2.72s4.38,18.08,4.38,18.08h-3.94s-3.41-14.07-3.41-14.07Z"/>
      <path class="cls-16" d="M1700.71,693.23c-1.26-5.21,1.02-9.29,5.84-9.3,4.8,0,9.01,4.01,10.29,9.27,1.26,5.21-.99,9.29-5.84,9.3-4.85,0-9.01-4.01-10.29-9.27Zm12.03-.02c-.79-3.26-2.99-5.72-5.38-5.71-2.38,0-3.36,2.39-2.56,5.73,.79,3.28,2.97,5.72,5.38,5.71,2.41,0,3.36-2.42,2.56-5.73Z"/>
      <path class="cls-16" d="M1789.12,693.04c-1.26-5.21,1.02-9.29,5.84-9.3,4.8,0,9.01,4.01,10.29,9.27,1.26,5.21-.99,9.29-5.84,9.3-4.85,0-9.01-4.01-10.29-9.27Zm12.03-.02c-.79-3.26-2.99-5.72-5.38-5.71-2.39,0-3.36,2.39-2.56,5.73,.79,3.28,2.97,5.72,5.38,5.71s3.36-2.42,2.56-5.73Z"/>
      <path class="cls-16" d="M1815.09,687.89l-2.98,.77-1.61-3.23,4.84-1.55h2.72s4.38,18.08,4.38,18.08h-3.94s-3.41-14.07-3.41-14.07Z"/>
      <path class="cls-16" d="M1015.7,905.27c-1.26-5.21,1.02-9.29,5.84-9.3,4.8,0,9.01,4.01,10.29,9.27,1.26,5.21-.99,9.29-5.84,9.3-4.85,0-9.01-4.01-10.29-9.27Zm12.03-.02c-.79-3.26-2.99-5.72-5.38-5.71-2.39,0-3.36,2.39-2.56,5.73,.79,3.28,2.97,5.72,5.38,5.71s3.36-2.42,2.56-5.73Z"/>
      <path class="cls-16" d="M1039.81,905.23c-1.26-5.21,1.02-9.29,5.84-9.3,4.8,0,9.01,4.01,10.29,9.27,1.26,5.21-.99,9.29-5.84,9.3-4.85,0-9.01-4.01-10.29-9.27Zm12.03-.02c-.79-3.26-2.99-5.72-5.38-5.71-2.39,0-3.36,2.39-2.56,5.73,.8,3.28,2.97,5.72,5.38,5.71,2.41,0,3.36-2.42,2.56-5.73Z"/>
      <path class="cls-16" d="M1065.78,900.08l-2.98,.77-1.61-3.23,4.84-1.55h2.72s4.38,18.08,4.38,18.08h-3.94s-3.41-14.07-3.41-14.07Z"/>
      <path class="cls-16" d="M1104.04,905.12c-1.26-5.21,1.02-9.29,5.84-9.3,4.8,0,9.01,4.01,10.29,9.27,1.26,5.21-.99,9.29-5.84,9.3-4.85,0-9.01-4.01-10.29-9.27Zm12.03-.02c-.79-3.26-2.99-5.72-5.38-5.71-2.39,0-3.36,2.39-2.56,5.73,.79,3.28,2.97,5.72,5.38,5.71,2.41,0,3.36-2.42,2.56-5.73Z"/>
      <path class="cls-16" d="M1128.16,905.08c-1.26-5.21,1.02-9.29,5.84-9.3,4.8,0,9.01,4.01,10.29,9.27,1.26,5.21-.99,9.29-5.84,9.3-4.85,0-9.01-4.01-10.29-9.27Zm12.03-.02c-.79-3.26-2.99-5.72-5.38-5.71-2.39,0-3.36,2.39-2.56,5.73,.79,3.28,2.97,5.72,5.38,5.71,2.41,0,3.36-2.42,2.56-5.73Z"/>
      <path class="cls-16" d="M1152.28,905.04c-1.26-5.21,1.02-9.29,5.84-9.3,4.8,0,9.01,4.01,10.29,9.27,1.26,5.21-.99,9.29-5.84,9.3-4.85,0-9.01-4.01-10.29-9.27Zm12.03-.02c-.79-3.26-2.99-5.72-5.38-5.71-2.39,0-3.36,2.39-2.56,5.73,.8,3.28,2.97,5.72,5.38,5.71,2.41,0,3.36-2.42,2.56-5.73Z"/>
      <path class="cls-16" d="M1453.33,905.27c-1.26-5.21,1.02-9.29,5.84-9.3,4.8,0,9.01,4.01,10.29,9.27,1.26,5.21-.99,9.29-5.84,9.3-4.85,0-9.01-4.01-10.29-9.27Zm12.03-.02c-.79-3.26-2.99-5.72-5.38-5.71-2.39,0-3.36,2.39-2.56,5.73,.8,3.28,2.97,5.72,5.38,5.71,2.41,0,3.36-2.42,2.56-5.73Z"/>
      <path class="cls-16" d="M1477.45,905.23c-1.26-5.21,1.02-9.29,5.84-9.3,4.8,0,9.01,4.01,10.29,9.27,1.26,5.21-.99,9.29-5.84,9.3-4.85,0-9.01-4.01-10.29-9.27Zm12.03-.02c-.79-3.26-2.99-5.72-5.38-5.71-2.38,0-3.36,2.39-2.56,5.73,.79,3.28,2.97,5.72,5.38,5.71,2.41,0,3.36-2.42,2.56-5.73Z"/>
      <path class="cls-16" d="M1503.41,900.08l-2.98,.77-1.61-3.23,4.84-1.55h2.72s4.38,18.08,4.38,18.08h-3.94s-3.41-14.07-3.41-14.07Z"/>
      <path class="cls-16" d="M1615.01,905.27c-1.26-5.21,1.02-9.29,5.84-9.3,4.8,0,9.01,4.01,10.29,9.27,1.26,5.21-.99,9.29-5.84,9.3s-9.01-4.01-10.29-9.27Zm12.03-.02c-.79-3.26-2.99-5.72-5.38-5.71-2.39,0-3.36,2.39-2.56,5.73,.8,3.28,2.97,5.72,5.38,5.71,2.41,0,3.36-2.42,2.56-5.73Z"/>
      <path class="cls-16" d="M1639.12,905.23c-1.26-5.21,1.02-9.29,5.84-9.3,4.8,0,9.01,4.01,10.29,9.27,1.26,5.21-.99,9.29-5.84,9.3-4.85,0-9.01-4.01-10.29-9.27Zm12.03-.02c-.79-3.26-2.99-5.72-5.38-5.71-2.38,0-3.36,2.39-2.56,5.73,.79,3.28,2.97,5.72,5.38,5.71,2.41,0,3.36-2.42,2.56-5.73Z"/>
      <path class="cls-16" d="M1665.09,900.08l-2.98,.77-1.61-3.23,4.84-1.55h2.72s4.38,18.08,4.38,18.08h-3.94s-3.41-14.07-3.41-14.07Z"/>
      <path class="cls-16" d="M1541.68,905.12c-1.26-5.21,1.02-9.29,5.84-9.3,4.8,0,9.01,4.01,10.29,9.27,1.26,5.21-.99,9.29-5.84,9.3-4.85,0-9.01-4.01-10.29-9.27Zm12.03-.02c-.79-3.26-2.99-5.72-5.38-5.71-2.39,0-3.36,2.39-2.56,5.73,.79,3.28,2.97,5.72,5.38,5.71,2.41,0,3.36-2.42,2.56-5.73Z"/>
      <path class="cls-16" d="M1565.79,905.08c-1.26-5.21,1.02-9.29,5.84-9.3,4.8,0,9.01,4.01,10.29,9.27,1.26,5.21-.99,9.29-5.84,9.3-4.85,0-9.01-4.01-10.29-9.27Zm12.03-.02c-.79-3.26-2.99-5.72-5.38-5.71-2.38,0-3.36,2.39-2.56,5.73,.79,3.28,2.97,5.72,5.38,5.71,2.41,0,3.36-2.42,2.56-5.73Z"/>
      <path class="cls-16" d="M1589.91,905.04c-1.26-5.21,1.02-9.29,5.84-9.3,4.8,0,9.01,4.01,10.29,9.27,1.26,5.21-.99,9.29-5.84,9.3-4.85,0-9.01-4.01-10.29-9.27Zm12.03-.02c-.79-3.26-2.99-5.72-5.38-5.71-2.39,0-3.36,2.39-2.56,5.73,.79,3.28,2.97,5.72,5.38,5.71,2.41,0,3.36-2.42,2.56-5.73Z"/>
      <path class="cls-16" d="M1234.75,904.64c-1.26-5.21,1.02-9.29,5.84-9.3,4.8,0,9.01,4.01,10.29,9.27,1.26,5.21-.99,9.29-5.84,9.3-4.85,0-9.01-4.01-10.29-9.27Zm12.03-.02c-.79-3.26-2.99-5.72-5.38-5.71-2.39,0-3.36,2.39-2.56,5.73,.79,3.28,2.97,5.72,5.38,5.71s3.36-2.42,2.56-5.73Z"/>
      <path class="cls-16" d="M1260.71,899.49l-2.98,.77-1.61-3.23,4.84-1.55h2.72s4.38,18.08,4.38,18.08h-3.94s-3.41-14.07-3.41-14.07Z"/>
      <path class="cls-16" d="M1274.86,904.57c-1.26-5.21,1.02-9.29,5.84-9.3,4.8,0,9.01,4.01,10.29,9.27,1.26,5.21-.99,9.29-5.84,9.3-4.85,0-9.01-4.01-10.29-9.27Zm12.03-.02c-.79-3.26-2.99-5.72-5.38-5.71-2.39,0-3.36,2.39-2.56,5.73,.79,3.28,2.97,5.72,5.38,5.71,2.41,0,3.36-2.42,2.56-5.73Z"/>
      <path class="cls-16" d="M1751.84,904.07c-1.26-5.21,1.02-9.29,5.84-9.3,4.8,0,9.01,4.01,10.29,9.27,1.26,5.21-.99,9.29-5.84,9.3-4.85,0-9.01-4.01-10.29-9.27Zm12.03-.02c-.79-3.26-2.99-5.72-5.38-5.71-2.39,0-3.36,2.39-2.56,5.73,.79,3.28,2.97,5.72,5.38,5.71,2.41,0,3.36-2.42,2.56-5.73Z"/>
      <path class="cls-16" d="M1777.8,898.92l-2.98,.78-1.61-3.23,4.84-1.55h2.72s4.38,18.08,4.38,18.08h-3.94s-3.41-14.07-3.41-14.07Z"/>
      <path class="cls-16" d="M1791.95,904c-1.26-5.21,1.02-9.29,5.84-9.3,4.8,0,9.01,4.01,10.29,9.27,1.26,5.21-.99,9.29-5.84,9.3-4.85,0-9.01-4.01-10.29-9.27Zm12.03-.02c-.79-3.26-2.99-5.72-5.38-5.71s-3.36,2.39-2.56,5.73c.79,3.28,2.97,5.72,5.38,5.71,2.41,0,3.36-2.42,2.56-5.73Z"/>
      <path class="cls-16" d="M873.05,734.86l-2.98,.77-1.61-3.23,4.84-1.55h2.72s4.38,18.08,4.38,18.08h-3.94s-3.41-14.07-3.41-14.07Z"/>
      <path class="cls-16" d="M887.19,739.94c-1.26-5.21,1.02-9.29,5.84-9.3,4.8,0,9.01,4.01,10.29,9.27,1.26,5.21-.99,9.29-5.84,9.3-4.85,0-9.01-4.01-10.29-9.27Zm12.03-.02c-.79-3.26-2.99-5.72-5.38-5.71-2.39,0-3.36,2.39-2.56,5.73,.79,3.28,2.97,5.72,5.38,5.71,2.41,0,3.36-2.42,2.56-5.73Z"/>
      <path class="cls-16" d="M1023.77,739.71c-1.26-5.21,1.02-9.29,5.84-9.3,4.8,0,9.01,4.01,10.29,9.27,1.26,5.21-.99,9.29-5.84,9.3-4.85,0-9.01-4.01-10.29-9.27Zm12.03-.02c-.79-3.26-2.99-5.72-5.38-5.71-2.39,0-3.36,2.39-2.56,5.73,.8,3.28,2.97,5.72,5.38,5.71,2.41,0,3.36-2.42,2.56-5.73Z"/>
      <path class="cls-16" d="M1047.89,739.67c-1.26-5.21,1.02-9.29,5.84-9.3,4.8,0,9.01,4.01,10.29,9.27,1.26,5.21-.99,9.29-5.84,9.3-4.85,0-9.01-4.01-10.29-9.27Zm12.03-.02c-.79-3.26-2.99-5.72-5.38-5.71-2.39,0-3.36,2.39-2.56,5.73,.79,3.28,2.97,5.72,5.38,5.71,2.41,0,3.36-2.42,2.56-5.73Z"/>
      <path class="cls-16" d="M1072,739.63c-1.26-5.21,1.02-9.29,5.84-9.3,4.8,0,9.01,4.01,10.29,9.27,1.26,5.21-.99,9.29-5.84,9.3-4.85,0-9.01-4.01-10.29-9.27Zm12.03-.02c-.79-3.26-2.99-5.72-5.38-5.71-2.39,0-3.36,2.39-2.56,5.73,.79,3.28,2.97,5.72,5.38,5.71,2.41,0,3.36-2.42,2.56-5.73Z"/>
      <path class="cls-16" d="M1097.97,734.48l-2.98,.77-1.61-3.23,4.84-1.55h2.72s4.38,18.08,4.38,18.08h-3.94s-3.41-14.07-3.41-14.07Z"/>
      <path class="cls-16" d="M1114.1,734.45l-2.98,.78-1.61-3.23,4.84-1.55h2.72s4.38,18.08,4.38,18.08h-3.94s-3.41-14.07-3.41-14.07Z"/>
      <path class="cls-16" d="M1128.25,739.53c-1.26-5.21,1.02-9.29,5.84-9.3,4.8,0,9.01,4.01,10.29,9.27,1.26,5.21-.99,9.29-5.84,9.3-4.85,0-9.01-4.01-10.29-9.27Zm12.03-.02c-.79-3.26-2.99-5.72-5.38-5.71-2.39,0-3.36,2.39-2.56,5.73,.79,3.28,2.97,5.72,5.38,5.71,2.41,0,3.36-2.42,2.56-5.73Z"/>
      <path class="cls-2" d="M1751.88,738.52c-1.26-5.21,1.02-9.29,5.84-9.3,4.8,0,9.01,4.01,10.29,9.27,1.26,5.21-.99,9.29-5.84,9.3-4.85,0-9.01-4.01-10.29-9.27Zm12.03-.02c-.79-3.26-2.99-5.72-5.38-5.71-2.39,0-3.36,2.39-2.56,5.73,.79,3.28,2.97,5.72,5.38,5.71,2.41,0,3.36-2.42,2.56-5.73Z"/>
      <path class="cls-2" d="M1776,738.48c-1.26-5.21,1.02-9.29,5.84-9.3,4.8,0,9.01,4.01,10.29,9.27,1.26,5.21-.99,9.29-5.84,9.3-4.85,0-9.01-4.01-10.29-9.27Zm12.03-.02c-.79-3.26-2.99-5.72-5.38-5.71-2.39,0-3.36,2.39-2.56,5.73,.8,3.28,2.97,5.72,5.38,5.71,2.41,0,3.36-2.42,2.56-5.73Z"/>
      <path class="cls-16" d="M1800.12,738.44c-1.26-5.21,1.02-9.29,5.84-9.3,4.8,0,9.01,4.01,10.29,9.27,1.26,5.21-.99,9.29-5.84,9.3-4.85,0-9.01-4.01-10.29-9.27Zm12.03-.02c-.79-3.26-2.99-5.72-5.38-5.71-2.39,0-3.36,2.39-2.56,5.73,.79,3.28,2.97,5.72,5.38,5.71,2.41,0,3.36-2.42,2.56-5.73Z"/>
      <path class="cls-16" d="M1826.08,733.29l-2.98,.77-1.61-3.23,4.84-1.55h2.72s4.38,18.08,4.38,18.08h-3.94s-3.41-14.07-3.41-14.07Z"/>
      <path class="cls-16" d="M884.04,780.26l-2.98,.77-1.61-3.23,4.84-1.55h2.72s4.38,18.08,4.38,18.08h-3.94s-3.41-14.07-3.41-14.07Z"/>
      <path class="cls-16" d="M898.19,785.34c-1.26-5.21,1.02-9.29,5.84-9.3,4.8,0,9.01,4.01,10.29,9.27,1.26,5.21-.99,9.29-5.84,9.3-4.85,0-9.01-4.01-10.29-9.27Zm12.03-.02c-.79-3.26-2.99-5.72-5.38-5.71-2.39,0-3.36,2.39-2.56,5.73,.79,3.28,2.97,5.72,5.38,5.71,2.41,0,3.36-2.42,2.56-5.73Z"/>
      <path class="cls-16" d="M1010.65,785.15c-1.26-5.21,1.02-9.29,5.84-9.3,4.8,0,9.01,4.01,10.29,9.27,1.26,5.21-.99,9.29-5.84,9.3-4.85,0-9.01-4.01-10.29-9.27Zm12.03-.02c-.79-3.26-2.99-5.72-5.38-5.71-2.39,0-3.36,2.39-2.56,5.73,.79,3.28,2.97,5.72,5.38,5.71,2.41,0,3.36-2.42,2.56-5.73Z"/>
      <path class="cls-16" d="M1034.76,785.11c-1.26-5.21,1.02-9.29,5.84-9.3,4.8,0,9.01,4.01,10.29,9.27,1.26,5.21-.99,9.29-5.84,9.3-4.85,0-9.01-4.01-10.29-9.27Zm12.03-.02c-.79-3.26-2.99-5.72-5.38-5.71-2.39,0-3.36,2.39-2.56,5.73,.79,3.28,2.97,5.72,5.38,5.71,2.41,0,3.36-2.42,2.56-5.73Z"/>
      <path class="cls-2" d="M943.31,872.99c-1.26-5.21,1.02-9.29,5.84-9.3,4.8,0,9.01,4.01,10.29,9.27,1.26,5.21-.99,9.29-5.84,9.3-4.85,0-9.01-4.01-10.29-9.27Zm12.03-.02c-.79-3.26-2.99-5.72-5.38-5.71-2.39,0-3.36,2.39-2.56,5.73,.79,3.28,2.97,5.72,5.38,5.71,2.41,0,3.36-2.42,2.56-5.73Z"/>
      <path class="cls-2" d="M969.27,867.84l-2.98,.77-1.61-3.23,4.84-1.55h2.72s4.38,18.08,4.38,18.08h-3.94s-3.41-14.07-3.41-14.07Z"/>
      <path class="cls-16" d="M894.05,822.55l-2.98,.77-1.61-3.23,4.84-1.55h2.72s4.38,18.08,4.38,18.08h-3.94s-3.41-14.07-3.41-14.07Z"/>
      <path class="cls-16" d="M908.2,827.64c-1.26-5.21,1.02-9.29,5.84-9.3,4.8,0,9.01,4.01,10.29,9.27,1.26,5.21-.99,9.29-5.84,9.3-4.85,0-9.01-4.01-10.29-9.27Zm12.03-.02c-.79-3.26-2.99-5.72-5.38-5.71-2.39,0-3.36,2.39-2.56,5.73,.79,3.28,2.97,5.72,5.38,5.71,2.41,0,3.36-2.42,2.56-5.73Z"/>
      <path class="cls-16" d="M932.31,827.6c-1.26-5.21,1.02-9.29,5.84-9.3,4.8,0,9.01,4.01,10.29,9.27,1.26,5.21-.99,9.29-5.84,9.3-4.85,0-9.01-4.01-10.29-9.27Zm12.03-.02c-.79-3.26-2.99-5.72-5.38-5.71-2.39,0-3.36,2.39-2.56,5.73,.79,3.28,2.97,5.72,5.38,5.71,2.41,0,3.36-2.42,2.56-5.73Z"/>
      <path class="cls-16" d="M958.28,822.44l-2.98,.78-1.61-3.23,4.84-1.55h2.72s4.38,18.08,4.38,18.08h-3.94s-3.41-14.07-3.41-14.07Z"/>
      <path class="cls-16" d="M972.43,827.53c-1.26-5.21,1.02-9.29,5.84-9.3,4.8,0,9.01,4.01,10.29,9.27,1.26,5.21-.99,9.29-5.84,9.3-4.85,0-9.01-4.01-10.29-9.27Zm12.03-.02c-.79-3.26-2.99-5.72-5.38-5.71-2.39,0-3.36,2.39-2.56,5.73,.79,3.28,2.97,5.72,5.38,5.71,2.41,0,3.36-2.42,2.56-5.73Z"/>
      <path class="cls-16" d="M996.54,827.49c-1.26-5.21,1.02-9.29,5.84-9.3,4.8,0,9.01,4.01,10.29,9.27,1.26,5.21-.99,9.29-5.84,9.3-4.85,0-9.01-4.01-10.29-9.27Zm12.03-.02c-.79-3.26-2.99-5.72-5.38-5.71-2.39,0-3.36,2.39-2.56,5.73,.8,3.28,2.97,5.72,5.38,5.71,2.41,0,3.36-2.42,2.56-5.73Z"/>
      <path class="cls-16" d="M1020.66,827.45c-1.26-5.21,1.02-9.29,5.84-9.3,4.8,0,9.01,4.01,10.29,9.27,1.26,5.21-.99,9.29-5.84,9.3-4.85,0-9.01-4.01-10.29-9.27Zm12.03-.02c-.79-3.26-2.99-5.72-5.38-5.71-2.39,0-3.36,2.39-2.56,5.73,.79,3.28,2.97,5.72,5.38,5.71,2.41,0,3.36-2.42,2.56-5.73Z"/>
      <path class="cls-16" d="M1044.77,827.41c-1.26-5.21,1.02-9.29,5.84-9.3,4.8,0,9.01,4.01,10.29,9.27,1.26,5.21-.99,9.29-5.84,9.3-4.85,0-9.01-4.01-10.29-9.27Zm12.03-.02c-.79-3.26-2.99-5.72-5.38-5.71-2.39,0-3.36,2.39-2.56,5.73,.79,3.28,2.97,5.72,5.38,5.71,2.41,0,3.36-2.42,2.56-5.73Z"/>
      <path class="cls-16" d="M1068.89,827.36c-1.26-5.21,1.02-9.29,5.84-9.3,4.8,0,9.01,4.01,10.29,9.27,1.26,5.21-.99,9.29-5.84,9.3-4.85,0-9.01-4.01-10.29-9.27Zm12.03-.02c-.79-3.26-2.99-5.72-5.38-5.71-2.39,0-3.36,2.39-2.56,5.73,.79,3.28,2.97,5.72,5.38,5.71,2.41,0,3.36-2.42,2.56-5.73Z"/>
      <path class="cls-16" d="M1093,827.32c-1.26-5.21,1.02-9.29,5.84-9.3,4.8,0,9.01,4.01,10.29,9.27,1.26,5.21-.99,9.29-5.84,9.3-4.85,0-9.01-4.01-10.29-9.27Zm12.03-.02c-.79-3.26-2.99-5.72-5.38-5.71-2.39,0-3.36,2.39-2.56,5.73,.8,3.28,2.97,5.72,5.38,5.71,2.41,0,3.36-2.42,2.56-5.73Z"/>
      <path class="cls-16" d="M1118.97,822.17l-2.98,.77-1.61-3.23,4.84-1.55h2.72s4.38,18.08,4.38,18.08h-3.94s-3.41-14.07-3.41-14.07Z"/>
      <path class="cls-16" d="M1135.1,822.15l-2.98,.77-1.61-3.23,4.84-1.55h2.72s4.38,18.08,4.38,18.08h-3.94s-3.41-14.07-3.41-14.07Z"/>
      <path class="cls-16" d="M1149.25,827.23c-1.26-5.21,1.02-9.29,5.84-9.3,4.8,0,9.01,4.01,10.29,9.27,1.26,5.21-.99,9.29-5.84,9.3-4.85,0-9.01-4.01-10.29-9.27Zm12.03-.02c-.79-3.26-2.99-5.72-5.38-5.71-2.39,0-3.36,2.39-2.56,5.73,.79,3.28,2.97,5.72,5.38,5.71,2.41,0,3.36-2.42,2.56-5.73Z"/>
      <path class="cls-16" d="M905.04,867.95l-2.98,.77-1.61-3.23,4.84-1.55h2.72s4.38,18.08,4.38,18.08h-3.94s-3.41-14.07-3.41-14.07Z"/>
      <path class="cls-16" d="M919.19,873.03c-1.26-5.21,1.02-9.29,5.84-9.3,4.8,0,9.01,4.01,10.29,9.27,1.26,5.21-.99,9.29-5.84,9.3-4.85,0-9.01-4.01-10.29-9.27Zm12.03-.02c-.79-3.26-2.99-5.72-5.38-5.71-2.39,0-3.36,2.39-2.56,5.73,.79,3.28,2.97,5.72,5.38,5.71,2.41,0,3.36-2.42,2.56-5.73Z"/>
      <path class="cls-16" d="M983.42,872.93c-1.26-5.21,1.02-9.29,5.84-9.3,4.8,0,9.01,4.01,10.29,9.27,1.26,5.21-.99,9.29-5.84,9.3-4.85,0-9.01-4.01-10.29-9.27Zm12.03-.02c-.79-3.26-2.99-5.72-5.38-5.71-2.39,0-3.36,2.39-2.56,5.73,.79,3.28,2.97,5.72,5.38,5.71,2.41,0,3.36-2.42,2.56-5.73Z"/>
      <path class="cls-16" d="M1007.54,872.89c-1.26-5.21,1.02-9.29,5.84-9.3,4.8,0,9.01,4.01,10.29,9.27,1.26,5.21-.99,9.29-5.84,9.3-4.85,0-9.01-4.01-10.29-9.27Zm12.03-.02c-.79-3.26-2.99-5.72-5.38-5.71-2.39,0-3.36,2.39-2.56,5.73,.79,3.28,2.97,5.72,5.38,5.71,2.41,0,3.36-2.42,2.56-5.73Z"/>
      <path class="cls-16" d="M964.63,973.66c-1.26-5.21,1.02-9.29,5.84-9.3,4.8,0,9.01,4.01,10.29,9.27,1.26,5.21-.99,9.29-5.84,9.3-4.85,0-9.01-4.01-10.29-9.27Zm12.03-.02c-.79-3.26-2.99-5.72-5.38-5.71-2.39,0-3.36,2.39-2.56,5.73,.79,3.28,2.97,5.72,5.38,5.71,2.41,0,3.36-2.42,2.56-5.73Z"/>
      <path class="cls-16" d="M990.6,968.51l-2.98,.77-1.61-3.23,4.84-1.55h2.72s4.38,18.08,4.38,18.08h-3.94s-3.41-14.07-3.41-14.07Z"/>
      <path class="cls-16" d="M926.37,968.62l-2.98,.78-1.61-3.23,4.84-1.55h2.72s4.38,18.08,4.38,18.08h-3.94s-3.41-14.07-3.41-14.07Z"/>
      <path class="cls-16" d="M940.51,973.7c-1.26-5.21,1.02-9.29,5.84-9.3,4.8,0,9.01,4.01,10.29,9.27,1.26,5.21-.99,9.29-5.84,9.3-4.85,0-9.01-4.01-10.29-9.27Zm12.03-.02c-.79-3.26-2.99-5.72-5.38-5.71-2.38,0-3.36,2.39-2.56,5.73,.79,3.28,2.97,5.72,5.38,5.71,2.41,0,3.36-2.42,2.56-5.73Z"/>
      <path class="cls-2" d="M1004.75,973.59c-1.26-5.21,1.02-9.29,5.84-9.3,4.8,0,9.01,4.01,10.29,9.27,1.26,5.21-.99,9.29-5.84,9.3-4.85,0-9.01-4.01-10.29-9.27Zm12.03-.02c-.79-3.26-2.99-5.72-5.38-5.71-2.39,0-3.36,2.39-2.56,5.73,.79,3.28,2.97,5.72,5.38,5.71,2.41,0,3.36-2.42,2.56-5.73Z"/>
      <path class="cls-2" d="M1028.86,973.55c-1.26-5.21,1.02-9.29,5.84-9.3,4.8,0,9.01,4.01,10.29,9.27,1.26,5.21-.99,9.29-5.84,9.3-4.85,0-9.01-4.01-10.29-9.27Zm12.03-.02c-.79-3.26-2.99-5.72-5.38-5.71-2.39,0-3.36,2.39-2.56,5.73,.79,3.28,2.97,5.72,5.38,5.71,2.41,0,3.36-2.42,2.56-5.73Z"/>
      <path class="cls-16" d="M934.83,1006.04c-1.26-5.21,1.02-9.29,5.84-9.3,4.8,0,9.01,4.01,10.29,9.27,1.26,5.21-.99,9.29-5.84,9.3-4.85,0-9.01-4.01-10.29-9.27Zm12.03-.02c-.79-3.26-2.99-5.72-5.38-5.71-2.39,0-3.36,2.39-2.56,5.73,.8,3.28,2.97,5.72,5.38,5.71,2.41,0,3.36-2.42,2.56-5.73Z"/>
      <path class="cls-16" d="M960.8,1000.89l-2.98,.78-1.61-3.23,4.84-1.55h2.72s4.38,18.08,4.38,18.08h-3.94s-3.41-14.07-3.41-14.07Z"/>
      <path class="cls-16" d="M974.95,1005.97c-1.26-5.21,1.02-9.29,5.84-9.3,4.8,0,9.01,4.01,10.29,9.27,1.26,5.21-.99,9.29-5.84,9.3-4.85,0-9.01-4.01-10.29-9.27Zm12.03-.02c-.79-3.26-2.99-5.72-5.38-5.71-2.39,0-3.36,2.39-2.56,5.73,.79,3.28,2.97,5.72,5.38,5.71,2.41,0,3.36-2.42,2.56-5.73Z"/>
      <path class="cls-16" d="M999.06,1005.93c-1.26-5.21,1.02-9.29,5.84-9.3,4.8,0,9.01,4.01,10.29,9.27,1.26,5.21-.99,9.29-5.84,9.3-4.85,0-9.01-4.01-10.29-9.27Zm12.03-.02c-.79-3.26-2.99-5.72-5.38-5.71-2.39,0-3.36,2.39-2.56,5.73,.8,3.28,2.97,5.72,5.38,5.71,2.41,0,3.36-2.42,2.56-5.73Z"/>
      <path class="cls-16" d="M1031.65,872.85c-1.26-5.21,1.02-9.29,5.84-9.3,4.8,0,9.01,4.01,10.29,9.27,1.26,5.21-.99,9.29-5.84,9.3-4.85,0-9.01-4.01-10.29-9.27Zm12.03-.02c-.79-3.26-2.99-5.72-5.38-5.71-2.39,0-3.36,2.39-2.56,5.73,.79,3.28,2.97,5.72,5.38,5.71,2.41,0,3.36-2.42,2.56-5.73Z"/>
      <path class="cls-16" d="M1055.77,872.81c-1.26-5.21,1.02-9.29,5.84-9.3,4.8,0,9.01,4.01,10.29,9.27,1.26,5.21-.99,9.29-5.84,9.3-4.85,0-9.01-4.01-10.29-9.27Zm12.03-.02c-.79-3.26-2.99-5.72-5.38-5.71-2.39,0-3.36,2.39-2.56,5.73,.8,3.28,2.97,5.72,5.38,5.71,2.41,0,3.36-2.42,2.56-5.73Z"/>
      <path class="cls-2" d="M995.26,1090.79c-1.26-5.21,1.02-9.29,5.84-9.3,4.8,0,9.01,4.01,10.29,9.27,1.26,5.21-.99,9.29-5.84,9.3-4.85,0-9.01-4.01-10.29-9.27Zm12.03-.02c-.79-3.26-2.99-5.72-5.38-5.71-2.39,0-3.36,2.39-2.56,5.73,.79,3.28,2.97,5.72,5.38,5.71s3.36-2.42,2.56-5.73Z"/>
      <path class="cls-2" d="M1021.22,1085.64l-2.98,.77-1.61-3.23,4.84-1.55h2.72s4.38,18.08,4.38,18.08h-3.94s-3.41-14.07-3.41-14.07Z"/>
      <path class="cls-16" d="M946,1040.35l-2.98,.78-1.61-3.23,4.84-1.55h2.72s4.38,18.08,4.38,18.08h-3.94s-3.41-14.07-3.41-14.07Z"/>
      <path class="cls-16" d="M960.15,1045.43c-1.26-5.21,1.02-9.29,5.84-9.3,4.8,0,9.01,4.01,10.29,9.27,1.26,5.21-.99,9.29-5.84,9.3-4.85,0-9.01-4.01-10.29-9.27Zm12.03-.02c-.79-3.26-2.99-5.72-5.38-5.71-2.38,0-3.36,2.39-2.56,5.73,.79,3.28,2.97,5.72,5.38,5.71,2.41,0,3.36-2.42,2.56-5.73Z"/>
      <path class="cls-16" d="M984.26,1045.39c-1.26-5.21,1.02-9.29,5.84-9.3,4.8,0,9.01,4.01,10.29,9.27,1.26,5.21-.99,9.29-5.84,9.3-4.85,0-9.01-4.01-10.29-9.27Zm12.03-.02c-.79-3.26-2.99-5.72-5.38-5.71-2.39,0-3.36,2.39-2.56,5.73,.79,3.28,2.97,5.72,5.38,5.71,2.41,0,3.36-2.42,2.56-5.73Z"/>
      <path class="cls-16" d="M1010.23,1040.24l-2.98,.78-1.61-3.23,4.84-1.55h2.72s4.38,18.08,4.38,18.08h-3.94s-3.41-14.07-3.41-14.07Z"/>
      <path class="cls-16" d="M956.99,1085.75l-2.98,.78-1.61-3.23,4.84-1.55h2.72s4.38,18.08,4.38,18.08h-3.94s-3.41-14.07-3.41-14.07Z"/>
      <path class="cls-16" d="M971.14,1090.83c-1.26-5.21,1.02-9.29,5.84-9.3,4.8,0,9.01,4.01,10.29,9.27,1.26,5.21-.99,9.29-5.84,9.3-4.85,0-9.01-4.01-10.29-9.27Zm12.03-.02c-.79-3.26-2.99-5.72-5.38-5.71-2.39,0-3.36,2.39-2.56,5.73,.8,3.28,2.97,5.72,5.38,5.71,2.41,0,3.36-2.42,2.56-5.73Z"/>
      <path class="cls-16" d="M1035.37,1090.72c-1.26-5.21,1.02-9.29,5.84-9.3,4.8,0,9.01,4.01,10.29,9.27,1.26,5.21-.99,9.29-5.84,9.3-4.85,0-9.01-4.01-10.29-9.27Zm12.03-.02c-.79-3.26-2.99-5.72-5.38-5.71-2.39,0-3.36,2.39-2.56,5.73,.79,3.28,2.97,5.72,5.38,5.71,2.41,0,3.36-2.42,2.56-5.73Z"/>
      <path class="cls-16" d="M1059.49,1090.68c-1.26-5.21,1.02-9.29,5.84-9.3,4.8,0,9.01,4.01,10.29,9.27,1.26,5.21-.99,9.29-5.84,9.3-4.85,0-9.01-4.01-10.29-9.27Zm12.03-.02c-.79-3.26-2.99-5.72-5.38-5.71-2.39,0-3.36,2.39-2.56,5.73,.8,3.28,2.97,5.72,5.38,5.71,2.41,0,3.36-2.42,2.56-5.73Z"/>
      <path class="cls-2" d="M1004.56,1122.84c-1.26-5.21,1.02-9.29,5.84-9.3,4.8,0,9.01,4.01,10.29,9.27,1.26,5.21-.99,9.29-5.84,9.3-4.85,0-9.01-4.01-10.29-9.27Zm12.03-.02c-.79-3.26-2.99-5.72-5.38-5.71-2.39,0-3.36,2.39-2.56,5.73,.79,3.28,2.97,5.72,5.38,5.71,2.41,0,3.36-2.42,2.56-5.73Z"/>
      <path class="cls-2" d="M1030.52,1117.69l-2.98,.78-1.61-3.23,4.84-1.55h2.72s4.38,18.08,4.38,18.08h-3.94s-3.41-14.07-3.41-14.07Z"/>
      <path class="cls-16" d="M980.44,1122.88c-1.26-5.21,1.02-9.29,5.84-9.3,4.8,0,9.01,4.01,10.29,9.27,1.26,5.21-.99,9.29-5.84,9.3-4.85,0-9.01-4.01-10.29-9.27Zm12.03-.02c-.79-3.26-2.99-5.72-5.38-5.71-2.39,0-3.36,2.39-2.56,5.73,.79,3.28,2.97,5.72,5.38,5.71s3.36-2.42,2.56-5.73Z"/>
      <path class="cls-16" d="M1044.67,1122.77c-1.26-5.21,1.02-9.29,5.84-9.3,4.8,0,9.01,4.01,10.29,9.27,1.26,5.21-.99,9.29-5.84,9.3-4.85,0-9.01-4.01-10.29-9.27Zm12.03-.02c-.79-3.26-2.99-5.72-5.38-5.71-2.39,0-3.36,2.39-2.56,5.73,.8,3.28,2.97,5.72,5.38,5.71,2.41,0,3.36-2.42,2.56-5.73Z"/>
      <path class="cls-16" d="M1068.79,1122.73c-1.26-5.21,1.02-9.29,5.84-9.3,4.8,0,9.01,4.01,10.29,9.27,1.26,5.21-.99,9.29-5.84,9.3-4.85,0-9.01-4.01-10.29-9.27Zm12.03-.02c-.79-3.26-2.99-5.72-5.38-5.71-2.39,0-3.36,2.39-2.56,5.73,.79,3.28,2.97,5.72,5.38,5.71s3.36-2.42,2.56-5.73Z"/>
      <path class="cls-16" d="M1083.6,1090.64c-1.26-5.21,1.02-9.29,5.84-9.3,4.8,0,9.01,4.01,10.29,9.27,1.26,5.21-.99,9.29-5.84,9.3-4.85,0-9.01-4.01-10.29-9.27Zm12.03-.02c-.79-3.26-2.99-5.72-5.38-5.71-2.39,0-3.36,2.39-2.56,5.73,.79,3.28,2.97,5.72,5.38,5.71,2.41,0,3.36-2.42,2.56-5.73Z"/>
      <path class="cls-16" d="M1107.72,1090.6c-1.26-5.21,1.02-9.29,5.84-9.3,4.8,0,9.01,4.01,10.29,9.27,1.26,5.21-.99,9.29-5.84,9.3-4.85,0-9.01-4.01-10.29-9.27Zm12.03-.02c-.79-3.26-2.99-5.72-5.38-5.71-2.39,0-3.36,2.39-2.56,5.73,.79,3.28,2.97,5.72,5.38,5.71,2.41,0,3.36-2.42,2.56-5.73Z"/>
      <path class="cls-16" d="M1748.73,778.83l-2.98,.77-1.61-3.23,4.84-1.55h2.72s4.38,18.08,4.38,18.08h-3.94s-3.41-14.07-3.41-14.07Z"/>
      <path class="cls-16" d="M1762.88,783.92c-1.26-5.21,1.02-9.29,5.84-9.3,4.8,0,9.01,4.01,10.29,9.27,1.26,5.21-.99,9.29-5.84,9.3-4.85,0-9.01-4.01-10.29-9.27Zm12.03-.02c-.79-3.26-2.99-5.72-5.38-5.71-2.39,0-3.36,2.39-2.56,5.73,.79,3.28,2.97,5.72,5.38,5.71,2.41,0,3.36-2.42,2.56-5.73Z"/>
      <path class="cls-16" d="M1786.99,783.88c-1.26-5.21,1.02-9.29,5.84-9.3,4.8,0,9.01,4.01,10.29,9.27,1.26,5.21-.99,9.29-5.84,9.3-4.85,0-9.01-4.01-10.29-9.27Zm12.03-.02c-.79-3.26-2.99-5.72-5.38-5.71-2.38,0-3.36,2.39-2.56,5.73,.79,3.28,2.97,5.72,5.38,5.71,2.41,0,3.36-2.42,2.56-5.73Z"/>
      <path class="cls-16" d="M1811.11,783.84c-1.26-5.21,1.02-9.29,5.84-9.3,4.8,0,9.01,4.01,10.29,9.27,1.26,5.21-.99,9.29-5.84,9.3-4.85,0-9.01-4.01-10.29-9.27Zm12.03-.02c-.79-3.26-2.99-5.72-5.38-5.71-2.39,0-3.36,2.39-2.56,5.73,.8,3.28,2.97,5.72,5.38,5.71,2.41,0,3.36-2.42,2.56-5.73Z"/>
      <path class="cls-16" d="M1837.07,778.69l-2.98,.77-1.61-3.23,4.84-1.55h2.72s4.38,18.08,4.38,18.08h-3.94s-3.41-14.07-3.41-14.07Z"/>
      <path class="cls-16" d="M1722.76,827.28c-1.26-5.21,1.02-9.29,5.84-9.3,4.8,0,9.01,4.01,10.29,9.27,1.26,5.21-.99,9.29-5.84,9.3-4.85,0-9.01-4.01-10.29-9.27Zm12.03-.02c-.79-3.26-2.99-5.72-5.38-5.71-2.39,0-3.36,2.39-2.56,5.73,.8,3.28,2.97,5.72,5.38,5.71,2.41,0,3.36-2.42,2.56-5.73Z"/>
      <path class="cls-16" d="M1748.73,822.13l-2.98,.78-1.61-3.23,4.84-1.55h2.72s4.38,18.08,4.38,18.08h-3.94s-3.41-14.07-3.41-14.07Z"/>
      <path class="cls-2" d="M1762.88,827.22c-1.26-5.21,1.02-9.29,5.84-9.3,4.8,0,9.01,4.01,10.29,9.27,1.26,5.21-.99,9.29-5.84,9.3-4.85,0-9.01-4.01-10.29-9.27Zm12.03-.02c-.79-3.26-2.99-5.72-5.38-5.71-2.39,0-3.36,2.39-2.56,5.73,.79,3.28,2.97,5.72,5.38,5.71,2.41,0,3.36-2.42,2.56-5.73Z"/>
      <path class="cls-2" d="M1786.99,827.18c-1.26-5.21,1.02-9.29,5.84-9.3,4.8,0,9.01,4.01,10.29,9.27,1.26,5.21-.99,9.29-5.84,9.3-4.85,0-9.01-4.01-10.29-9.27Zm12.03-.02c-.79-3.26-2.99-5.72-5.38-5.71-2.38,0-3.36,2.39-2.56,5.73,.79,3.28,2.97,5.72,5.38,5.71,2.41,0,3.36-2.42,2.56-5.73Z"/>
      <path class="cls-2" d="M1811.11,827.13c-1.26-5.21,1.02-9.29,5.84-9.3,4.8,0,9.01,4.01,10.29,9.27,1.26,5.21-.99,9.29-5.84,9.3-4.85,0-9.01-4.01-10.29-9.27Zm12.03-.02c-.79-3.26-2.99-5.72-5.38-5.71-2.39,0-3.36,2.39-2.56,5.73,.8,3.28,2.97,5.72,5.38,5.71,2.41,0,3.36-2.42,2.56-5.73Z"/>
      <path class="cls-2" d="M1837.07,821.98l-2.98,.77-1.61-3.23,4.84-1.55h2.72s4.38,18.08,4.38,18.08h-3.94s-3.41-14.07-3.41-14.07Z"/>
      <path class="cls-16" d="M1832.17,1072.17l-2.98,.78-1.61-3.23,4.84-1.55h2.72s4.38,18.08,4.38,18.08h-3.94s-3.41-14.07-3.41-14.07Z"/>
      <path class="cls-16" d="M1846.32,1077.25c-1.26-5.21,1.02-9.29,5.84-9.3,4.8,0,9.01,4.01,10.29,9.27,1.26,5.21-.99,9.29-5.84,9.3-4.85,0-9.01-4.01-10.29-9.27Zm12.03-.02c-.79-3.26-2.99-5.72-5.38-5.71-2.38,0-3.36,2.39-2.56,5.73,.79,3.28,2.97,5.72,5.38,5.71s3.36-2.42,2.56-5.73Z"/>
      <path class="cls-16" d="M1870.44,1077.21c-1.26-5.21,1.02-9.29,5.84-9.3,4.8,0,9.01,4.01,10.29,9.27,1.26,5.21-.99,9.29-5.84,9.3-4.85,0-9.01-4.01-10.29-9.27Zm12.03-.02c-.79-3.26-2.99-5.72-5.38-5.71-2.39,0-3.36,2.39-2.56,5.73,.79,3.28,2.97,5.72,5.38,5.71,2.41,0,3.36-2.42,2.56-5.73Z"/>
      <path class="cls-16" d="M1808.48,1101.6l-2.98,.78-1.61-3.23,4.84-1.55h2.72s4.38,18.08,4.38,18.08h-3.94s-3.41-14.07-3.41-14.07Z"/>
      <path class="cls-16" d="M1822.63,1106.68c-1.26-5.21,1.02-9.29,5.84-9.3,4.8,0,9.01,4.01,10.29,9.27,1.26,5.21-.99,9.29-5.84,9.3-4.85,0-9.01-4.01-10.29-9.27Zm12.03-.02c-.79-3.26-2.99-5.72-5.38-5.71-2.38,0-3.36,2.39-2.56,5.73,.79,3.28,2.97,5.72,5.38,5.71,2.41,0,3.36-2.42,2.56-5.73Z"/>
      <path class="cls-16" d="M1846.74,1106.64c-1.26-5.21,1.02-9.29,5.84-9.3,4.8,0,9.01,4.01,10.29,9.27,1.26,5.21-.99,9.29-5.84,9.3-4.85,0-9.01-4.01-10.29-9.27Zm12.03-.02c-.79-3.26-2.99-5.72-5.38-5.71-2.39,0-3.36,2.39-2.56,5.73,.79,3.28,2.97,5.72,5.38,5.71,2.41,0,3.36-2.42,2.56-5.73Z"/>
      <path class="cls-16" d="M1894.55,1077.17c-1.26-5.21,1.02-9.29,5.84-9.3,4.8,0,9.01,4.01,10.29,9.27,1.26,5.21-.99,9.29-5.84,9.3-4.85,0-9.01-4.01-10.29-9.27Zm12.03-.02c-.79-3.26-2.99-5.72-5.38-5.71-2.39,0-3.36,2.39-2.56,5.73,.79,3.28,2.97,5.72,5.38,5.71,2.41,0,3.36-2.42,2.56-5.73Z"/>
      <path class="cls-16" d="M1920.52,1072.02l-2.98,.77-1.61-3.23,4.84-1.55h2.72s4.38,18.08,4.38,18.08h-3.94s-3.41-14.07-3.41-14.07Z"/>
      <g>
        <g>
          <path class="cls-20" d="M2245.7,868.38c8.95-.85,29.55,1.56,43.01,19.92,13.45,18.36,4.14,40.01,37.77,56.69,33.63,16.68,28.8,37.72,22.07,64.11-6.73,26.39-34.93,58.29-68.56,56.74-33.63-1.55-91.14-70.79-89.07-94.01,2.07-23.22,12.06-25.99,4.14-41.34-12.42-24.05,10.61-58.31,50.64-62.11Z"/>
          <path class="cls-18" d="M2258.82,978.51c.17-.24,.25-.38,.24-.39-3.72-1.33-4.04-6.77-.59-29.41l-1.79,.08-30.02,1.44s-.7,9.28-1.97,17.93c-.25,1.72-.53,3.42-.82,5.01-22.6,22.49,26.04,32.67,34.95,5.34Z"/>
          <path class="cls-3" d="M2197.46,1587.66h64.86s1.55-9.89-1.83-17.38c-3.25-7.2-8.3-11.64-8.76-17.15-4.12,4.24-9.19,6.97-18.57,5.71-1.15,1.86-7.42,11.83-11.25,14.59-4.24,3.05-23.14,1.96-24.45,14.24Z"/>
          <path class="cls-13" d="M2273.59,1322.53c-6.04,14.91-10.69,28.47-9.23,40.42,0,.03,.01,.05,.01,.06,.16,1.33,.4,2.62,.72,3.9,21.28,85.11-8.89,195.93-8.89,195.93,0,0-7.97,1.84-13.74,2.36-10.22,.91-11.71-2.13-11.71-2.13,0,0-10.15-90.37-43.01-263.13-4.74-24.95-6.61-38.76-8.32-60.94-.52-6.64-1.01-14.03-1.56-22.69-1.49-23.28,2.04-62.47,19.51-72.76,7.95-4.7,18.77-3.4,33.32,8.05,1.15,.91,2.24,1.99,3.52,2.91,89.37,64.33,57.85,122.53,39.38,168.03Z"/>
          <path class="cls-19" d="M2264.36,1362.94c-1-3.51-33.15-115.82-33.69-124.34-1.17-18.35,41.32,32.32,42.92,83.93-6.04,14.91-10.69,28.47-9.23,40.42Z"/>
          <path class="cls-3" d="M2491.8,1451.16l-27-58.98s-9.64,2.7-15.04,8.9c-5.19,5.95-8.95,4.89-20.78-3.32,4.45,6.88,5.05,10.93,7.81,19.98,2.17,.27,14.54,12.24,27.21,15.53,5.05,1.31,16.1,21.8,27.8,17.88Z"/>
          <path class="cls-13" d="M2208.77,1169.42s58.12,202.05,79.42,215.06c21.29,13.01,126.59,38.87,157.68,45.08,0,0,1.11-8.41-.51-16.9-.36-1.88-3.57-8.67-3.57-8.67,0,0-55.29-55.31-109.32-63.06-11.32-1.62,4.54-178.3-72.21-185.23-70.11-6.33-51.49,13.72-51.49,13.72Z"/>
          <path class="cls-18" d="M2122.61,851.45s1.3-6.48,2.76-11.42c.65-2.19-3.86-16.55-6.99-18.32-3.12-1.77-11.25,7.91-8.95,15.33,1.18,3.82,3.12,16.23,3.12,16.23l10.05-1.83Z"/>
          <path class="cls-18" d="M2390.98,863.46c.4,.82,.95,2.29,1.44,3.67,0-.38,.01-.75,.02-1.11,.03-2.75,10.28-17.69,14.49-18.62,4.22-.94,10.16,13.06,4.9,20.8-2.7,3.97-10.87,18.14-10.87,18.14l-9.05-5.46s-.06-3.81-2.5-6.9c-1.23-1.56-1.28-8.89-1.71-12.08,0,0,1.81-1.45,3.28,1.58Z"/>
          <path class="cls-12" d="M2226.66,950.23s-.7,9.28-1.97,17.93c16.39,1.97,27.23-11.64,31.99-19.36l-30.02,1.44Z"/>
          <path class="cls-20" d="M2262.31,945s11.47-13.3,15.57-25.52c2.92-8.73,3.3-42.62-30.79-42.8,0,0-9.84-.49-19.87,4.31-7.98,3.82-20.01,12.83-12.62,43.56l1.58,10.24,46.13,10.21Z"/>
          <path class="cls-18" d="M2218.67,957.54s41.84,6.93,45.76-19.19c3.92-26.12,11.95-42.83-14.6-48.36-26.55-5.53-33.25,3.66-36.68,12.06-3.43,8.4-5.27,53.01,5.51,55.49Z"/>
          <path class="cls-20" d="M2226.62,886.33s11.12,32.53,28.07,39.69c16.95,7.15,25.3,3.57,25.3,3.57,0,0-11.92-12.75-11.94-31.92,0,0-30.6-24.64-41.43-11.34Z"/>
          <path class="cls-20" d="M2233.3,889.42s-7.71,2.03-14.56,10.31c-4.5,5.43-6.08,12.98-8.1,20.44,0,0-5.55-22.12,5.92-32.46,12.17-10.96,16.73,1.71,16.73,1.71Z"/>
          <path class="cls-15" d="M2402.64,886.45s-9.19,75.05-28.57,92.99c-13.45,12.45-61.05,32.54-72.43,51.05-1.35,2.21-3.01,8.47-4.32,17.77-3.85,27.21-4.8,80.33,12.92,133.69,.82,2.47,1.68,4.94,2.59,7.41,2.41,6.59-.84,13.89-7.45,16.24-8.33,2.96-20.58,6.68-35.05,9.17-2.75,.48-5.6,.91-8.5,1.27-39.93,5.07-66.94-4.3-80.67-11.23-6.48-3.27-10.4-10.08-10-17.33,.82-14.81,8.24-29.46,11.58-65.07,2.53-27.02-15.91-65.12-14.92-79.5,.39-5.68,3.2-30.92,.34-34.83-18.99-26.08-50.93-51.06-55.83-74.87-5.66-27.45-2-82.24-2-82.24,1.56-.54,5.84-2.24,8.86-2.24,5.39-.01,9.18,4.95,9.18,4.95,0,0,14.25,53.36,14.97,56.95,3.79,19.15,40.2,46.88,51.22,52.45,12.07,6.11,21.72,9.38,29.32,10.08,0,0-8.98,15.51,4.31,17.66,15.99,2.59,28.34-15.79,28.34-15.79,0,0,9.71,2.73,27.21,.15,14.51-2.13,66.15-19.59,73.61-32.84,5.44-9.64,34.11-63.08,34.11-63.08,0,0,2.66-1.54,6.94,.68,4.22,2.2,4.25,6.51,4.25,6.51Z"/>
          <path class="cls-1" d="M2230.82,943.35s-1.79,3.61-4.2,3.68c-2.41,.07-8.52-.51-8.94-1.14-.42-.62-1.43-4.4-1.43-4.4,0,0,10.11-.4,14.57,1.86Z"/>
          <path class="cls-16" d="M2310.24,1181.95s-35.92-6.16-38.3-31.72c-2.54-27.24,25.36-102.02,25.36-102.02l.02,.06c-3.85,27.21-4.8,80.33,12.92,133.69Z"/>
        </g>
        <g>
          <path class="cls-2" d="M2222.71,552.92l-3.74-13.73c-4.01-14.72-16.56-25.53-31.72-27.32l-97.61-11.53-7.32,61.94-31.23,264.43,403.8,47.7,31.23-264.43-228.5-26.99c-16.68-1.97-30.49-13.87-34.9-30.07Z"/>
          <g>
            <path class="cls-1" d="M2127.1,706l2.78-23.53,86.79-26.4-2.84,24.04-60.42,16.89,54.83,30.5-2.88,24.38-78.25-45.89Z"/>
            <path class="cls-1" d="M2305.74,638.08l21.99,2.6-94.17,148.95-21.99-2.6,94.17-148.95Z"/>
            <path class="cls-1" d="M2411.86,715.78l-2.78,23.53-86.79,26.4,2.84-24.04,60.42-16.89-54.83-30.5,2.88-24.38,78.25,45.89Z"/>
          </g>
        </g>
        <path class="cls-18" d="M2388.72,871.97s-1.19-10.4-2.22-12.34c-1.04-1.94,1.55-2.5,3.75,1.94,2.2,4.44,6.6,3.1,8.79,7.5,2.2,4.4,.26,5.56-2.46,5.3-2.72-.26-7.86-2.41-7.86-2.41Z"/>
        <path class="cls-18" d="M2123.34,848.07s5.92-6.4,5.89-9.27c-.03-2.87,4.14-9.96,2.97-11.25-1.16-1.29-3.23,.78-4.33,2.72-1.1,1.94-5.63,1.82-6.66,7.12-1.04,5.3,2.13,10.68,2.13,10.68Z"/>
      </g>
      <g>
        <g>
          <g>
            <polygon class="cls-9" points="1185.85 815.2 1339.19 882.36 1339.19 822.6 1259.3 789.75 1339.19 756.89 1339.19 697.69 1185.85 764.86 1185.85 815.2"/>
            <polygon class="cls-9" points="1480.16 656.31 1347.66 933.26 1403.66 933.26 1536.16 656.31 1480.16 656.31"/>
          </g>
          <polygon class="cls-9" points="1546.42 697.69 1546.42 757.45 1626.3 790.31 1546.42 823.16 1546.42 882.36 1699.75 815.2 1699.75 764.86 1546.42 697.69"/>
        </g>
        <rect class="cls-9" x="1347.66" y="917.44" width="56" height="15.81"/>
        <rect class="cls-9" x="1510" y="640.49" width="26.16" height="15.81"/>
      </g>
      <g>
        <g>
          <polygon class="cls-21" points="1185.85 799.39 1339.19 866.55 1339.19 806.79 1259.3 773.93 1339.19 741.08 1339.19 681.88 1185.85 749.04 1185.85 799.39"/>
          <polygon class="cls-21" points="1480.16 640.49 1347.66 917.44 1403.66 917.44 1536.16 640.49 1480.16 640.49"/>
        </g>
        <polygon class="cls-21" points="1546.42 681.88 1546.42 741.64 1626.3 774.49 1546.42 807.35 1546.42 866.55 1699.75 799.39 1699.75 749.04 1546.42 681.88"/>
      </g>
      <polygon class="cls-16" points="2045.79 1240.06 2036.45 1240.06 1960.02 948.43 1861.77 573.53 764.53 573.53 930.74 1240.06 918.87 1240.19 750.66 564.48 1869.49 563.51 1870.47 567.24 1968.69 944.15 2045.79 1240.06"/>
      <polygon class="cls-15" points="2047.48 1246.57 2038.47 1247.78 1960.02 948.43 1968.69 944.15 2047.48 1246.57"/>
      <path class="cls-18" d="M921.32,730.55c-2.05,2.35-2.31,4.97-1.3,7.77,0,.01,0,.03,.02,.04,1.88,5.18,8.07,10.97,15.27,16.75,.92,.74,1.74,1.42,2.45,2.04,.19,.16,.37,.33,.55,.49,.14,.13,.28,.26,.42,.38,6.71,6.19,4.19,7.6,16.24,20.16,13.75,14.3,23.21,14.56,25.9,13.26,2.28-1.11-2.35-8.7-7.48-17.22-.25-.41-.49-.83-.75-1.24-.68-1.13-1.36-2.28-2.04-3.42-6.01-10.26-4.47-15.08-3.04-30.35,1.16-12.41,19.31-69.33,19.31-69.33l-26.34-4.54s-7.93,45.32-16.67,52.3c-4.67,3.72-9.91,3.77-14.4,6.52-.32,.19-.63,.39-.93,.59-2.55,1.69-5.15,3.44-7.21,5.79Z"/>
      <path class="cls-19" d="M921.32,730.55c-2.05,2.35-2.31,4.97-1.3,7.77,0,.01,0,.03,.02,.04,2.3,5.18,8.34,10.93,15.29,16.69,.91,.75,1.71,1.45,2.42,2.1,.19,.16,.37,.33,.55,.49,.14,.13,.28,.26,.42,.38,6.71,6.19,4.19,7.6,16.24,20.16,13.75,14.3,23.21,14.56,25.9,13.26,2.28-1.11-2.35-8.7-7.48-17.22-2.68-.98-15.11-6.03-24.5-18.06-8.28-10.56-13.8-24.13-19.43-32-.32,.19-.63,.39-.93,.59-2.55,1.69-5.15,3.44-7.21,5.79Z"/>
      <path class="cls-18" d="M1133.74,714.1c1.63,8.13,13.22,6.78,26.17,3.61,12.95-3.16,9.87,.6,28.3-1.44,18.43-2.04,24.01-8.91,24.58-11.65,.5-2.43-8.6-3.29-18.37-4.41-1.23-.14-2.46-.29-3.7-.44-11.03-1.38-19.1-8.5-29.12-14.34-9.49-5.54-23.65-28.09-23.65-28.09l-25.28,2s13.26,20.15,18.39,28.9c3.02,5.15,2.86,11.96,2.48,17.22-.2,2.86-.38,5.78,.19,8.65Z"/>
      <path class="cls-19" d="M1159.91,717.71c12.95-3.16,9.87,.6,28.3-1.44,18.43-2.04,24.01-8.91,24.58-11.65,.5-2.43-8.6-3.29-18.37-4.41l-.09,.19s-11.05,7.84-26.39,8.2c-12.5,.3-25.75-3.28-34.38-3.14-.2,2.86-.38,5.78,.19,8.65,1.63,8.13,13.22,6.78,26.17,3.61Z"/>
      <path class="cls-9" d="M1036.88,552.48l-23.63,63.58-30.85,83.02s-8.37,.81-16.39-1.5c-7.38-2.13-15.85-7.71-15.85-7.71,0,0,8.57-89.14,24.54-140.31,4.09-13.13,8.68-23.76,13.75-29.74,24.77-29.27,48.42,32.66,48.42,32.66Z"/>
      <path class="cls-13" d="M1012.85,451.51c-15.48-4.99-59.63,1.42-103.98,10.1l-9.29-15.32-95.8-7.48s-31.61,70.1-14.31,114.77c2.54,6.56,7.6,10.78,16.21,10.91,0,0,1.4,0,1.4,0,0,0,57.02-.03,75.53-.03,47.64,0,100.82-32.75,107.7-34.12,11.26-2.25,15.77,20.27,27.03,43.92,11.26,23.65,105.85,104.73,105.85,104.73,0,0,14.54,.14,20.54-2.11,6.46-2.42,8.82-5.57,8.82-5.57,0,0-104.81-208.53-139.72-219.79Z"/>
      <path class="cls-21" d="M867.85,154.66c-13.42-3.45-31.8-.01-34.84,.29-36.45,3.59-48.7,44.25-43.18,75.79,5.09,29.11-9.68,37.17-26.79,60.16-34.31,46.11-11.89,84.98,15.19,95,16.25,6.01,38.8-9.16,38.8-9.16,.41,.16,70.87-46.16,99.76-72.28,48.1-18.82-14.73-141.01-48.94-149.81Z"/>
      <path class="cls-18" d="M873.23,288.02c.96,3.37-14.99,9.58-27.16,7.3-11.45-2.14-24.28-15.54-21.64-16.8,4.38-2.08,7.33-7.26,4.93-35.26l2.18,.25,36.63,4.18s.11,11.41,.96,22.1c.71,8.98,2.53,12.73,4.09,18.23Z"/>
      <path class="cls-12" d="M868.18,247.68s.11,11.41,.96,22.1c-20.22,1.09-32.39-16.44-37.6-26.28l36.63,4.18Z"/>
      <path class="cls-18" d="M875.75,257.25s-47.66,4.7-50.13-25.03c-2.47-29.73-10.29-49.14,20.04-53.4,30.33-4.26,37.19,6.59,40.43,16.31,3.24,9.72,2,60.12-10.34,62.11Z"/>
      <path class="cls-21" d="M870.64,174.14s-6,36.32-33.15,44.93c-19.8,6.29-28.77,2.14-28.77,2.14,0,0,9.53-12.64,12.92-30.21,1-5.18,4.68-9.44,9.69-11.09,14.07-4.63,31.12-17.29,39.3-5.77Z"/>
      <path class="cls-21" d="M861.66,181.88s8.98,2,16.94,13.59c4.35,6.33,9.39,22.3,8.53,29.37,0,0,8.34-33.61-3.82-46.11-12.9-13.26-21.65,3.15-21.65,3.15Z"/>
      <path class="cls-2" d="M787.41,385.67c.85,3.61,1.58,6.93,2.17,9.99,.97,4.94,1.64,9.21,2.11,12.97,1.46,11.72,1.02,18.67,2,26.27,.55,4.25,1.55,8.71,3.56,14.3,1.97,5.44,53.77,10.3,83.23,8.34,9.36-.61,16.49-1.93,19.02-4.11,10.51-9.13,9.46,10.95,10.9-85.13,.7-46.86-39.77-88.6-39.77-88.6,0,0-3.23,20.02-43.36-3.81-1.43-.83-17.23,22.57-32.44,51.38-16.76,31.83-12.16,38.57-7.43,58.39Z"/>
      <path class="cls-21" d="M1013.25,616.06l-30.85,83.02s-8.37,.81-16.39-1.5c-7.38-2.13-15.85-7.71-15.85-7.71,0,0,8.57-89.14,24.54-140.31l38.54,66.5Z"/>
      <path class="cls-2" d="M870.64,279.69s41.29,7,46.14,24.78c4.85,17.78,38.35,117.21,38.35,117.21,0,0-25.96,8.86-35.65-.84-9.7-9.7-33.74-89.97-33.74-89.97l-15.09-51.18Z"/>
      <path class="cls-18" d="M1038.97,398.83l9.78-3.88s5.88-1.3,9.06-.31c3.18,1,11.13,.9,11.17,2.2,.04,1.3-9.06,5.36-9.06,5.36l-.29-.11c3.46,7.83,20.75,12.3,21.58,15.18,1.01,3.48-7.03,5.28-11.42,6.37-4.38,1.09-15.12,.98-20.41-4.6-3.87-4.08-10.41-9.69-10.41-9.69v-10.51Z"/>
      <path class="cls-1" d="M864.75,239.72s2,4.89,7.27,4.89,6.7-.79,7.7-1.91c1-1.12,1.99-3.27,1.99-3.27,0,0-8.75-1.73-16.97,.29Z"/>
      <path class="cls-2" d="M943.62,387.32l99.96,7.63s2.09,9.69-4.35,20.69c0,0-90.18,17.63-113.72,8.63-23.54-9-20.88-51.47-20.88-51.47l38.99,14.52Z"/>
      <path class="cls-17" d="M791.68,408.63c1.46,11.72,1.02,18.67,2,26.27,37.49,.12,87.62-28.95,87.62-28.95l-89.62,2.68Z"/>
      <path class="cls-17" d="M881.3,381.36s-58.41-1.74-68.25-34.94c-10.82-36.47-22.93,15-22.93,15l6.45,32.85h64.08l20.66-12.91Z"/>
      <g>
        <path class="cls-15" d="M983.12,291.28l-3.16-7.82c-3.38-8.38-11.52-13.87-20.56-13.87h-58.22v194.67h240.85v-157.73h-136.3c-9.95,0-18.9-6.04-22.62-15.26Z"/>
        <g>
          <path class="cls-1" d="M937.52,387.98v-14.03l49.22-21.56v14.34l-34.37,14.14,34.37,14.13v14.54l-49.22-21.56Z"/>
          <path class="cls-1" d="M1037.88,335.6h13.12l-45.05,94.17h-13.12l45.05-94.17Z"/>
          <path class="cls-1" d="M1105.71,373.94v14.03l-49.22,21.56v-14.34l34.37-14.14-34.37-14.14v-14.54l49.22,21.56Z"/>
        </g>
      </g>
      <path class="cls-18" d="M881.29,389.06l4.23-6.63s3.35-1.09,8.04-4.38c5.58-3.92,4.84-9.79,7.63-9.16l.03,12.9-.3,.04c11.97,3.2,25.97-.28,26.25,2.7,.77,8.2-5.57,11.89-10.88,14.46-4.07,1.97-8.69,4.91-16.03,2.63-5.37-1.67-13.82-3.37-13.82-3.37l-5.13-9.17Z"/>
      <path class="cls-2" d="M827.28,275.9s-37.91,2.48-47.39,17.27c-9.48,14.79-21.23,89.86-16.3,115.64,4.93,25.78,126.34-4.93,126.34-4.93l-3.87-22.37s-70.07,.41-74.06-8.72c-5.31-12.13,15.29-96.89,15.29-96.89Z"/>
      <path class="cls-18" d="M1010.29,306.46c-.33,.98,5.7,10.92,14.31,9.19,5.37-1.08,12.35-12.63,6.21-15.18-10.23-4.25-19.65,3.37-20.52,5.99Z"/>
    </g>
  </g>
</svg>