<svg xmlns="http://www.w3.org/2000/svg" version="1.1" xmlns:xlink="http://www.w3.org/1999/xlink" xmlns:svgjs="http://svgjs.com/svgjs" width="1440" height="560" preserveAspectRatio="none" viewBox="0 0 1440 560">
    <g mask="url(&quot;#SvgjsMask1005&quot;)" fill="none">
        <rect width="1440" height="560" x="0" y="0" fill="rgba(242, 92, 5, 1)"></rect>
        <path d="M229.473,357.632C265.477,357.884,296.087,334.731,314.766,303.95C334.285,271.784,344.832,231.545,325.616,199.197C306.696,167.348,266.517,160.654,229.473,160.366C191.753,160.073,149.741,165.116,130.704,197.681C111.551,230.444,126.285,270.478,146.225,302.769C164.939,333.076,193.855,357.382,229.473,357.632" fill="rgba(242, 178, 121, 0.25098039215686274)" class="triangle-float2"></path>
        <path d="M1373.5894160213813 572.88200607067L1373.5894160213813 459.98761701041457 1260.695026961126 459.9876170104146 1260.695026961126 572.88200607067z" fill="rgba(242, 178, 121, 0.25098039215686274)" class="triangle-float3"></path>
        <path d="M1112.3749185253673 381.4249369606323L1230.703093039778 274.88177007347633 1124.159926152622 156.5535955590658 1005.8317516382114 263.09676244622176z" fill="rgba(242, 178, 121, 0.25098039215686274)" class="triangle-float1"></path>
        <path d="M1399.865,612.503C1425.218,613.235,1450.155,601.757,1462.892,579.823C1475.678,557.803,1473.777,530.142,1460.197,508.602C1447.463,488.404,1423.736,479.332,1399.865,479.85C1376.967,480.347,1355.557,491.408,1343.906,511.126C1332.049,531.193,1331.577,555.951,1342.841,576.357C1354.498,597.474,1375.754,611.807,1399.865,612.503" fill="rgba(242, 178, 121, 0.25098039215686274)" class="triangle-float3"></path>
        <path d="M457.5769809728643 139.35238417512312L451.695616499617 195.30982926171492 538.5724663661283 176.15315342829z" fill="rgba(242, 178, 121, 0.25098039215686274)" class="triangle-float2"></path>
        <path d="M720.377,286.031C738.867,286.424,759.527,286.295,769.911,270.991C781.286,254.226,779.669,231.546,769.055,214.289C758.911,197.795,739.741,190.514,720.377,190.454C700.891,190.393,681.025,197.173,671.171,213.984C661.222,230.957,663.266,252.714,674.362,268.96C684.251,283.439,702.847,285.658,720.377,286.031" fill="rgba(242, 178, 121, 0.25098039215686274)" class="triangle-float3"></path>
    </g>
    <defs>
        <mask id="SvgjsMask1005">
            <rect width="1440" height="560" fill="#ffffff"></rect>
        </mask>
        <style>
            @keyframes float1 {
                0%{transform: translate(0, 0)}
                50%{transform: translate(-10px, 0)}
                100%{transform: translate(0, 0)}
            }

            .triangle-float1 {
                animation: float1 5s infinite;
            }

            @keyframes float2 {
                0%{transform: translate(0, 0)}
                50%{transform: translate(-5px, -5px)}
                100%{transform: translate(0, 0)}
            }

            .triangle-float2 {
                animation: float2 4s infinite;
            }

            @keyframes float3 {
                0%{transform: translate(0, 0)}
                50%{transform: translate(0, -10px)}
                100%{transform: translate(0, 0)}
            }

            .triangle-float3 {
                animation: float3 6s infinite;
            }
        </style>
    </defs>
</svg>