<?xml version="1.0" encoding="UTF-8"?>
<svg id="Capa_2" data-name="Capa 2" xmlns="http://www.w3.org/2000/svg" viewBox="0 0 433.51 397.5">
  <defs>
    <style>
      .cls-1 {
        fill: #fff;
      }

      .cls-2 {
        fill: #fafafa;
      }

      .cls-3 {
        opacity: .6;
      }

      .cls-4 {
        fill: #f5f5f5;
      }

      .cls-5 {
        fill: #936457;
      }

      .cls-6 {
        fill: #455a64;
      }

      .cls-7 {
        fill: #e0e0e0;
      }

      .cls-8 {
        fill: #e8505b;
      }

      .cls-9 {
        opacity: .3;
      }

      .cls-10 {
        fill: #c69481;
      }

      .cls-11 {
        fill: #ebebeb;
      }

      .cls-12 {
        fill: #263238;
      }
    </style>
  </defs>
  <g id="Background_Complete" data-name="Background Complete">
    <g>
      <path class="cls-7" d="m156.46,311.1c1.27-.78,2.62-1.37,4.01-1.78l.8-3.99,6.72-.17,1,3.94c1.41.34,2.79.86,4.09,1.58l3.38-2.25,4.87,4.64-2.08,3.49c.78,1.27,1.37,2.62,1.78,4.01l3.99.8.17,6.72-3.94,1c-.34,1.41-.86,2.79-1.58,4.09l2.25,3.38-4.64,4.87-3.49-2.08c-1.27.78-2.62,1.37-4.01,1.78l-.8,3.99-6.72.17-1-3.94c-1.41-.34-2.79-.86-4.09-1.58l-3.38,2.25-4.87-4.64,2.08-3.49c-.78-1.27-1.37-2.62-1.78-4.01l-3.99-.8-.17-6.72,3.94-1c.34-1.41.86-2.79,1.58-4.09l-2.25-3.38,4.64-4.87,3.49,2.08h0Zm3.65,8.93c-2.75,2.89-2.63,7.45.25,10.2,2.89,2.75,7.45,2.63,10.2-.25,2.75-2.89,2.63-7.45-.25-10.2s-7.45-2.63-10.2.25Z"/>
      <path class="cls-7" d="m160.11,320.04s.37-.53,1.33-1.19c.94-.64,2.6-1.35,4.7-1.15,1.04.11,2.17.44,3.21,1.11,1.03.68,2,1.64,2.61,2.9.32.62.55,1.3.67,2.02.13.72.16,1.47.06,2.22-.17,1.51-.87,3-1.97,4.17-1.12,1.16-2.57,1.93-4.07,2.18-.75.14-1.5.15-2.22.05-.72-.09-1.42-.28-2.05-.57-1.29-.55-2.3-1.47-3.02-2.46-.73-1-1.11-2.12-1.27-3.15-.31-2.09.32-3.78.91-4.75.61-.99,1.12-1.39,1.12-1.39.04.03-.43.48-.98,1.47-.54.98-1.1,2.62-.76,4.62.17.99.56,2.05,1.26,2.99.7.94,1.67,1.8,2.9,2.31.6.27,1.26.45,1.95.53.68.09,1.4.07,2.1-.06,1.42-.24,2.78-.97,3.84-2.06,1.04-1.11,1.7-2.51,1.87-3.94.1-.71.08-1.42-.04-2.1-.11-.68-.32-1.33-.62-1.92-.57-1.2-1.48-2.12-2.45-2.78-.98-.66-2.06-.99-3.05-1.11-2.02-.24-3.63.41-4.58.99-.97.6-1.39,1.09-1.42,1.05Z"/>
      <path class="cls-7" d="m156.46,311.1s-.08-.03-.22-.12c-.16-.09-.38-.22-.67-.38-.61-.35-1.49-.87-2.63-1.53h.08c-1.18,1.24-2.73,2.89-4.61,4.89v-.13c.7,1.02,1.46,2.16,2.28,3.37l.04.06-.04.07c-.65,1.2-1.2,2.57-1.55,4.06l-.02.08-.08.02c-1.23.31-2.56.65-3.94,1.01l.11-.15c.06,2.12.12,4.36.18,6.72l-.13-.16c1.23.25,2.59.52,3.99.79l.1.02.03.1c.38,1.3.97,2.67,1.76,3.96l.06.09-.06.09c-.64,1.08-1.35,2.28-2.08,3.49l-.03-.23c1.53,1.45,3.18,3.02,4.88,4.63l-.24-.02c1.05-.7,2.21-1.47,3.38-2.26l.1-.07.1.06c1.19.65,2.58,1.21,4.04,1.55l.12.03.03.12c.31,1.23.65,2.58,1,3.94l-.2-.15c2.13-.05,4.41-.11,6.72-.17l-.2.16c.25-1.26.52-2.62.8-3.99l.02-.12.12-.03c1.32-.38,2.69-.97,3.96-1.75h0s.11-.07.11-.07l.11.06c1.17.7,2.34,1.39,3.49,2.08l-.26.03c1.57-1.65,3.11-3.27,4.64-4.87l-.02.25c-.76-1.14-1.51-2.27-2.25-3.38l-.07-.1.06-.11c.71-1.28,1.23-2.65,1.56-4.04l.03-.12.12-.03c1.33-.34,2.65-.67,3.94-.99l-.15.2c-.05-2.3-.11-4.54-.16-6.72l.15.18c-1.35-.27-2.68-.54-3.98-.8l-.11-.02-.03-.11c-.41-1.42-1.01-2.76-1.75-3.97l-.06-.09.06-.09c.72-1.2,1.41-2.35,2.09-3.49l.03.21c-1.71-1.63-3.33-3.18-4.86-4.65l.2.02c-1.19.79-2.31,1.53-3.39,2.24l-.08.05-.08-.04c-1.36-.75-2.72-1.25-4.05-1.57l-.08-.02-.02-.08c-.36-1.43-.68-2.72-.98-3.94l.12.09c-2.61.05-4.82.1-6.72.14l.09-.07c-.33,1.59-.6,2.89-.83,3.98v.04s-.05.01-.05.01c-1.42.41-2.42.88-3.07,1.2-.31.16-.55.29-.72.38-.16.09-.24.13-.24.12,0,0,.08-.06.22-.15.15-.1.38-.24.71-.41.64-.35,1.64-.84,3.06-1.27l-.05.05c.21-1.09.46-2.4.77-3.99v-.07s.09,0,.09,0c1.9-.05,4.12-.12,6.72-.2h.1s.02.09.02.09c.31,1.22.64,2.51,1.01,3.94l-.1-.1c1.35.32,2.74.82,4.13,1.58h-.15c1.08-.71,2.19-1.46,3.38-2.25l.1-.07.09.09c1.54,1.46,3.16,3,4.88,4.63l.1.09-.07.12c-.67,1.13-1.36,2.3-2.08,3.49v-.19c.76,1.23,1.37,2.6,1.8,4.05l-.14-.13c1.31.26,2.63.53,3.99.79l.15.03v.15c.06,2.19.12,4.43.18,6.72v.16s-.15.04-.15.04c-1.3.33-2.61.66-3.94,1l.15-.15c-.34,1.43-.87,2.82-1.59,4.14v-.21c.73,1.12,1.49,2.24,2.24,3.38l.09.14-.11.12c-1.52,1.6-3.07,3.23-4.64,4.87l-.11.12-.14-.08c-1.15-.69-2.32-1.38-3.49-2.08h.21s0,0,0,0c-1.3.8-2.7,1.4-4.06,1.8l.14-.16c-.27,1.37-.55,2.73-.8,3.99l-.03.16h-.16c-2.31.06-4.6.12-6.72.17h-.16s-.04-.15-.04-.15c-.34-1.36-.68-2.71-.99-3.94l.15.15c-1.5-.36-2.92-.93-4.14-1.6h.2c-1.17.77-2.33,1.54-3.39,2.24l-.13.09-.11-.11c-1.69-1.61-3.34-3.18-4.87-4.64l-.11-.1.08-.13c.73-1.21,1.44-2.41,2.09-3.49v.18c-.81-1.32-1.41-2.73-1.79-4.05l.13.12c-1.39-.28-2.75-.56-3.98-.81l-.13-.03v-.13c-.06-2.36-.11-4.61-.15-6.72v-.12s.11-.03.11-.03c1.38-.35,2.72-.68,3.94-.99l-.1.1c.37-1.52.93-2.9,1.6-4.12v.13c-.8-1.22-1.55-2.36-2.23-3.39l-.05-.07.06-.06c1.9-1.97,3.47-3.6,4.66-4.84l.04-.04.04.03c1.12.68,1.97,1.21,2.57,1.57.28.18.5.31.66.41.15.09.22.15.22.15Z"/>
    </g>
    <g>
      <path class="cls-4" d="m124.76,268.12c1.35-.83,2.78-1.46,4.27-1.89l.85-4.24,7.16-.18,1.06,4.19c1.5.36,2.97.92,4.35,1.68l3.6-2.4,5.19,4.94-2.22,3.71c.83,1.35,1.46,2.78,1.89,4.27l4.24.85.18,7.16-4.19,1.06c-.36,1.5-.92,2.97-1.68,4.35l2.4,3.6-4.93,5.19-3.71-2.22c-1.35.83-2.78,1.46-4.27,1.89l-.85,4.24-7.16.18-1.06-4.2c-1.5-.36-2.97-.92-4.35-1.68l-3.6,2.4-5.19-4.94,2.22-3.71c-.83-1.35-1.46-2.78-1.89-4.27l-4.24-.85-.18-7.16,4.2-1.06c.36-1.5.92-2.97,1.68-4.35l-2.4-3.6,4.94-5.19,3.71,2.22h0Zm3.88,9.51c-2.92,3.07-2.8,7.93.27,10.86,3.07,2.92,7.93,2.8,10.86-.27,2.92-3.07,2.8-7.93-.27-10.86-3.07-2.92-7.93-2.8-10.86.27Z"/>
      <path class="cls-4" d="m128.65,277.63s.4-.57,1.42-1.27c1-.68,2.76-1.44,5-1.22,1.1.12,2.31.47,3.41,1.19,1.09.72,2.13,1.75,2.78,3.08.34.66.58,1.39.71,2.15.14.76.17,1.56.06,2.36-.18,1.61-.93,3.19-2.1,4.44-1.19,1.23-2.74,2.06-4.33,2.32-.79.15-1.6.16-2.36.06-.77-.09-1.51-.3-2.18-.61-1.37-.58-2.44-1.57-3.22-2.62-.77-1.07-1.18-2.26-1.35-3.35-.33-2.23.34-4.02.97-5.06.64-1.06,1.19-1.48,1.19-1.48.04.03-.46.51-1.04,1.57-.57,1.04-1.17,2.79-.81,4.92.18,1.05.59,2.18,1.34,3.19.75,1,1.78,1.92,3.08,2.46.64.29,1.34.48,2.07.56.73.1,1.49.08,2.24-.06,1.51-.25,2.96-1.04,4.09-2.2,1.1-1.18,1.81-2.68,1.99-4.19.11-.76.09-1.51-.05-2.24-.12-.72-.34-1.42-.66-2.04-.61-1.27-1.58-2.26-2.61-2.96-1.04-.7-2.19-1.05-3.25-1.18-2.14-.25-3.87.43-4.88,1.06-1.03.64-1.48,1.16-1.51,1.12Z"/>
      <path class="cls-4" d="m124.76,268.12s-.08-.04-.24-.12c-.17-.1-.41-.23-.71-.4-.65-.38-1.58-.92-2.8-1.63h.09c-1.26,1.32-2.91,3.08-4.91,5.2v-.14c.74,1.09,1.55,2.3,2.42,3.59l.04.06-.04.07c-.69,1.28-1.27,2.73-1.65,4.33l-.02.08-.09.02c-1.31.33-2.72.7-4.19,1.07l.12-.16c.06,2.25.13,4.64.19,7.16l-.14-.17c1.31.26,2.76.55,4.24.84l.11.02.03.11c.4,1.38,1.03,2.84,1.88,4.22l.06.1-.06.1c-.69,1.15-1.44,2.42-2.21,3.72l-.03-.24c1.63,1.55,3.39,3.22,5.19,4.93l-.25-.02c1.12-.75,2.35-1.57,3.6-2.4l.11-.07.11.06c1.27.69,2.75,1.29,4.3,1.65l.13.03.03.13c.33,1.31.7,2.75,1.06,4.19l-.21-.16c2.27-.06,4.69-.12,7.16-.18l-.21.18c.27-1.34.56-2.79.85-4.24l.03-.13.13-.04c1.41-.41,2.86-1.04,4.21-1.86h0s.11-.07.11-.07l.11.07c1.25.74,2.49,1.48,3.71,2.22l-.27.04c1.67-1.75,3.31-3.48,4.94-5.18l-.02.27c-.81-1.21-1.6-2.41-2.39-3.6l-.07-.11.06-.11c.75-1.37,1.3-2.82,1.66-4.3l.03-.13.13-.03c1.42-.36,2.82-.71,4.2-1.06l-.16.21c-.06-2.44-.11-4.83-.17-7.16l.16.19c-1.44-.29-2.85-.58-4.24-.86l-.12-.02-.03-.11c-.44-1.51-1.08-2.94-1.86-4.22l-.06-.1.06-.1c.76-1.27,1.5-2.51,2.22-3.71l.03.23c-1.82-1.74-3.54-3.38-5.18-4.95l.21.02c-1.27.84-2.46,1.63-3.61,2.39l-.08.05-.08-.05c-1.45-.8-2.9-1.33-4.31-1.68l-.09-.02-.02-.08c-.38-1.53-.72-2.9-1.05-4.2l.13.1c-2.77.06-5.13.1-7.16.14l.09-.08c-.35,1.69-.64,3.08-.88,4.24v.04s-.05.01-.05.01c-1.51.43-2.57.94-3.26,1.28-.33.18-.58.31-.77.41-.17.1-.26.14-.26.13,0,0,.08-.06.24-.16.16-.1.41-.25.75-.44.68-.37,1.74-.9,3.26-1.35l-.05.05c.22-1.16.49-2.55.82-4.25v-.08s.09,0,.09,0c2.02-.06,4.38-.13,7.16-.21h.1s.03.1.03.1c.33,1.3.68,2.67,1.07,4.19l-.11-.1c1.44.34,2.92.88,4.4,1.68h-.16c1.14-.76,2.33-1.55,3.59-2.4l.11-.07.1.09c1.64,1.56,3.37,3.19,5.2,4.92l.11.1-.07.13c-.72,1.21-1.45,2.44-2.21,3.72v-.2c.81,1.31,1.46,2.76,1.92,4.31l-.15-.14c1.39.28,2.8.56,4.24.85l.16.03v.16c.06,2.33.13,4.71.19,7.16v.17s-.16.04-.16.04c-1.38.35-2.78.7-4.19,1.06l.15-.16c-.36,1.52-.93,3.01-1.7,4.41v-.22c.78,1.19,1.58,2.39,2.39,3.6l.1.14-.12.13c-1.62,1.7-3.27,3.43-4.93,5.19l-.12.13-.15-.09c-1.23-.73-2.47-1.47-3.71-2.22h.23s0,0,0,0c-1.38.85-2.87,1.49-4.32,1.91l.15-.17c-.29,1.46-.58,2.9-.85,4.24l-.03.17h-.17c-2.46.06-4.89.12-7.16.18h-.17s-.04-.16-.04-.16c-.36-1.45-.73-2.88-1.06-4.2l.16.15c-1.59-.38-3.11-.99-4.41-1.7h.22c-1.25.82-2.48,1.64-3.6,2.38l-.14.09-.12-.11c-1.8-1.72-3.55-3.39-5.18-4.94l-.11-.11.08-.13c.77-1.29,1.53-2.56,2.22-3.71v.2c-.86-1.41-1.5-2.91-1.9-4.32l.14.13c-1.48-.3-2.93-.59-4.24-.86l-.14-.03v-.14c-.06-2.51-.11-4.9-.16-7.16v-.13s.12-.03.12-.03c1.47-.37,2.89-.72,4.2-1.05l-.1.11c.39-1.62.99-3.09,1.7-4.38v.13c-.85-1.3-1.65-2.52-2.38-3.61l-.05-.08.06-.06c2.02-2.1,3.69-3.84,4.97-5.16l.04-.04.05.03c1.19.73,2.1,1.29,2.74,1.68.3.19.53.33.7.44.16.1.24.15.24.16Z"/>
    </g>
    <g>
      <path class="cls-7" d="m191.52,306.4v-.02s-1.64-6.46-1.64-6.46c-2.34-.56-4.6-1.43-6.7-2.58l-5.56,3.7h-.01s-8.01-7.64-8.01-7.64h0s3.41-5.73,3.41-5.73c-1.26-2.05-2.23-4.26-2.91-6.57l-6.55-1.32v-.02s-.27-11.06-.27-11.06h.02s6.46-1.64,6.46-1.64c.56-2.34,1.43-4.6,2.58-6.7l-3.7-5.56h.01s7.63-8.03,7.63-8.03h.01s5.72,3.42,5.72,3.42c2.05-1.25,4.25-2.23,6.57-2.91l1.31-6.55h.02s11.06-.27,11.06-.27v.02s1.64,6.46,1.64,6.46c2.34.56,4.6,1.43,6.7,2.58l5.56-3.7h.01s8.01,7.64,8.01,7.64h0s-3.41,5.73-3.41,5.73c1.26,2.04,2.23,4.25,2.91,6.57l6.55,1.31v.02s.27,11.06.27,11.06h-.02s-6.46,1.64-6.46,1.64c-.56,2.34-1.43,4.6-2.58,6.7l3.7,5.56h-.01s-7.63,8.03-7.63,8.03h-.01s-5.72-3.42-5.72-3.42c-2.04,1.25-4.25,2.23-6.57,2.91l-1.32,6.55h-.02s-11.06.27-11.06.27Zm-8.34-9.11h.01c2.11,1.16,4.37,2.03,6.71,2.59h.01s0,.02,0,.02l1.63,6.46,11.01-.27,1.31-6.54h.01c2.32-.68,4.53-1.66,6.58-2.92h.01s.01,0,.01,0l5.72,3.41,7.59-7.98-3.7-5.55h0c1.16-2.12,2.03-4.38,2.59-6.73h0s.01-.02.01-.02l6.46-1.63-.27-11.01-6.54-1.31h0c-.68-2.33-1.66-4.54-2.92-6.59h0s0-.02,0-.02l3.41-5.72-7.98-7.59-5.55,3.7h-.01c-2.11-1.16-4.37-2.03-6.71-2.59h-.01s0-.02,0-.02l-1.63-6.46-11.01.27-1.31,6.54h-.01c-2.32.68-4.53,1.66-6.58,2.92h-.01s-.01,0-.01,0l-5.72-3.41-7.59,7.98,3.7,5.55h0c-1.16,2.12-2.03,4.38-2.59,6.73h0s-.01.02-.01.02l-6.46,1.63.27,11.01,6.54,1.31h0c.67,2.33,1.66,4.54,2.92,6.59h0s0,.02,0,.02l-3.41,5.72,7.98,7.59,5.55-3.7Zm13.41-12.35c-3.06,0-5.95-1.16-8.18-3.27-2.3-2.19-3.61-5.14-3.68-8.31-.08-3.17,1.08-6.18,3.27-8.48,2.19-2.3,5.14-3.6,8.31-3.68,3.17-.08,6.18,1.08,8.48,3.27,2.3,2.19,3.61,5.14,3.68,8.31.08,3.17-1.08,6.18-3.27,8.48-2.19,2.3-5.14,3.6-8.31,3.68-.1,0-.2,0-.3,0Zm-8.58-20.04h.02c-2.18,2.3-3.34,5.3-3.26,8.46.08,3.16,1.38,6.1,3.67,8.28,2.22,2.11,5.1,3.26,8.15,3.26.1,0,.2,0,.3,0,3.16-.08,6.1-1.38,8.28-3.67,2.18-2.29,3.34-5.29,3.26-8.45-.08-3.16-1.38-6.1-3.67-8.28-2.22-2.11-5.1-3.26-8.15-3.26-.1,0-.2,0-.3,0-3.16.08-6.1,1.38-8.28,3.67h-.02Z"/>
      <path class="cls-11" d="m188.01,264.9s.61-.88,2.19-1.95c1.55-1.05,4.26-2.22,7.72-1.88,1.7.18,3.56.72,5.27,1.83,1.68,1.11,3.28,2.69,4.28,4.76.53,1.01.9,2.14,1.1,3.32.22,1.18.26,2.41.09,3.65-.28,2.48-1.44,4.93-3.24,6.86-1.84,1.9-4.23,3.17-6.69,3.58-1.22.23-2.46.25-3.65.09-1.19-.15-2.33-.46-3.37-.94-2.11-.9-3.77-2.42-4.96-4.04-1.19-1.65-1.82-3.48-2.09-5.17-.51-3.43.53-6.2,1.5-7.8.99-1.63,1.84-2.29,1.84-2.29.06.05-.71.78-1.61,2.42-.88,1.61-1.81,4.31-1.26,7.6.28,1.62.91,3.36,2.07,4.92,1.16,1.54,2.75,2.96,4.76,3.8.99.45,2.07.73,3.2.87,1.12.15,2.3.12,3.45-.1,2.33-.39,4.57-1.6,6.31-3.39,1.7-1.83,2.8-4.13,3.07-6.47.16-1.17.13-2.34-.07-3.45-.19-1.12-.53-2.19-1.02-3.15-.93-1.96-2.44-3.49-4.03-4.56-1.61-1.08-3.38-1.62-5.01-1.82-3.31-.39-5.96.67-7.52,1.63-1.59.98-2.28,1.79-2.33,1.73Z"/>
      <path class="cls-11" d="m182.02,250.23s-.12-.05-.37-.19c-.27-.15-.63-.36-1.1-.62-1-.58-2.45-1.42-4.32-2.51l.13-.02c-1.94,2.06-4.49,4.77-7.57,8.05l.02-.21c1.13,1.68,2.38,3.54,3.72,5.54l.07.1-.06.11c-1.07,1.97-1.97,4.22-2.55,6.68l-.03.13-.13.03c-2.02.52-4.2,1.07-6.47,1.65l.18-.24c.09,3.48.19,7.17.3,11.04l-.21-.26c2.03.4,4.26.85,6.55,1.3l.17.03.05.16c.62,2.13,1.59,4.39,2.9,6.51l.09.15-.09.15c-1.06,1.78-2.22,3.74-3.41,5.74l-.05-.37c2.52,2.39,5.23,4.97,8.01,7.61l-.39-.03c1.73-1.15,3.63-2.42,5.55-3.7l.16-.11.17.09c1.96,1.07,4.24,1.98,6.64,2.55l.19.05.05.19c.51,2.03,1.07,4.24,1.64,6.47l-.33-.25c3.5-.09,7.24-.18,11.04-.28l-.32.27c.41-2.07.86-4.3,1.31-6.55l.04-.2.2-.06c2.17-.63,4.42-1.6,6.5-2.88h0s.18-.11.18-.11l.17.1c1.92,1.15,3.84,2.29,5.73,3.42l-.42.06c2.57-2.7,5.11-5.37,7.62-8l-.04.42c-1.24-1.87-2.48-3.72-3.7-5.56l-.11-.17.1-.18c1.16-2.11,2.01-4.35,2.56-6.64l.05-.19.19-.05c2.19-.55,4.35-1.09,6.47-1.63l-.24.32c-.09-3.77-.18-7.45-.26-11.04l.25.3c-2.22-.45-4.4-.89-6.54-1.32l-.18-.04-.05-.18c-.68-2.34-1.66-4.53-2.88-6.52l-.09-.15.09-.15c1.18-1.96,2.32-3.87,3.43-5.72l.05.35c-2.81-2.68-5.46-5.22-7.99-7.63l.32.03c-1.96,1.3-3.79,2.51-5.56,3.68l-.12.08-.13-.07c-2.23-1.23-4.47-2.05-6.66-2.59l-.13-.03-.03-.13c-.59-2.35-1.12-4.48-1.61-6.48l.2.15c-4.28.09-7.92.16-11.04.22l.15-.12c-.54,2.61-.99,4.75-1.36,6.54v.07s-.08.02-.08.02c-2.33.67-3.97,1.44-5.04,1.98-.51.27-.9.48-1.18.63-.27.15-.39.21-.39.2,0,0,.13-.1.37-.25.25-.16.63-.39,1.16-.68,1.05-.57,2.69-1.38,5.03-2.09l-.08.08c.35-1.79.76-3.94,1.27-6.56l.02-.12h.12c3.12-.09,6.76-.2,11.04-.32h.16s.04.15.04.15c.51,2,1.05,4.12,1.66,6.47l-.16-.16c2.22.53,4.51,1.35,6.79,2.59h-.25c1.77-1.17,3.6-2.4,5.55-3.7l.17-.12.15.14c2.53,2.4,5.2,4.93,8.02,7.6l.16.16-.12.19c-1.11,1.86-2.24,3.77-3.41,5.74v-.3c1.25,2.03,2.26,4.27,2.96,6.65l-.23-.21c2.14.43,4.33.86,6.55,1.31l.24.05v.25c.1,3.59.19,7.27.29,11.04v.26s-.24.06-.24.06c-2.13.54-4.28,1.09-6.47,1.64l.24-.24c-.56,2.34-1.43,4.64-2.62,6.8v-.34c1.21,1.83,2.44,3.68,3.69,5.55l.15.22-.19.19c-2.5,2.63-5.04,5.3-7.61,8l-.19.2-.23-.14c-1.89-1.13-3.81-2.27-5.73-3.42h.35s0,0,0,0c-2.13,1.31-4.44,2.3-6.66,2.95l.24-.26c-.45,2.25-.9,4.48-1.31,6.55l-.05.26h-.27c-3.8.1-7.55.19-11.04.27h-.27s-.06-.25-.06-.25c-.56-2.23-1.12-4.45-1.63-6.47l.24.24c-2.46-.59-4.8-1.52-6.8-2.63h.33c-1.93,1.27-3.83,2.53-5.56,3.68l-.21.14-.18-.17c-2.77-2.65-5.48-5.23-7.99-7.63l-.18-.17.12-.21c1.19-1.99,2.37-3.95,3.43-5.73v.3c-1.33-2.17-2.31-4.49-2.94-6.66l.21.2c-2.29-.46-4.52-.92-6.54-1.33l-.21-.04v-.21c-.09-3.88-.17-7.57-.25-11.04v-.19s.18-.05.18-.05c2.27-.57,4.46-1.11,6.48-1.62l-.16.16c.6-2.5,1.53-4.77,2.63-6.76v.21c-1.32-2.01-2.55-3.88-3.67-5.57l-.08-.12.1-.1c3.12-3.24,5.7-5.92,7.66-7.96l.06-.06.07.04c1.83,1.12,3.24,1.99,4.22,2.59.46.29.82.51,1.09.68.24.16.37.24.37.25Z"/>
    </g>
    <g>
      <path class="cls-7" d="m415.74,195.84c-1.14.7-2.36,1.24-3.62,1.61l-.72,3.6-6.08.15-.9-3.56c-1.28-.3-2.52-.78-3.7-1.42l-3.06,2.04-4.4-4.19,1.88-3.15c-.7-1.14-1.24-2.37-1.61-3.62l-3.6-.72-.15-6.08,3.56-.9c.3-1.28.78-2.52,1.42-3.7l-2.04-3.06,4.19-4.4,3.15,1.88c1.14-.7,2.36-1.24,3.62-1.61l.72-3.6,6.08-.15.9,3.56c1.28.3,2.52.78,3.7,1.42l3.06-2.04,4.4,4.19-1.88,3.15c.7,1.14,1.24,2.36,1.61,3.62l3.6.72.15,6.08-3.56.9c-.3,1.28-.78,2.52-1.42,3.7l2.04,3.06-4.19,4.4-3.16-1.88h0Zm-3.3-8.08c2.48-2.61,2.38-6.74-.23-9.22-2.61-2.48-6.74-2.38-9.22.23-2.48,2.61-2.38,6.74.23,9.22s6.74,2.38,9.22-.23Z"/>
      <path class="cls-7" d="m412.44,187.77s-.34.48-1.21,1.07c-.85.58-2.35,1.22-4.25,1.04-.94-.1-1.96-.4-2.9-1.01-.93-.61-1.81-1.48-2.36-2.62-.29-.56-.49-1.18-.61-1.83-.12-.65-.14-1.33-.05-2.01.16-1.36.79-2.71,1.78-3.77,1.01-1.05,2.33-1.75,3.68-1.97.67-.13,1.36-.14,2.01-.05.65.08,1.28.25,1.85.52,1.16.5,2.08,1.33,2.73,2.23.66.91,1,1.92,1.15,2.85.28,1.89-.29,3.41-.83,4.29-.55.9-1.01,1.26-1.01,1.26-.04-.03.39-.43.89-1.33.48-.88.99-2.37.69-4.18-.16-.89-.5-1.85-1.14-2.71-.64-.85-1.51-1.63-2.62-2.09-.54-.25-1.14-.4-1.76-.48-.62-.08-1.26-.07-1.9.05-1.28.22-2.52.88-3.47,1.87-.94,1-1.54,2.27-1.69,3.56-.09.64-.07,1.29.04,1.9.1.61.29,1.2.56,1.73.51,1.08,1.34,1.92,2.22,2.51.89.59,1.86.89,2.76,1,1.82.21,3.28-.37,4.14-.9.87-.54,1.25-.99,1.28-.95Z"/>
      <path class="cls-7" d="m415.74,195.84s.07.03.2.11c.15.08.35.2.6.34.55.32,1.35.78,2.38,1.38h-.07c1.07-1.12,2.47-2.61,4.17-4.42v.12c-.63-.92-1.32-1.95-2.06-3.05l-.04-.05.03-.06c.59-1.09,1.08-2.32,1.4-3.67l.02-.07.07-.02c1.11-.28,2.31-.59,3.56-.91l-.1.13c-.05-1.91-.11-3.95-.16-6.08l.12.14c-1.12-.22-2.34-.47-3.6-.72l-.09-.02-.03-.09c-.34-1.17-.87-2.42-1.59-3.58l-.05-.08.05-.08c.58-.98,1.22-2.06,1.88-3.16l.03.21c-1.38-1.32-2.88-2.73-4.41-4.19l.22.02c-.95.64-2,1.33-3.06,2.04l-.09.06-.09-.05c-1.08-.59-2.33-1.09-3.66-1.4l-.11-.03-.03-.11c-.28-1.12-.59-2.33-.9-3.56l.18.14c-1.92.05-3.99.1-6.08.15l.18-.15c-.23,1.14-.47,2.37-.72,3.6l-.02.11-.11.03c-1.19.35-2.43.88-3.58,1.58h0s-.1.06-.1.06l-.1-.06c-1.06-.63-2.11-1.26-3.15-1.88l.23-.03c-1.42,1.49-2.82,2.96-4.19,4.4l.02-.23c.68,1.03,1.36,2.05,2.03,3.06l.06.09-.05.1c-.64,1.16-1.11,2.4-1.41,3.65l-.03.11-.11.03c-1.21.3-2.39.6-3.56.9l.13-.18c.05,2.08.1,4.1.14,6.08l-.14-.16c1.22.25,2.42.49,3.6.73l.1.02.03.1c.37,1.29.91,2.49,1.58,3.59l.05.08-.05.08c-.65,1.08-1.27,2.13-1.89,3.15l-.03-.19c1.55,1.48,3.01,2.87,4.4,4.2l-.18-.02c1.08-.71,2.09-1.38,3.06-2.03l.07-.05.07.04c1.23.68,2.46,1.13,3.66,1.42l.07.02.02.07c.32,1.3.61,2.46.89,3.57l-.11-.08c2.36-.05,4.36-.09,6.08-.12l-.08.07c.3-1.44.54-2.62.75-3.6v-.04s.04,0,.04,0c1.28-.37,2.19-.79,2.77-1.09.28-.15.49-.26.65-.35.15-.08.22-.12.22-.11,0,0-.07.05-.2.14-.14.09-.35.22-.64.37-.58.31-1.48.76-2.77,1.15l.04-.05c-.19.98-.42,2.17-.7,3.61v.07s-.08,0-.08,0c-1.72.05-3.72.11-6.08.18h-.09s-.02-.08-.02-.08c-.28-1.1-.58-2.27-.91-3.56l.09.09c-1.22-.29-2.48-.74-3.74-1.43h.14c-.97.64-1.98,1.32-3.05,2.04l-.09.06-.08-.08c-1.39-1.32-2.86-2.71-4.41-4.18l-.09-.09.06-.11c.61-1.03,1.23-2.07,1.88-3.16v.17c-.69-1.12-1.24-2.35-1.63-3.66l.13.12c-1.18-.24-2.38-.47-3.6-.72l-.13-.03v-.14c-.05-1.98-.11-4-.16-6.08v-.14s.13-.03.13-.03c1.17-.3,2.36-.6,3.56-.9l-.13.13c.31-1.29.79-2.55,1.44-3.75v.19c-.66-1.01-1.34-2.03-2.03-3.06l-.08-.12.1-.11c1.38-1.45,2.77-2.92,4.19-4.41l.1-.11.13.08c1.04.62,2.1,1.25,3.15,1.88h-.19s0,0,0,0c1.17-.72,2.44-1.27,3.67-1.62l-.13.14c.25-1.24.5-2.47.72-3.6l.03-.15h.15c2.09-.05,4.15-.1,6.08-.15h.15s.04.14.04.14c.31,1.23.62,2.45.9,3.56l-.13-.13c1.35.32,2.64.84,3.74,1.45h-.18c1.06-.7,2.11-1.39,3.06-2.03l.12-.08.1.1c1.53,1.46,3.02,2.88,4.4,4.2l.1.09-.07.11c-.66,1.1-1.3,2.17-1.89,3.15v-.17c.73,1.2,1.27,2.47,1.62,3.67l-.12-.11c1.26.26,2.49.5,3.6.73l.12.02v.12c.05,2.13.1,4.16.14,6.08v.11s-.1.03-.1.03c-1.25.31-2.45.61-3.57.89l.09-.09c-.33,1.37-.84,2.63-1.45,3.72v-.11c.72,1.1,1.41,2.14,2.02,3.07l.04.06-.05.05c-1.72,1.78-3.14,3.26-4.22,4.38l-.03.03-.04-.02c-1.01-.62-1.79-1.09-2.32-1.42-.25-.16-.45-.28-.6-.37-.13-.09-.2-.13-.2-.14Z"/>
    </g>
    <g>
      <path class="cls-7" d="m364.26,180.48h0s1.45,5.74,1.45,5.74c2.07.5,4.07,1.27,5.94,2.29l4.93-3.28h.01s7.1,6.77,7.1,6.77h0s-3.02,5.08-3.02,5.08c1.11,1.81,1.98,3.77,2.58,5.82l5.8,1.17h0s.24,9.81.24,9.81h-.01s-5.72,1.45-5.72,1.45c-.5,2.07-1.27,4.07-2.29,5.94l3.28,4.93h-.01s-6.76,7.11-6.76,7.11h-.01s-5.07-3.03-5.07-3.03c-1.81,1.11-3.77,1.98-5.82,2.58l-1.16,5.8h-.01s-9.8.24-9.8.24h0s-1.45-5.74-1.45-5.74c-2.08-.5-4.07-1.27-5.94-2.29l-4.93,3.28h-.01s-7.1-6.77-7.1-6.77h0s3.02-5.08,3.02-5.08c-1.11-1.81-1.98-3.77-2.58-5.82l-5.8-1.16h0s-.24-9.81-.24-9.81h.01s5.72-1.45,5.72-1.45c.5-2.07,1.27-4.07,2.29-5.94l-3.28-4.93h.01s6.76-7.11,6.76-7.11h.01s5.07,3.03,5.07,3.03c1.81-1.11,3.77-1.98,5.82-2.58l1.17-5.8h.01s9.8-.24,9.8-.24Zm7.39,8.07h-.01c-1.87-1.03-3.87-1.8-5.95-2.3h-.01s0-.01,0-.01l-1.45-5.72-9.75.24-1.16,5.8h-.01c-2.05.6-4.01,1.47-5.83,2.59h0s0,0,0,0l-5.06-3.02-6.73,7.07,3.27,4.92h0c-1.02,1.88-1.79,3.88-2.29,5.96h0s-.01.01-.01.01l-5.72,1.45.24,9.75,5.8,1.16h0c.6,2.06,1.47,4.03,2.58,5.84h0s0,.02,0,.02l-3.02,5.07,7.07,6.73,4.92-3.28h.01c1.87,1.03,3.87,1.8,5.95,2.3h.01s0,.01,0,.01l1.45,5.72,9.75-.24,1.16-5.8h.01c2.05-.6,4.01-1.47,5.83-2.59h0s0,0,0,0l5.07,3.02,6.73-7.07-3.27-4.92h0c1.02-1.88,1.8-3.88,2.29-5.96h0s.01-.01.01-.01l5.72-1.45-.24-9.75-5.8-1.16h0c-.6-2.06-1.47-4.02-2.58-5.84h0s0-.02,0-.02l3.02-5.07-7.07-6.73-4.92,3.27Zm-11.88,10.94c2.71,0,5.27,1.02,7.24,2.9,2.04,1.94,3.19,4.55,3.26,7.36.07,2.81-.96,5.48-2.9,7.51-1.94,2.03-4.55,3.19-7.36,3.26-2.81.07-5.48-.96-7.51-2.89-2.04-1.94-3.19-4.55-3.26-7.36-.07-2.81.96-5.48,2.9-7.51,1.94-2.03,4.55-3.19,7.36-3.26.09,0,.18,0,.27,0Zm7.6,17.76h-.01c1.93-2.04,2.95-4.7,2.89-7.5-.07-2.8-1.22-5.4-3.25-7.33-1.96-1.87-4.52-2.89-7.22-2.89-.09,0-.18,0-.27,0-2.8.07-5.4,1.22-7.33,3.25-1.93,2.03-2.95,4.69-2.89,7.48.07,2.8,1.22,5.4,3.25,7.33,1.96,1.87,4.52,2.89,7.22,2.89.09,0,.18,0,.27,0,2.8-.07,5.4-1.22,7.33-3.25h.01Z"/>
      <path class="cls-11" d="m367.37,217.25s-.54.78-1.94,1.73c-1.37.93-3.78,1.97-6.84,1.67-1.51-.16-3.16-.64-4.67-1.62-1.49-.98-2.91-2.39-3.79-4.21-.47-.9-.79-1.9-.98-2.94-.2-1.04-.23-2.14-.08-3.23.25-2.2,1.27-4.36,2.87-6.07,1.63-1.68,3.74-2.81,5.93-3.17,1.08-.2,2.18-.22,3.23-.08,1.05.13,2.07.41,2.99.83,1.87.8,3.34,2.14,4.4,3.58,1.06,1.46,1.62,3.08,1.85,4.58.45,3.04-.47,5.49-1.33,6.91-.88,1.44-1.63,2.03-1.63,2.03-.06-.05.63-.69,1.43-2.14.78-1.42,1.6-3.82,1.11-6.73-.25-1.43-.81-2.98-1.83-4.36-1.02-1.36-2.44-2.63-4.21-3.37-.87-.4-1.84-.65-2.83-.77-.99-.13-2.03-.11-3.06.09-2.06.35-4.05,1.42-5.59,3-1.51,1.62-2.48,3.66-2.72,5.73-.15,1.03-.12,2.07.06,3.06.17.99.47,1.94.91,2.79.83,1.74,2.16,3.09,3.57,4.04,1.43.96,3,1.44,4.44,1.62,2.93.34,5.28-.59,6.67-1.44,1.41-.87,2.02-1.59,2.07-1.53Z"/>
      <path class="cls-11" d="m372.68,230.24s.11.05.33.17c.24.14.56.32.97.55.89.52,2.17,1.26,3.83,2.22l-.12.02c1.72-1.83,3.97-4.23,6.71-7.13l-.02.19c-1-1.49-2.11-3.14-3.3-4.91l-.06-.09.05-.09c.95-1.75,1.74-3.73,2.26-5.91l.03-.12.12-.03c1.79-.46,3.72-.95,5.73-1.47l-.16.21c-.08-3.08-.17-6.35-.26-9.78l.19.23c-1.8-.36-3.77-.75-5.8-1.15l-.15-.03-.04-.14c-.55-1.88-1.41-3.89-2.57-5.77l-.08-.13.08-.14c.94-1.58,1.97-3.31,3.02-5.08l.05.33c-2.23-2.12-4.63-4.4-7.1-6.74l.35.03c-1.53,1.02-3.21,2.14-4.92,3.28l-.14.1-.15-.08c-1.73-.95-3.75-1.76-5.88-2.26l-.17-.04-.04-.17c-.46-1.8-.95-3.76-1.45-5.73l.29.22c-3.1.08-6.42.16-9.78.25l.29-.24c-.37,1.83-.76,3.81-1.16,5.8l-.04.18-.17.05c-1.92.56-3.91,1.42-5.75,2.55h0s-.16.1-.16.1l-.15-.09c-1.7-1.02-3.4-2.03-5.08-3.03l.37-.05c-2.28,2.39-4.53,4.76-6.75,7.09l.03-.37c1.1,1.66,2.19,3.3,3.27,4.92l.1.15-.09.16c-1.03,1.87-1.78,3.85-2.27,5.88l-.04.17-.17.04c-1.94.49-3.85.97-5.74,1.44l.22-.28c.08,3.34.16,6.6.23,9.78l-.22-.26c1.97.4,3.9.79,5.8,1.17l.16.03.05.16c.6,2.07,1.47,4.01,2.55,5.77l.08.14-.08.13c-1.04,1.74-2.05,3.43-3.04,5.07l-.04-.31c2.49,2.38,4.84,4.62,7.07,6.76l-.29-.02c1.73-1.15,3.36-2.23,4.93-3.26l.11-.07.11.06c1.98,1.09,3.96,1.82,5.9,2.29l.12.03.03.12c.52,2.09.99,3.96,1.43,5.74l-.18-.13c3.79-.08,7.02-.14,9.78-.2l-.13.11c.48-2.31.87-4.21,1.2-5.79v-.06s.07-.02.07-.02c2.07-.59,3.52-1.28,4.46-1.75.45-.24.8-.42,1.05-.56.24-.13.35-.19.35-.18,0,0-.11.09-.32.22-.22.14-.56.35-1.03.6-.93.5-2.38,1.22-4.45,1.85l.07-.07c-.31,1.58-.68,3.49-1.13,5.81l-.02.11h-.11c-2.76.08-5.99.18-9.78.29h-.14s-.04-.13-.04-.13c-.45-1.77-.93-3.65-1.47-5.73l.15.14c-1.97-.47-3.99-1.2-6.01-2.3h.22c-1.56,1.04-3.19,2.12-4.91,3.28l-.15.1-.13-.13c-2.25-2.13-4.6-4.36-7.1-6.73l-.14-.14.1-.17c.98-1.65,1.98-3.34,3.02-5.08v.27c-1.1-1.8-2-3.78-2.62-5.89l.21.19c-1.9-.38-3.83-.76-5.8-1.16l-.22-.04v-.22c-.09-3.18-.17-6.44-.26-9.78v-.23s.22-.06.22-.06c1.89-.48,3.8-.96,5.73-1.45l-.21.21c.49-2.07,1.27-4.11,2.32-6.03v.31c-1.07-1.62-2.16-3.26-3.27-4.92l-.13-.2.16-.17c2.22-2.33,4.47-4.69,6.74-7.09l.17-.17.21.12c1.68,1,3.37,2.01,5.08,3.03h-.31s0,0,0,0c1.89-1.16,3.93-2.04,5.9-2.61l-.21.23c.4-1.99.8-3.97,1.16-5.8l.05-.23h.24c3.37-.09,6.69-.17,9.78-.24h.24s.06.22.06.22c.5,1.98.99,3.94,1.45,5.74l-.21-.21c2.18.52,4.25,1.35,6.02,2.33h-.3c1.71-1.12,3.39-2.24,4.93-3.26l.19-.12.16.15c2.46,2.35,4.86,4.63,7.08,6.76l.16.15-.11.18c-1.06,1.77-2.1,3.5-3.04,5.07v-.27c1.18,1.92,2.04,3.97,2.6,5.9l-.19-.17c2.03.41,4,.81,5.8,1.18l.19.04v.19c.08,3.43.15,6.7.22,9.78v.17s-.16.04-.16.04c-2.01.5-3.95.99-5.74,1.43l.14-.15c-.54,2.21-1.35,4.23-2.33,5.99v-.18c1.17,1.78,2.26,3.44,3.25,4.94l.07.1-.08.09c-2.76,2.87-5.05,5.24-6.79,7.05l-.05.06-.06-.04c-1.62-.99-2.87-1.76-3.74-2.29-.41-.26-.73-.45-.96-.6-.22-.14-.33-.21-.33-.22Z"/>
    </g>
    <g>
      <polygon class="cls-11" points="314.84 361.37 320.31 397.3 352.07 397.3 359.44 361.89 314.84 361.37"/>
      <g>
        <path class="cls-2" d="m355,384.4c0,.1-8.14.19-18.18.19s-18.18-.08-18.18-.19,8.14-.19,18.18-.19,18.18.08,18.18.19Z"/>
        <path class="cls-2" d="m355.12,382.63c0,.1-8.19.19-18.3.19s-18.3-.08-18.3-.19,8.19-.19,18.3-.19,18.3.08,18.3.19Z"/>
        <path class="cls-2" d="m355.06,380.63c0,.1-8.19.19-18.3.19s-18.3-.08-18.3-.19,8.19-.19,18.3-.19,18.3.08,18.3.19Z"/>
        <path class="cls-2" d="m323.96,395.25c-.1.02-.54-2.01-.97-4.52-.44-2.52-.71-4.57-.61-4.59.1-.02.54,2.01.97,4.52.44,2.52.71,4.57.61,4.59Z"/>
        <path class="cls-2" d="m326.12,394.87c-.11,0-.23-1.98-.39-4.41-.16-2.44-.31-4.41-.21-4.43.1-.01.41,1.95.58,4.4.17,2.45.12,4.44.02,4.44Z"/>
        <path class="cls-2" d="m330.06,394.86c-.1.02-.53-2-.83-4.53-.3-2.53-.34-4.59-.24-4.59.11,0,.32,2.04.61,4.55.29,2.51.56,4.55.46,4.57Z"/>
        <path class="cls-2" d="m332.82,395.05c-.1,0-.36-2.05-.44-4.6-.08-2.55.04-4.62.14-4.62.11,0,.15,2.06.23,4.61.08,2.54.17,4.6.07,4.61Z"/>
        <path class="cls-2" d="m337.71,394.87c-.1,0-.25-1.95-.33-4.36-.08-2.41-.06-4.37.04-4.38.1,0,.25,1.95.33,4.36.08,2.41.06,4.37-.04,4.38Z"/>
        <path class="cls-2" d="m341.29,395.05c-.1,0-.17-2.02-.15-4.51.02-2.49.12-4.51.22-4.51.1,0,.17,2.02.15,4.51-.02,2.49-.12,4.51-.22,4.51Z"/>
        <path class="cls-2" d="m344.64,394.57c-.1,0,.02-2.12.27-4.72.25-2.6.54-4.69.64-4.68.1.01-.02,2.12-.27,4.72-.25,2.6-.54,4.69-.64,4.68Z"/>
        <path class="cls-2" d="m348.96,394.1c-.1-.01.06-1.82.53-4.01.47-2.19,1.09-3.9,1.18-3.87.1.03-.35,1.78-.82,3.95-.47,2.17-.79,3.95-.9,3.93Z"/>
      </g>
      <g>
        <path class="cls-11" d="m345.9,290.48s0,.06-.04.18c-.04.14-.09.3-.15.51-.15.47-.35,1.12-.6,1.94-.27.84-.6,1.87-.93,3.07-.34,1.2-.77,2.57-1.15,4.1-.4,1.52-.84,3.19-1.24,5-.44,1.8-.81,3.74-1.22,5.79-.76,4.1-1.46,8.62-1.95,13.41-.46,4.79-.68,9.36-.74,13.53,0,2.08-.02,4.06.06,5.91.03,1.85.13,3.58.22,5.15.07,1.57.22,2.99.31,4.24.09,1.25.21,2.32.31,3.2.09.85.16,1.53.21,2.02.02.21.03.39.04.53,0,.12,0,.18,0,.18,0,0-.02-.06-.04-.18-.02-.14-.05-.31-.08-.52-.07-.49-.16-1.16-.28-2.01-.12-.87-.26-1.95-.37-3.19-.12-1.25-.28-2.67-.37-4.24-.11-1.57-.22-3.3-.27-5.16-.09-1.86-.08-3.84-.09-5.93.04-4.18.25-8.77.71-13.56.49-4.79,1.2-9.33,1.98-13.43.42-2.04.81-3.99,1.26-5.79.41-1.81.86-3.48,1.28-5,.4-1.53.84-2.89,1.2-4.09.36-1.2.7-2.23.99-3.06.28-.81.51-1.45.67-1.92.07-.2.13-.36.18-.5.04-.11.07-.17.07-.16Z"/>
        <path class="cls-11" d="m340.17,312.73c.86-2.57,2.64-4.81,4.94-6.24.79-.49,1.78-.88,2.61-.48,1.11.54,1.2,2.09.87,3.28-.56,1.99-1.86,3.77-3.59,4.9s-3.35,1.66-5.39,1.36"/>
        <path class="cls-11" d="m338.24,327.75c.82-3.1,3.29-7.51,5.86-9.43.41-.3.84-.59,1.33-.71.49-.12,1.06-.04,1.43.31.52.5.47,1.35.32,2.06-.98,4.52-4.75,8.32-9.27,9.33"/>
        <path class="cls-11" d="m337.71,340.97c1.26-2.95,3.33-5.54,5.91-7.44.61-.44,1.32-.87,2.06-.74,1.12.2,1.63,1.57,1.53,2.71-.2,2.34-1.99,4.21-3.83,5.67-1.99,1.57-5.47,2.81-5.47,2.81"/>
        <path class="cls-11" d="m338.01,350.47c1.3-2.21,2.91-4.29,5.03-5.73.46-.31.96-.6,1.51-.68.55-.08,1.17.1,1.48.56.5.74.02,1.74-.52,2.46-1.87,2.47-4.22,4.34-7.18,5.27"/>
        <path class="cls-11" d="m337.76,346.61c-2.17-2.66-4.58-5.11-7.2-7.33-.41-.35-.92-.71-1.43-.54-.39.13-.63.55-.66.97-.03.41.12.82.27,1.2,1.57,3.8,5.28,6.78,9.27,7.79"/>
        <path class="cls-11" d="m337.99,334.24c-1.88-2.3-3.77-4.59-5.65-6.89-.54-.66-1.09-1.33-1.83-1.74-.74-.41-1.72-.52-2.41-.03-.69.49-.93,1.44-.77,2.28s.62,1.57,1.1,2.26c1.15,1.65,2.46,3.23,4.12,4.38,1.66,1.14,3.17,1.88,5.16,1.59"/>
        <path class="cls-11" d="m338.77,320.32c-1.1-3.28-3.08-6.26-5.69-8.54-.44-.38-.91-.75-1.48-.86-1.13-.22-2.23.73-2.59,1.82-.41,1.23-.13,2.62.52,3.74.65,1.12,1.63,2.02,2.66,2.81,1.9,1.45,4.03,2.6,6.29,3.4"/>
        <path class="cls-11" d="m341.03,307.9c-.55-4-2.63-7.32-5.04-10.55-.51-.68-1.22-1.4-2.06-1.28-.54.08-.97.51-1.18,1.01-.21.5-.24,1.06-.22,1.6.13,4.83,3.46,9.41,8.01,11.03"/>
        <path class="cls-11" d="m342.61,301.56c-.2-2.05-.4-4.12-.21-6.18.19-2.05.79-4.12,2.05-5.75.54-.7,1.22-1.33,2.05-1.64.83-.3,1.84-.23,2.52.33.63.53.89,1.4.86,2.22-.03.82-.32,1.61-.64,2.37-1.51,3.62-4.02,7.64-6.64,8.65"/>
      </g>
      <g>
        <path class="cls-7" d="m317.99,306.32s.02.17.03.51c0,.37,0,.85.02,1.45,0,.63,0,1.4.04,2.29.03.89.04,1.91.11,3.03.1,2.25.32,4.92.66,7.87.37,2.95.87,6.18,1.56,9.54.71,3.36,1.55,6.52,2.4,9.37.87,2.84,1.75,5.37,2.56,7.47.38,1.06.79,1.99,1.12,2.82.33.83.63,1.54.89,2.11.23.55.42.99.57,1.33.13.31.19.47.18.48-.01,0-.09-.15-.24-.44-.16-.33-.37-.77-.63-1.31-.27-.57-.6-1.27-.95-2.09-.35-.82-.77-1.75-1.17-2.81-.85-2.09-1.75-4.62-2.64-7.47-.87-2.85-1.72-6.02-2.44-9.39-.7-3.37-1.19-6.62-1.54-9.58-.32-2.97-.51-5.65-.58-7.9-.06-1.13-.05-2.15-.05-3.04-.01-.9,0-1.67.03-2.3.02-.6.04-1.08.05-1.45.02-.33.03-.51.04-.5Z"/>
        <path class="cls-7" d="m318.87,322.7c.03-1.93.76-3.85,2.02-5.31.43-.5,1.02-.98,1.68-.89.87.13,1.27,1.17,1.3,2.05.05,1.48-.45,2.97-1.39,4.11-.94,1.14-1.92,1.85-3.38,2.09"/>
        <path class="cls-7" d="m320.79,333.34c-.11-2.29.63-5.82,1.96-7.68.21-.29.45-.58.76-.77.31-.19.71-.26,1.04-.1.47.23.61.82.66,1.33.31,3.29-1.44,6.69-4.3,8.35"/>
        <path class="cls-7" d="m323.28,342.46c.23-2.28,1.07-4.49,2.43-6.34.32-.43.71-.88,1.25-.94.81-.1,1.45.72,1.63,1.52.36,1.64-.45,3.3-1.39,4.68-1.01,1.49-3.12,3.09-3.12,3.09"/>
        <path class="cls-7" d="m325.53,348.87c.41-1.78,1.06-3.55,2.19-4.98.25-.31.52-.62.88-.79.36-.17.82-.18,1.13.06.5.4.39,1.18.18,1.78-.74,2.08-1.94,3.86-3.76,5.13"/>
        <path class="cls-7" d="m324.52,346.29c-2.05-1.34-4.22-2.5-6.48-3.44-.35-.15-.78-.28-1.09-.06-.24.17-.31.51-.24.8.07.29.25.53.44.76,1.89,2.25,5.05,3.48,7.99,3.31"/>
        <path class="cls-7" d="m322.02,337.82c-1.78-1.16-3.56-2.32-5.33-3.48-.51-.33-1.03-.67-1.62-.79-.59-.12-1.28.02-1.65.5-.37.48-.32,1.18-.04,1.72.28.53.76.94,1.24,1.3,1.14.88,2.37,1.67,3.75,2.09,1.38.42,2.56.6,3.86-.03"/>
        <path class="cls-7" d="m319.56,328.17c-1.45-2-3.45-3.6-5.71-4.59-.38-.17-.78-.32-1.2-.27-.82.09-1.36.97-1.37,1.8-.02.93.47,1.81,1.16,2.44.68.63,1.54,1.03,2.41,1.34,1.61.58,3.31.91,5.01.96"/>
        <path class="cls-7" d="m318.42,319.23c-1.23-2.6-3.36-4.42-5.7-6.1-.49-.35-1.13-.69-1.68-.43-.35.17-.55.56-.59.94s.07.77.19,1.14c1.13,3.26,4.38,5.66,7.83,5.78"/>
        <path class="cls-7" d="m318.13,314.57c-.58-1.36-1.16-2.72-1.47-4.16-.31-1.44-.35-2.97.16-4.36.22-.59.54-1.17,1.05-1.56.5-.39,1.2-.56,1.79-.31.54.22.91.76,1.06,1.32.16.57.13,1.16.08,1.75-.25,2.79-1.09,6.06-2.66,7.32"/>
      </g>
      <g>
        <path class="cls-11" d="m358.14,305.97s.03.17.04.5c.01.37.03.85.05,1.45.02.63.04,1.4.03,2.3,0,.9,0,1.92-.05,3.04-.06,2.25-.26,4.94-.58,7.9-.35,2.96-.84,6.21-1.54,9.58-.72,3.37-1.57,6.54-2.44,9.39-.9,2.85-1.8,5.38-2.64,7.47-.4,1.05-.82,1.98-1.17,2.81-.35.83-.67,1.52-.95,2.09-.26.54-.47.97-.63,1.31-.15.3-.23.45-.24.44-.01,0,.05-.17.18-.48.14-.34.33-.78.57-1.33.25-.58.56-1.28.89-2.11.33-.83.74-1.76,1.12-2.82.81-2.1,1.69-4.63,2.56-7.47.85-2.85,1.69-6.01,2.4-9.37.7-3.36,1.2-6.59,1.56-9.54.34-2.95.56-5.62.66-7.87.07-1.12.08-2.14.11-3.03.03-.89.04-1.66.04-2.29,0-.6.01-1.08.02-1.45,0-.33.02-.51.03-.51Z"/>
        <path class="cls-11" d="m357.26,322.35c-.03-1.93-.76-3.85-2.02-5.31-.43-.5-1.02-.98-1.68-.89-.87.13-1.27,1.17-1.3,2.05-.05,1.48.45,2.97,1.39,4.11.94,1.14,1.92,1.85,3.38,2.09"/>
        <path class="cls-11" d="m355.34,333c.11-2.29-.63-5.82-1.96-7.68-.21-.29-.44-.58-.75-.77s-.71-.26-1.04-.1c-.47.23-.61.82-.66,1.33-.31,3.29,1.44,6.68,4.3,8.35"/>
        <path class="cls-11" d="m352.85,342.11c-.23-2.28-1.07-4.49-2.43-6.34-.32-.43-.71-.88-1.25-.94-.81-.1-1.45.72-1.63,1.52-.36,1.64.45,3.3,1.39,4.68,1.02,1.49,3.12,3.09,3.12,3.09"/>
        <path class="cls-11" d="m350.6,348.52c-.41-1.78-1.06-3.55-2.19-4.98-.25-.31-.52-.62-.88-.79-.36-.17-.82-.18-1.13.06-.5.4-.39,1.18-.18,1.78.74,2.08,1.94,3.86,3.76,5.13"/>
        <path class="cls-11" d="m351.6,345.94c2.05-1.34,4.22-2.5,6.48-3.44.35-.15.78-.28,1.09-.06.24.17.31.51.24.8-.07.29-.25.53-.44.76-1.89,2.25-5.05,3.48-7.99,3.31"/>
        <path class="cls-11" d="m354.11,337.47c1.78-1.16,3.56-2.32,5.33-3.48.51-.33,1.03-.67,1.62-.79.59-.12,1.28.02,1.65.5.37.48.32,1.18.04,1.72-.28.53-.76.93-1.24,1.3-1.14.88-2.37,1.67-3.75,2.09-1.38.42-2.56.6-3.86-.03"/>
        <path class="cls-11" d="m356.57,327.82c1.45-2,3.45-3.6,5.71-4.59.38-.17.78-.32,1.2-.27.82.09,1.36.97,1.37,1.8.02.93-.47,1.81-1.16,2.44-.68.63-1.54,1.03-2.41,1.34-1.61.58-3.31.9-5.01.96"/>
        <path class="cls-11" d="m357.71,318.88c1.23-2.6,3.36-4.42,5.7-6.1.49-.35,1.13-.69,1.68-.43.35.17.55.56.59.94.04.39-.07.77-.19,1.14-1.13,3.26-4.38,5.66-7.83,5.78"/>
        <path class="cls-11" d="m358,314.23c.58-1.36,1.16-2.72,1.47-4.16.31-1.44.35-2.97-.16-4.36-.22-.59-.54-1.17-1.05-1.56-.5-.39-1.2-.56-1.79-.31-.54.22-.91.76-1.06,1.32-.15.57-.13,1.16-.08,1.75.25,2.79,1.09,6.06,2.66,7.32"/>
      </g>
      <path class="cls-11" d="m311.2,354.26v6.72c0,1.46,1.18,2.65,2.65,2.65h45.99c1.46,0,2.65-1.18,2.65-2.65v-6.72h-51.29Z"/>
      <polygon class="cls-7" points="315.19 363.63 315.57 365.77 358.01 368.79 359.08 363.63 315.19 363.63"/>
    </g>
  </g>
  <g id="Browser">
    <g>
      <rect class="cls-2" x="27.72" y="222.5" width="372.3" height="48.51" rx="22.54" ry="22.54"/>
      <path class="cls-8" d="m314.1,222.5h64.2c11.98,0,21.71,9.73,21.71,21.71v5.08c0,11.98-9.73,21.71-21.71,21.71h-64.2v-48.51h0Z"/>
      <g>
        <path class="cls-12" d="m68.83,247.79v6.41h-2.62v-6.08c0-1.99-.98-2.95-2.66-2.95-1.86,0-3.12,1.13-3.12,3.37v5.66h-2.62v-15.55h2.62v5.66c.86-.92,2.18-1.42,3.73-1.42,2.68,0,4.67,1.53,4.67,4.9Z"/>
        <path class="cls-12" d="m78.89,253.59c-.63.5-1.57.75-2.51.75-2.45,0-3.86-1.3-3.86-3.77v-5.38h-1.84v-2.09h1.84v-2.56h2.62v2.56h3v2.09h-3v5.32c0,1.09.54,1.68,1.55,1.68.54,0,1.07-.15,1.47-.46l.73,1.86Z"/>
        <path class="cls-12" d="m87.5,253.59c-.63.5-1.57.75-2.51.75-2.45,0-3.86-1.3-3.86-3.77v-5.38h-1.84v-2.09h1.84v-2.56h2.62v2.56h3v2.09h-3v5.32c0,1.09.54,1.68,1.55,1.68.54,0,1.07-.15,1.47-.46l.73,1.86Z"/>
        <path class="cls-12" d="m101.54,248.61c0,3.48-2.41,5.74-5.68,5.74-1.42,0-2.68-.48-3.58-1.51v5.43h-2.62v-15.25h2.49v1.47c.88-1.07,2.18-1.59,3.71-1.59,3.27,0,5.68,2.26,5.68,5.72Zm-2.66,0c0-2.14-1.42-3.5-3.31-3.5s-3.33,1.36-3.33,3.5,1.45,3.5,3.33,3.5,3.31-1.36,3.31-3.5Z"/>
        <path class="cls-12" d="m103.16,244.63c0-1.05.78-1.74,1.72-1.74s1.72.69,1.72,1.74-.78,1.74-1.72,1.74-1.72-.73-1.72-1.74Zm0,7.98c0-1.05.78-1.74,1.72-1.74s1.72.69,1.72,1.74-.78,1.74-1.72,1.74-1.72-.73-1.72-1.74Z"/>
        <path class="cls-12" d="m114.76,236.56h2.35l-6.91,19.74h-2.35l6.91-19.74Z"/>
        <path class="cls-12" d="m121.07,236.56h2.35l-6.91,19.74h-2.35l6.91-19.74Z"/>
        <path class="cls-12" d="m141.1,243.01l-4.13,11.19h-2.51l-2.89-7.71-2.93,7.71h-2.51l-4.11-11.19h2.47l2.95,8.25,3.08-8.25h2.2l3.02,8.3,3.04-8.3h2.33Z"/>
        <path class="cls-12" d="m160.15,243.01l-4.13,11.19h-2.51l-2.89-7.71-2.93,7.71h-2.51l-4.11-11.19h2.47l2.95,8.25,3.08-8.25h2.2l3.02,8.3,3.04-8.3h2.33Z"/>
        <path class="cls-12" d="m179.2,243.01l-4.13,11.19h-2.51l-2.89-7.71-2.93,7.71h-2.51l-4.11-11.19h2.47l2.95,8.25,3.08-8.25h2.2l3.02,8.3,3.04-8.3h2.33Z"/>
        <path class="cls-12" d="m179.43,252.61c0-1.05.78-1.74,1.72-1.74s1.72.69,1.72,1.74-.78,1.74-1.72,1.74-1.72-.73-1.72-1.74Z"/>
      </g>
      <path class="cls-12" d="m377.47,271.01s.7-.05,2.07-.13c.68-.06,1.52-.22,2.52-.38.98-.26,2.13-.5,3.37-1.02,2.47-.96,5.45-2.57,8.17-5.39,1.36-1.4,2.6-3.11,3.7-5.07,1.05-1.98,1.85-4.26,2.29-6.75.46-2.49.35-5.19.3-8-.09-2.8-.72-5.74-2-8.53-1.28-2.79-3.21-5.44-5.72-7.64-2.5-2.21-5.64-3.88-9.12-4.77-1.73-.49-3.56-.65-5.41-.71-1.87,0-3.76,0-5.69,0-3.85,0-7.83,0-11.92,0-8.18,0-16.83,0-25.91.02-72.65.02-173,.04-283.83.06-6.87,0-13.64,3.29-17.71,8.74-2.06,2.69-3.51,5.83-4.19,9.13-.11.83-.29,1.66-.35,2.5-.03.84-.11,1.67-.1,2.52v2.54c.01.84.08,1.67.11,2.51.64,6.67,4.44,12.87,9.96,16.47,2.76,1.8,5.9,2.98,9.13,3.43.8.16,1.62.16,2.43.21.81.06,1.64.03,2.46.04,1.64,0,3.28,0,4.91,0,26.14,0,51.35,0,75.36.01,48.03.02,91.28.03,127.6.05,36.32.03,65.71.05,86.03.07,10.15.02,18.04.03,23.39.04,2.67,0,4.71.02,6.08.02,1.37,0,2.07.02,2.07.02,0,0-.7.01-2.07.02-1.37,0-3.41.01-6.08.02-5.35,0-13.24.02-23.39.04-20.32.02-49.71.04-86.03.07-36.32.01-79.57.03-127.6.05-24.02,0-49.23,0-75.36.01-1.63,0-3.27,0-4.91,0-.82,0-1.64.03-2.47-.04-.83-.05-1.66-.05-2.48-.21-3.29-.46-6.49-1.66-9.3-3.49-5.63-3.67-9.51-9.98-10.16-16.78-.04-.85-.1-1.7-.11-2.55v-2.54c-.01-.84.07-1.71.1-2.56.06-.85.24-1.7.35-2.54.69-3.36,2.17-6.56,4.27-9.3,4.15-5.56,11.05-8.91,18.05-8.91,110.83.02,211.19.05,283.83.06,9.08,0,17.73.01,25.91.02,4.09,0,8.06,0,11.92,0,1.93,0,3.82,0,5.69.01,1.87.07,3.72.23,5.47.73,3.51.9,6.68,2.59,9.2,4.83,2.54,2.22,4.48,4.9,5.76,7.72,1.29,2.82,1.92,5.79,2,8.61.05,2.81.15,5.52-.32,8.04-.45,2.51-1.26,4.8-2.32,6.79-1.1,1.97-2.36,3.69-3.73,5.09-2.74,2.82-5.74,4.43-8.23,5.38-1.24.51-2.41.74-3.39,1-1,.15-1.85.3-2.53.36-1.37.06-2.07.08-2.07.08Z"/>
      <g>
        <path class="cls-1" d="m350.59,253.37c-5.79,0-10.51-4.71-10.51-10.51s4.71-10.51,10.51-10.51,10.51,4.71,10.51,10.51-4.71,10.51-10.51,10.51Zm0-20.18c-5.34,0-9.68,4.34-9.68,9.68s4.34,9.68,9.68,9.68,9.68-4.34,9.68-9.68-4.34-9.68-9.68-9.68Z"/>
        <path class="cls-1" d="m367.09,261.26c-.11,0-.22-.04-.3-.13l-9.58-10.31c-.16-.17-.15-.43.02-.59.17-.16.43-.15.59.02l9.59,10.31c.16.17.15.43-.02.59-.08.07-.18.11-.28.11Z"/>
      </g>
      <path class="cls-8" d="m186.65,257.84c-.12,0-.22-4.94-.22-11.03s.1-11.03.22-11.03.22,4.94.22,11.03-.1,11.03-.22,11.03Z"/>
    </g>
  </g>
  <g id="Character">
    <g>
      <g>
        <path class="cls-12" d="m212.43,55.28c-1.6,12.94-1.58,26.08.06,39.01.41,3.28,1.11,6.86,3.69,8.91,3.07,2.44,7.91,1.59,10.71-1.16,2.8-2.75,3.84-6.89,3.79-10.81-.05-3.92-1.06-7.76-1.77-11.62-.94-5.09-1.41-10.37-3.68-15.01-2.28-4.64-6.98-8.6-12.13-8.08"/>
        <path class="cls-12" d="m220.01,17.2c5.87-5.79,18.46-4.31,25.05.65,6.59,4.96,10,13.17,11.39,21.29,1.39,8.13,1.05,16.44,1.73,24.66.68,8.22,2.52,16.67,7.59,23.17,2.17,2.77,4.87,5.12,6.81,8.06,3.68,5.59,4.11,13.26.75,19.05-3.36,5.79-10.46,9.26-17.03,8.01-6.82-1.29-12.07-7.1-14.67-13.54-2.61-6.43-3.04-13.5-3.57-20.42-1.66-21.54-4.56-42.98-8.68-64.19"/>
        <path class="cls-10" d="m212.83,80.72l6.12-1.67h26.92l14.6,8.62s-25.53,11.49-34.99,6.88-12.65-13.06-12.65-13.06"/>
        <g>
          <g>
            <path class="cls-10" d="m246.09,31.96l.18-3.6-21.5-4.79c-6.65-.91-14.07,5.55-14.7,12.23-.7,7.42-1.26,16.51-.55,22.09,1.43,11.21,9.93,12.9,9.93,12.9l.9,24.51,24.67,1.08,1.07-64.41Z"/>
            <g>
              <path class="cls-12" d="m213.29,43.65c-.05.75.55,1.42,1.34,1.49.79.07,1.46-.49,1.52-1.24.05-.75-.55-1.42-1.33-1.49-.79-.07-1.47.49-1.52,1.25Z"/>
              <path class="cls-12" d="m212.28,39.78c.17.19,1.28-.58,2.82-.52,1.54.03,2.64.86,2.82.67.08-.08-.09-.42-.57-.8-.47-.37-1.29-.74-2.25-.77-.96-.02-1.78.3-2.25.65-.48.35-.66.68-.57.77Z"/>
            </g>
            <g>
              <path class="cls-12" d="m228.3,44.4c-.05.75.55,1.42,1.33,1.49.79.07,1.46-.49,1.51-1.24.05-.75-.55-1.42-1.33-1.49-.79-.07-1.47.49-1.52,1.25Z"/>
              <path class="cls-12" d="m227.41,40.58c.17.19,1.28-.58,2.82-.52,1.54.03,2.64.86,2.82.67.08-.08-.08-.42-.57-.8-.47-.37-1.29-.74-2.25-.77-.96-.02-1.78.3-2.25.65-.48.35-.66.68-.57.77Z"/>
            </g>
            <path class="cls-12" d="m221.46,52.62c0-.09-.94-.28-2.49-.53-.39-.05-.76-.14-.82-.41-.08-.29.09-.71.3-1.16.4-.94.82-1.93,1.26-2.96,1.75-4.21,3.02-7.68,2.85-7.75-.17-.07-1.72,3.29-3.47,7.5-.42,1.04-.82,2.03-1.21,2.98-.16.44-.43.94-.25,1.54.1.3.38.52.63.6.25.08.47.1.66.11,1.56.13,2.53.17,2.53.08Z"/>
            <path class="cls-5" d="m219.45,70.82s7.87.71,15.45-3.53c0,0-3.78,7.72-15.3,6.34l-.15-2.81Z"/>
            <path class="cls-5" d="m222,56.35c.58-.71,1.56-1.09,2.52-.95.67.09,1.33.44,1.72.99.39.56.45,1.33.07,1.84-.43.57-1.31.68-2.03.45-.73-.23-1.35-.74-1.93-1.24-.16-.14-.33-.28-.43-.47-.1-.19-.11-.43.02-.57"/>
            <path class="cls-12" d="m225.96,53.83c-.25-.02-.3,1.65-1.77,2.79-1.46,1.15-3.24.9-3.26,1.14-.03.1.39.34,1.14.38.74.05,1.82-.16,2.72-.85.9-.7,1.3-1.66,1.38-2.34.09-.7-.09-1.12-.2-1.11Z"/>
          </g>
          <path class="cls-12" d="m227.2,35.93c.14.42,1.68.27,3.48.55,1.81.24,3.25.81,3.5.44.11-.18-.13-.58-.71-1-.57-.42-1.49-.84-2.57-.99-1.08-.15-2.08-.01-2.75.24-.67.25-1.02.57-.96.77Z"/>
          <path class="cls-12" d="m212.49,34.5c.26.36,1.33.03,2.61.05,1.28-.02,2.35.31,2.61-.05.11-.17-.04-.53-.51-.88-.45-.34-1.22-.64-2.1-.64-.88,0-1.65.29-2.1.64-.46.35-.62.7-.51.88Z"/>
        </g>
        <path class="cls-8" d="m245.76,49.52c1.95-1.3,2.8-12.42,2.72-16.99-.09-4.57-2.52-8.64-5.75-11.88-3.51-3.52-7.56-4.76-12.5-5.28-2.76-.3-5.72-.66-8.39.1-2.67.76-4.16,1.71-5.46,4.16-.72,1.35-.91,3.3.34,4.19,1.2.85,2.81.17,4.22-.23,3.75-1.06,7.84.14,11.08,2.31,3.24,2.17,5.77,5.21,8.25,8.21,3.23,3.9,4.77,10.4,5.48,15.42"/>
        <path class="cls-12" d="m208.09,23.49c1.43-4.54,10.28-10.16,19.63-5.97,4.3.15,8.48.86,13.06,5.03,8.27,7.54,5.11,26.04,5.11,26.04,0,0-7.05-3.23-13.2-10.65-5.31-6.41-8.22-11.42-9.26-14.45h0c-8.63,2.08-11.9,9.63-13.42,12.9-1.95-2.24-4.44-4.89-1.92-12.9Z"/>
        <g>
          <path class="cls-10" d="m244.06,47.43c.18-.09,7.36-2.51,7.43,4.91s-7.4,5.97-7.42,5.75c-.01-.21-.02-10.67-.02-10.67Z"/>
          <path class="cls-5" d="m246.32,55.26s.13.09.35.19c.21.1.58.16.97.01.78-.3,1.43-1.55,1.45-2.89.01-.68-.14-1.32-.38-1.85-.23-.54-.59-.92-.98-.98-.39-.09-.67.15-.76.36-.1.21-.05.36-.09.37-.02.02-.16-.12-.1-.43.03-.15.11-.32.29-.47.18-.15.44-.22.71-.2.57.03,1.09.56,1.36,1.14.3.58.48,1.31.47,2.07-.03,1.5-.79,2.9-1.86,3.23-.52.14-.96-.01-1.19-.19-.23-.18-.27-.35-.25-.36Z"/>
        </g>
      </g>
      <g>
        <path class="cls-10" d="m164.09,213.19l-14.96,1.66-9.13,5.73s-.18,1.86,2.42,1.56l5.15-2.17-4.07,4.46s.98,1.79,3.22.54c2.24-1.25,3.63-3.13,3.63-3.13l9-.63s-6.8,6.54-5.55,8.24c1.25,1.7,2.06,1.34,3.04.72.98-.63,1.52-2.78,3.76-3.49,2.24-.72,5.93-2.81,9.94-4.7,3.44-1.63,6.94-13.3,6.94-13.3l-11.49-2.24-1.88,6.78Z"/>
        <path class="cls-5" d="m158.14,217.02c.03.19-3.78.92-8.51,1.63l-.12.02.2-.1c-3.3,3.38-6.07,6-6.21,5.87-.14-.13,2.41-2.97,5.71-6.35l.08-.08.12-.02.12-.02c4.73-.71,8.59-1.13,8.61-.94Z"/>
      </g>
      <g>
        <g>
          <polygon class="cls-10" points="253.91 307.38 251.11 283.21 228.7 289.48 234.36 312.67 253.91 307.38"/>
          <g>
            <path class="cls-8" d="m254.16,307.32l3.79,28.18,9.43,21.43c.68,1.54-.09,3.34-1.68,3.91h0c-.89.32-1.87.2-2.65-.34-4.94-3.43-23.03-16.16-23.19-18.24-.19-2.41-5.97-29.46-5.97-29.46l20.27-5.48Z"/>
            <g class="cls-3">
              <path class="cls-1" d="m265.7,360.84l-26.14-20.48.19,1.19c.16,1.03.68,1.97,1.47,2.65,2.11,1.81,8.06,6.7,21.75,16.31.8.56,1.82.68,2.73.33h0Z"/>
            </g>
            <g class="cls-3">
              <path class="cls-1" d="m243.89,330.4c.78.38,1.18,1.4.84,2.2-.34.8-1.39,1.21-2.17.85-.79-.36-1.3-1.58-.87-2.33.43-.75,1.68-1.17,2.36-.63"/>
            </g>
            <path class="cls-12" d="m257.34,349.58c.17.05.57-1.52,2.12-2.57,1.51-1.1,3.13-.95,3.14-1.13.01-.07-.38-.24-1.05-.22-.67,0-1.6.25-2.45.84-.84.6-1.39,1.4-1.62,2.02-.24.63-.21,1.05-.14,1.06Z"/>
            <path class="cls-12" d="m259.93,353.03c.15.1.91-.96,2.3-1.6,1.37-.68,2.67-.6,2.69-.79.06-.16-1.39-.54-2.96.22-1.58.74-2.19,2.11-2.03,2.16Z"/>
            <path class="cls-12" d="m252.85,345.35c.15.11,1.31-1.52,3.38-2.71,2.05-1.23,4.04-1.44,4.01-1.63.02-.16-2.13-.22-4.33,1.09-2.22,1.29-3.21,3.19-3.06,3.25Z"/>
            <path class="cls-12" d="m250.98,336.88c.1.16,1.55-.74,3.56-1.13,2-.42,3.68-.16,3.72-.34.06-.15-1.69-.71-3.84-.27-2.16.43-3.54,1.62-3.43,1.74Z"/>
            <path class="cls-12" d="m249.66,328.63c.11.15,1.53-1.03,3.67-1.27,2.14-.29,3.8.52,3.87.35.04-.07-.33-.37-1.03-.64-.7-.27-1.76-.46-2.92-.33-1.15.14-2.14.59-2.75,1.02-.62.43-.9.82-.85.87Z"/>
            <path class="cls-12" d="m253.04,325.8s.04-.39-.13-1.07c-.17-.67-.53-1.64-1.28-2.65-.39-.47-.81-1.1-1.65-1.34-.42-.13-.99.04-1.26.46-.27.41-.3.89-.24,1.34.31,1.78,2.11,3.26,4.16,3.2,2.05-.1,3.69-1.53,4.25-3.2.11-.43.16-.93-.14-1.37-.29-.45-.89-.55-1.28-.41-.81.26-1.27.82-1.7,1.25-.85.93-1.31,1.84-1.57,2.49-.26.65-.31,1.03-.28,1.04.11.06.49-1.49,2.17-3.22.43-.4.92-.91,1.51-1.06.29-.08.56,0,.7.22.14.21.14.57.04.91-.48,1.37-1.98,2.68-3.71,2.73-1.72.07-3.31-1.24-3.57-2.67-.06-.34-.02-.71.13-.94.15-.23.42-.33.69-.27.58.13,1.04.67,1.42,1.11,1.51,1.88,1.64,3.49,1.76,3.44Z"/>
          </g>
        </g>
        <g>
          <path class="cls-12" d="m202.04,168.89l-.41,6.1s-5.15,9.75-5.62,18.49c-.27,5.08-.39,12.56-.43,17.94-.04,4.33,1.16,8.58,3.45,12.25l10.32,16.54-1.42,18.69,18.72,37.46,27.69-7.01-3.28-69.15-11.14-36.52-2.12-17.35-35.75,2.56Z"/>
          <path class="cls-12" d="m257.82,165.09l.5,7.95s22.23-47.37,52.57-53.21c19.71-3.8,27.48,17.69,20.57,34.75-4.17,10.27-21.44,29.93-21.47,30.38-.54,10.55-11.29,8.99-11.29,8.99,0,0-13.51,21.25-17.51,25.42-2.73,2.85-31.65,1.83-31.65,1.83l-9.08-18.79-3.66-35.98,21.01-1.36Z"/>
          <path class="cls-6" d="m219.38,214.75s-.14.62-.52,1.71c-.41,1.2-.94,2.74-1.57,4.58-1.31,3.87-3.04,9.25-4.68,15.27-1.64,6.02-2.88,11.53-3.71,15.53-.39,1.91-.72,3.5-.97,4.75-.23,1.12-.38,1.74-.42,1.73-.04,0,.02-.64.17-1.77.15-1.14.41-2.77.77-4.79.72-4.03,1.89-9.58,3.53-15.62,1.65-6.03,3.44-11.41,4.87-15.25.71-1.92,1.32-3.46,1.77-4.52.44-1.06.71-1.63.75-1.62Z"/>
          <path class="cls-6" d="m212.48,207.28c.1.02-.13,1.73-.44,4.5-.31,2.77-.68,6.61-.89,10.86-.21,4.25-.21,8.11-.17,10.9.04,2.79.1,4.52,0,4.53-.04,0-.11-.43-.2-1.2-.09-.78-.18-1.91-.26-3.31-.16-2.8-.23-6.67-.02-10.94.21-4.27.65-8.12,1.09-10.89.22-1.38.42-2.5.58-3.26.16-.77.27-1.19.32-1.18Z"/>
          <path class="cls-6" d="m254.34,287.9s-.03-.11-.05-.34c-.02-.26-.05-.58-.08-.99-.06-.92-.14-2.19-.25-3.8-.19-3.35-.45-8.12-.78-13.98-.6-11.85-1.42-28.15-2.33-46.15-.29-4.5-.18-8.94-1.14-13.05-.89-4.13-2.55-7.91-4.56-11.21-2.06-3.29-4.52-6.09-7.15-8.32-2.64-2.22-5.41-3.91-8.09-5.12-5.36-2.46-10.18-3.12-13.45-3.3-1.65-.08-2.93-.04-3.8,0-.4.02-.73.04-.99.05-.22,0-.34,0-.34,0,0,0,1.81-.36,5.13-.3,3.3.1,8.18.69,13.63,3.13,2.72,1.2,5.55,2.89,8.25,5.12,2.69,2.25,5.21,5.08,7.31,8.41,2.06,3.35,3.76,7.19,4.68,11.39.98,4.21.88,8.67,1.17,13.16.84,18,1.59,34.3,2.14,46.16.24,5.87.44,10.64.58,13.99.05,1.61.09,2.89.12,3.81,0,.4.01.73.02.99,0,.22,0,.34-.02.34Z"/>
          <path class="cls-6" d="m241.67,189.5c-.14-.11,2.51-3.55,5.92-7.67,3.41-4.12,6.28-7.37,6.42-7.26.14.11-2.51,3.55-5.92,7.67-3.41,4.12-6.28,7.37-6.42,7.25Z"/>
          <path class="cls-6" d="m285.97,161.44c3.08-5.03,6.23-9.32,8.62-12.31,2.39-2.99,4.02-4.69,4.11-4.61.11.1-1.34,1.97-3.59,5.07-2.25,3.09-5.28,7.42-8.35,12.41-3,5.01-5.94,9.56-6.46,13.38-.62,3.84.75,6.08.58,6.11-.04.03-.44-.44-.81-1.5-.37-1.05-.67-2.7-.44-4.72.22-2.02,1.02-4.3,2.2-6.6"/>
          <path class="cls-6" d="m301.4,138.39c.15.12-.93,1.48-1.6,3.45-.7,1.96-.69,3.69-.89,3.7-.16.03-.47-1.8.27-3.91.73-2.11,2.11-3.36,2.22-3.23Z"/>
          <path class="cls-6" d="m238.74,238.61c-.16-.08,1.23-3.33,3.11-7.25,1.88-3.93,3.53-7.05,3.69-6.97.16.08-1.23,3.32-3.11,7.25-1.88,3.93-3.53,7.05-3.69,6.97Z"/>
          <path class="cls-6" d="m223.07,227.87c.17-.06.88,1.45,1.59,3.38.71,1.93,1.15,3.54.98,3.6-.17.06-.88-1.45-1.59-3.38-.71-1.93-1.15-3.54-.98-3.6Z"/>
        </g>
        <g>
          <path class="cls-8" d="m187.1,101.51c1.6-13.84,10.47-16.94,10.47-16.94l1.3,81.77-10.2,42.22c-1.28,5.29-6.75,8.42-11.95,6.83l-20.66-6.29s29.44-93.76,31.03-107.6Z"/>
          <path class="cls-8" d="m273.31,94.41s5.11,11.63,5.11,17.75,6.12,45.77,0,54.17c-6.12,8.4-18.14,8.08-21.57,7.79-4.67-.39-26.45-40.67-25.56-41.19l12.25-2.66s8.58.53,12.68,3.99c4.1,3.46,8.09-.53,8.09-.53l8.64-37.17"/>
          <path class="cls-8" d="m256.25,84.58s14.02,4.76,17.07,9.84c3.05,5.08-14.58,70.42-14.58,70.42l-56.69,4.06s-4.47-.81-5.69-4.88c-1.22-4.06,1.22-79.44,1.22-79.44l15.77-5.58s6.78,7,11.66,8.42c4.88,1.42,31.24-2.84,31.24-2.84Z"/>
          <path class="cls-12" d="m201.12,102.52s.04.23.06.67c.02.51.04,1.15.06,1.93.03,1.68.04,4.1-.04,7.1-.13,6-.6,14.28-1.75,23.37-.57,4.54-1.24,8.86-1.95,12.76-.71,3.9-1.46,7.39-1.38,10.37.03,2.97.82,5.31,1.62,6.75.8,1.46,1.51,2.09,1.45,2.13-.01.01-.19-.13-.5-.45-.3-.32-.73-.83-1.17-1.56-.89-1.44-1.77-3.82-1.86-6.86-.14-3.04.57-6.6,1.25-10.48.67-3.9,1.33-8.2,1.89-12.74,1.14-9.06,1.68-17.32,1.93-23.31.1-2.92.18-5.32.24-7.09.03-.78.05-1.42.06-1.93.02-.44.04-.67.07-.67Z"/>
          <path class="cls-12" d="m256.22,137.53c-.1.06-.6-1.06-1.95-2.38-.68-.65-1.58-1.34-2.69-1.87-1.11-.54-2.46-.82-3.89-1.03-2.87-.39-5.54-.23-7.29.42-.9.29-1.49.77-1.91,1.09-.36.37-.58.58-.62.55-.04-.02.11-.28.44-.73.38-.39.99-.96,1.92-1.33,1.83-.81,4.61-1.04,7.55-.64,1.46.21,2.89.52,4.06,1.13,1.17.59,2.09,1.36,2.76,2.08.67.72,1.08,1.41,1.33,1.9.25.49.32.78.29.8Z"/>
          <path class="cls-12" d="m241.49,150.02c.1-.03.55,1.53,1.59,3.93,1.03,2.4,2.68,5.62,4.79,9.02,2.1,3.39,4.24,6.32,5.93,8.31.84,1,1.58,1.75,2.14,2.21.55.49.93.58.92.63,0,.04-.46.01-1.08-.43-.62-.42-1.43-1.14-2.33-2.11-1.8-1.94-4.02-4.85-6.14-8.27-2.12-3.42-3.73-6.71-4.66-9.18-.47-1.23-.78-2.26-.97-2.97-.18-.72-.24-1.12-.2-1.13Z"/>
          <path class="cls-12" d="m263.09,100.91c-.14-.1,1.15-2.14,3.28-4.2,2.12-2.08,4.19-3.32,4.28-3.18.11.15-1.76,1.61-3.83,3.64-2.08,2.02-3.58,3.85-3.73,3.74Z"/>
          <path class="cls-12" d="m195.63,86.7c.08-.14,2.37,1.27,4.43,3.82,2.08,2.54,2.99,5.07,2.84,5.12-.18.08-1.33-2.25-3.34-4.71-1.99-2.47-4.05-4.07-3.93-4.23Z"/>
          <path class="cls-12" d="m248.16,158.59c-.07.04-.89-1.14-1.97-3.21-1.08-2.06-2.37-5.03-3.35-8.45-.98-3.42-1.46-6.62-1.63-8.94-.18-2.32-.1-3.76-.03-3.76.1,0,.19,1.43.48,3.72.29,2.29.83,5.43,1.8,8.81.97,3.38,2.17,6.33,3.14,8.42.97,2.09,1.65,3.36,1.56,3.41Z"/>
          <path class="cls-12" d="m269.21,141.63c-.07.06-.82-.77-2.1-2.04-1.28-1.27-3.11-2.95-5.32-4.57-1.11-.8-2.17-1.58-3.22-2.03-1.05-.47-2.1-.57-2.91-.3-.82.24-1.36.73-1.63,1.12-.27.4-.33.68-.39.67-.03,0-.06-.31.17-.8.23-.48.8-1.09,1.7-1.43.9-.36,2.14-.3,3.29.19,1.16.47,2.25,1.25,3.38,2.06,2.24,1.65,4.06,3.42,5.27,4.78,1.21,1.36,1.83,2.3,1.77,2.35Z"/>
          <g class="cls-9">
            <path d="m242.8,154.58c-2.93.74-5.9-.96-8.92-1.11-2.74-.14-5.36.99-8,1.71-5.72,1.55-11.94,1.18-17.43-1.05-.64-.26-1.3-.56-1.76-1.08-.46-.52-.66-1.59-.33-2.2,5.1-.05,10.17.16,15.27.11,1.04-.01,2.14-.04,3.02-.59.44-.28.54-.55.54-.55,0,0,3.05-.1,4.14-.11,2.45-.01,5.28.19,7.74.18,1.07,0,4.51.15,4.43.15"/>
          </g>
          <g class="cls-9">
            <path d="m259.58,132.76c4.32.78,8.41,2.79,11.65,5.74.36.33.72.68.93,1.12.21.44.25.99-.03,1.4-.34.5-1.04.62-1.62.46-.58-.17-1.05-.56-1.51-.95-3.22-2.73-6.44-5.45-9.66-8.18"/>
          </g>
          <path class="cls-12" d="m262.3,104.72c.09,0,.14,1.59.09,4.14-.05,2.56-.23,6.09-.6,9.98-.37,3.89-.86,7.39-1.29,9.92-.43,2.52-.78,4.07-.86,4.05-.09-.02.1-1.59.41-4.12.31-2.53.73-6.03,1.1-9.91.37-3.88.61-7.39.78-9.94.17-2.55.28-4.13.37-4.12Z"/>
        </g>
        <g>
          <g>
            <g>
              <polygon class="cls-6" points="218.14 132.74 212.21 119.96 191.82 118.68 191.1 119.87 206.56 149.65 225.19 149.8 218.14 132.74"/>
              <path class="cls-6" d="m217.41,133.93l-5.93-12.79-20.39-1.28,14.74,30.97,16.53.12c.99,0,1.94-.35,2.67-1.01l.15-.14-7.77-15.87Z"/>
              <path class="cls-11" d="m201.95,125.88c.42.38,1.07.35,1.45-.07.38-.42.35-1.07-.07-1.45s-1.07-.35-1.45.07c-.38.42-.35,1.07.07,1.45Z"/>
            </g>
            <path class="cls-10" d="m241.31,134.58l-7.87.46c-1.96-2.77-5.07-4.5-8.45-4.71l-2.82-.18-2.06,2.04s-13.83-.26-14.44,1.41l-.05.55-.03.32,11.75,1.53s-10.03-.66-10.63-.68c-.66-.02-2.79-.34-2.82.84-.02.97,1.07,1.81,2.79,2.17.71.15,9.35,1.45,9.35,1.45,0,0-9.12-.66-9.56-.69-1.07-.07-1.04,1.66-.42,1.91.49.2,12.52,4.54,12.52,4.54,0,0-2.15,1.25-3.82,1.03-1.67-.23-4.42-2.57-5.09-1.59-.66.98-.58,1.59-.24,1.85.35.26,4.18,2.55,5.48,3,1.3.44,14.65-.23,14.65-.23l13.95.48-2.2-15.51Z"/>
            <path class="cls-5" d="m215.4,132.07c0-.08,2.18-.03,4.85.13,2.67.15,4.84.35,4.83.43,0,.08-2.18.03-4.85-.13-2.67-.15-4.84-.35-4.83-.43Z"/>
          </g>
          <path class="cls-12" d="m216.29,131.5s-.14-.26-.37-.76c-.26-.57-.59-1.28-.98-2.13-.86-1.92-2.01-4.46-3.32-7.38l.08.05c-1.46-.09-3.04-.19-4.67-.3-4.35-.29-8.29-.55-11.27-.75-1.37-.1-2.51-.18-3.41-.25-.35-.03-.66-.06-.93-.08-.21-.02-.32-.03-.32-.04,0,0,.11,0,.32,0,.27.01.58.03.93.04.9.05,2.05.11,3.42.19,2.98.18,6.92.43,11.27.7,1.64.11,3.21.21,4.67.3h.06s.02.05.02.05c1.29,2.93,2.41,5.48,3.26,7.41.37.86.68,1.57.93,2.15.21.5.31.78.31.78Z"/>
        </g>
        <g>
          <g>
            <g>
              <path class="cls-8" d="m295.05,199.79l-13.58,17.08s13.72,18.25,11.52,21.65l-34.98-23.85,20.07-27.48,16.98,12.6Z"/>
              <g class="cls-3">
                <path class="cls-1" d="m272.03,207.62c-.79-.31-1.79.1-2.13.88-.34.78.06,1.8.85,2.12.79.32,2.01-.13,2.25-.94.25-.81-.29-1.99-1.13-2.11"/>
              </g>
              <g class="cls-3">
                <path class="cls-1" d="m258.01,214.67l2.02-2.77,32.98,24.21s.78,1.26-.01,2.79l-34.99-24.22Z"/>
              </g>
              <path class="cls-12" d="m282.15,217.1c-.13.16-1.02-.38-2.23-.45-1.21-.1-2.17.31-2.27.13-.13-.15.85-.96,2.32-.85,1.47.1,2.33,1.04,2.18,1.16Z"/>
              <path class="cls-12" d="m284.64,221.22c-.08.19-1.01-.06-2.09.23-1.09.25-1.8.91-1.96.78-.18-.09.43-1.15,1.78-1.48,1.35-.34,2.38.31,2.27.47Z"/>
              <path class="cls-12" d="m283.51,226.99c-.18-.08.2-1.08,1.3-1.67,1.1-.6,2.14-.38,2.11-.19,0,.21-.87.32-1.77.83-.91.48-1.47,1.15-1.65,1.04Z"/>
              <path class="cls-12" d="m284.82,212.87c-.18.1-.78-.69-1.76-1.32-.97-.65-1.94-.87-1.92-1.08,0-.19,1.16-.28,2.31.48,1.16.75,1.55,1.85,1.37,1.93Z"/>
            </g>
            <path class="cls-12" d="m287.49,209.37c-.05.07-.78-.31-1.7-1.27-.46-.48-.95-1.1-1.38-1.87-.22-.38-.42-.8-.6-1.24-.08-.22-.19-.46-.22-.78-.06-.31.16-.83.58-.94.37-.13.76-.02,1.01.16.26.18.42.38.57.56.31.37.57.76.79,1.15.43.78.68,1.54.81,2.19.25,1.32.06,2.14-.02,2.13-.12,0-.12-.81-.47-2-.18-.6-.46-1.29-.89-1.98-.22-.35-.47-.69-.76-1.03-.29-.36-.6-.59-.81-.5-.08.04-.1.06-.1.22,0,.16.08.36.16.57.16.42.33.81.52,1.18.38.73.8,1.35,1.18,1.85.77.99,1.38,1.51,1.31,1.6Z"/>
            <path class="cls-12" d="m287.1,209.45c-.08-.02.03-.86.77-1.98.37-.56.9-1.16,1.61-1.7.36-.26.76-.51,1.2-.72.45-.19,1.02-.46,1.72-.06.35.24.43.71.36,1-.06.31-.18.53-.29.75-.23.44-.53.83-.85,1.15-.64.65-1.38,1.03-2.03,1.22-1.32.39-2.16.08-2.13.01,0-.12.82-.02,1.96-.49.56-.23,1.19-.62,1.72-1.2.27-.29.51-.63.7-1.01.21-.4.29-.79.13-.86-.17-.13-.66-.07-1.01.12-.4.18-.77.39-1.1.61-.67.46-1.2.98-1.59,1.46-.78.97-1.07,1.72-1.18,1.68Z"/>
          </g>
          <polygon class="cls-10" points="298.71 193.96 294.43 199.33 278.47 187.48 281.38 183.03 298.71 193.96"/>
        </g>
      </g>
    </g>
  </g>
  <g id="Speech_Bubble" data-name="Speech Bubble">
    <g>
      <path class="cls-12" d="m184.1,63.44l-13.1-5.17c-4.51,3.74-10.08,6.32-16.31,7.2-17.92,2.53-34.49-9.95-37.02-27.87-2.53-17.92,9.95-34.49,27.87-37.02,17.92-2.53,34.49,9.95,37.02,27.87,1.06,7.48-.51,14.73-3.99,20.81h.01s5.53,14.18,5.53,14.18Z"/>
      <path class="cls-12" d="m184.1,63.44c-.35-.92-2-5.28-5.4-14.24l-.08-.2-.15.15h-.01s.22.18.22.18c2.36-4.08,4.42-9.76,4.39-16.52-.02-1.68-.13-3.42-.46-5.18-.17-.88-.32-1.78-.53-2.68-.26-.88-.53-1.78-.8-2.69-1.24-3.58-3.17-7.15-5.84-10.35-2.66-3.2-6.07-6.04-10.06-8.14-3.98-2.09-8.55-3.46-13.34-3.73-4.78-.26-9.76.52-14.42,2.42-4.64,1.91-9.01,4.87-12.4,8.86-3.46,4.04-6.01,8.79-7.18,13.8-1.21,4.99-1.21,10.13-.18,14.9,1.03,4.77,3.06,9.18,5.85,12.82,2.77,3.65,6.19,6.58,9.85,8.7,3.66,2.12,7.55,3.43,11.33,4.05,3.79.61,7.44.4,10.77-.09,6.69-1.14,11.89-4.18,15.43-7.14l-.13.02c8.3,3.19,12.27,4.71,13.15,5.05-.87-.35-4.81-1.95-13.05-5.3l-.07-.03-.06.05c-3.54,2.91-8.7,5.87-15.32,6.96-3.3.46-6.9.65-10.64.04-3.72-.62-7.56-1.93-11.16-4.03-3.6-2.1-6.96-4.99-9.68-8.59-2.73-3.59-4.73-7.94-5.73-12.63-1.01-4.69-1-9.75.19-14.65,1.15-4.92,3.66-9.59,7.07-13.56,3.32-3.92,7.63-6.83,12.18-8.71,4.58-1.87,9.47-2.65,14.18-2.4,4.71.26,9.21,1.6,13.13,3.65,3.93,2.05,7.29,4.84,9.93,7.99,2.64,3.15,4.56,6.66,5.8,10.19.27.9.54,1.78.8,2.65.2.89.35,1.77.53,2.64.34,1.74.45,3.46.48,5.12.07,6.68-1.93,12.32-4.24,16.38l-.53.94.75-.77h.01s-.23-.06-.23-.06c3.56,8.9,5.29,13.23,5.66,14.14Z"/>
    </g>
    <g>
      <path class="cls-8" d="m145.4,29.08h1.86s4.01-5.69,4.01-5.69l-.03-3.7s2.87-.2,2.57,4.65c-.3,4.85.06,3.62.06,3.62,0,0,6.09-.02,6.6.5.37.38.58,6.43.67,9.71.04,1.65-.96,3.2-2.49,3.6-.22.06-.44.09-.65.09-1.52.01-9.29-1.16-9.29-1.16l-3.21.02-.09-11.64Z"/>
      <polygon class="cls-8" points="140.08 28.11 141.32 40.79 144.5 40.77 144.4 28.33 140.08 28.11"/>
    </g>
  </g>
  <g id="Floor">
    <path class="cls-12" d="m433.51,397.24c0,.14-97.05.26-216.74.26s-216.77-.12-216.77-.26,97.03-.26,216.77-.26,216.74.12,216.74.26Z"/>
  </g>
  <g id="Plant">
    <g>
      <g>
        <path class="cls-8" d="m80.53,320.87c4.06-2.09,8.84-2.37,13.35-1.62,2.42.4,4.95,1.12,6.59,2.94,1.65,1.82,1.96,5.02.07,6.58-1.13.93-2.7,1.07-4.16,1.05-3.53-.04-7.44-.66-10.26,1.46-1.61,1.21-2.68,3.22-4.6,3.82-1.88.58-4-.53-5-2.23-1-1.7-1.03-3.82-.57-5.73,0,0,.49-4.17,4.58-6.28Z"/>
        <path class="cls-8" d="m71.23,302.91c2.48,3.55,7.31,2.37,9.54.21,2.24-2.16,3.18-5.3,4.04-8.29,1.97-6.83,3.95-14,2.49-20.96-.44-2.08-1.22-4.16-2.68-5.7-1.46-1.54-3.71-2.46-5.77-1.92-2.43.64-3.94,3.03-5.04,5.29-3.21,6.66-4.91,14.05-4.94,21.45-.01,3.45.4,7.08,2.34,9.93"/>
        <path class="cls-8" d="m64.42,308c2.7-3.2,3.21-7.86,2.01-11.87-1.2-4.01-3.91-7.42-7.03-10.2-3.66-3.26-7.97-5.8-12.59-7.43-1.82-.64-3.74-1.15-5.66-.96-1.92.18-3.86,1.17-4.75,2.88-1.33,2.53-.05,5.59,1.32,8.09,2.42,4.41,5.19,8.62,8.27,12.59,2.48,3.2,5.32,6.35,9.1,7.79,3.78,1.44,7.7,1.27,9.7-1.35"/>
        <path class="cls-12" d="m71.06,356.4s.12-.57.22-1.61c.11-1.17.26-2.65.43-4.4.2-1.85.48-4.05.99-6.45.51-2.39,1.31-4.98,2.34-7.61,1.07-2.61,2.37-4.99,3.89-6.89,1.51-1.91,3.26-3.29,4.91-4.09,1.64-.81,3.12-1.14,4.14-1.29,1.03-.11,1.6-.19,1.6-.23,0-.05-.58-.05-1.63-.03-1.05.07-2.58.33-4.32,1.12-1.74.77-3.6,2.17-5.18,4.12-1.6,1.94-2.94,4.37-4.03,7.03-1.05,2.67-1.84,5.29-2.33,7.74-.49,2.44-.71,4.67-.86,6.53-.14,1.87-.19,3.38-.22,4.42-.02,1.05-.01,1.62.03,1.63Z"/>
        <path class="cls-12" d="m71.37,353.01s.04-.26.04-.75c0-.56,0-1.27,0-2.14,0-1.86,0-4.54.1-7.86.16-6.63.74-13.77,1.84-23.83,1.04-9.46,2.45-20.47,3.92-27.63.32-1.63.64-3.09.94-4.38.29-1.29.53-2.39.77-3.29.2-.84.37-1.53.5-2.08.11-.48.15-.73.13-.74-.02,0-.11.24-.26.7-.16.54-.37,1.22-.62,2.05-.28.89-.56,1.99-.88,3.27-.34,1.28-.69,2.74-1.04,4.36-1.46,6.49-3.01,15.55-4.13,25.64-1.1,10.08-1.6,19.26-1.65,25.91-.04,3.32.03,6.01.12,7.87.05.87.1,1.58.13,2.14.04.49.07.74.09.74Z"/>
        <path class="cls-12" d="m71.41,335.31s.04-.8-.02-2.23c-.08-1.44-.28-3.51-.68-6.05-.43-2.53-1.03-5.54-1.97-8.82-.41-1.5-1.37-5.08-3.69-10.43-3.06-7.25-7.21-13.18-10.83-16.86-.85-.97-1.79-1.68-2.55-2.37-.39-.33-.74-.66-1.09-.92-.35-.24-.68-.47-.99-.68-1.19-.81-1.86-1.24-1.88-1.2-.11.15,2.66,1.78,6.16,5.5,3.48,3.71,7.52,9.6,10.55,16.8,1.69,3.9,2.87,7.38,3.71,10.33.97,3.24,1.61,6.22,2.09,8.73.46,2.52.73,4.57.89,5.99.13,1.42.23,2.21.27,2.21Z"/>
      </g>
      <polygon class="cls-12" points="54.3 366.54 56.07 390.84 87.3 390.84 89.07 366.54 54.3 366.54"/>
      <rect class="cls-12" x="51.28" y="356.96" width="41.51" height="9.58"/>
      <polygon class="cls-6" points="51.28 389.91 51.28 392.57 53.23 392.57 92.11 392.57 92.11 389.91 51.28 389.91"/>
      <polygon class="cls-6" points="55.15 397.24 53.23 392.57 90.62 392.57 88.39 397.24 55.15 397.24"/>
      <path class="cls-7" d="m88.49,374.48s-.04.08-.15.22c-.12.16-.28.37-.47.62-.44.57-1.05,1.35-1.82,2.33l-.08.1-.08-.11c-1.14-1.58-2.67-3.69-4.47-6.18h.26c-1.33,1.88-2.81,3.98-4.4,6.23l-.14.2-.15-.18c-1.62-1.93-3.39-4.03-5.22-6.21h.3c-.09.11-.19.23-.29.36-1.62,2.03-3.18,3.99-4.67,5.85l-.16.19-.14-.2c-1.58-2.24-3.06-4.34-4.4-6.23h.26c-2.17,2.48-4.01,4.58-5.42,6.19l-.1.11-.07-.12c-.71-1.2-1.28-2.16-1.7-2.85-.18-.31-.32-.56-.44-.76-.1-.17-.14-.27-.13-.27,0,0,.07.08.18.24.13.19.29.43.48.73.43.68,1.03,1.62,1.78,2.8h-.17c1.39-1.64,3.2-3.76,5.33-6.27l.13-.16.12.17c1.35,1.88,2.84,3.97,4.44,6.2h-.3c1.48-1.87,3.04-3.83,4.65-5.87.1-.12.2-.25.29-.36l.15-.19.15.18c1.83,2.18,3.58,4.28,5.2,6.22h-.29c1.61-2.23,3.1-4.31,4.44-6.19l.13-.18.13.18c1.76,2.51,3.26,4.65,4.37,6.25h-.16c.8-.96,1.43-1.72,1.89-2.27.21-.24.37-.43.51-.59.12-.13.18-.19.19-.19Z"/>
      <path class="cls-6" d="m89.51,366.38c0,.11-7.82.19-17.47.19s-17.47-.09-17.47-.19,7.82-.19,17.47-.19,17.47.09,17.47.19Z"/>
      <path class="cls-12" d="m91.08,392.83c0,.11-8.5.19-18.99.19s-18.99-.09-18.99-.19,8.5-.19,18.99-.19,18.99.09,18.99.19Z"/>
    </g>
  </g>
</svg>