<?xml version="1.0" encoding="UTF-8"?>
<svg xmlns="http://www.w3.org/2000/svg" xmlns:xlink="http://www.w3.org/1999/xlink" viewBox="0 0 2669.66 2675.56">
  <defs>
    <style>
      .cls-1 {
        fill: #06688e;
      }

      .cls-2 {
        fill: url(#linear-gradient-2);
      }

      .cls-3 {
        fill: #25c1e5;
      }

      .cls-4 {
        fill: url(#Degradado_sin_nombre_7-3);
      }

      .cls-5, .cls-6, .cls-7 {
        fill: #fff;
      }

      .cls-8 {
        fill: url(#linear-gradient-17);
      }

      .cls-9 {
        fill: #ff7212;
      }

      .cls-10 {
        fill: url(#Degradado_sin_nombre_7-2);
      }

      .cls-11 {
        fill: url(#linear-gradient-15);
      }

      .cls-12 {
        fill: url(#linear-gradient-18);
      }

      .cls-13 {
        fill: url(#linear-gradient-14);
      }

      .cls-14 {
        fill: url(#linear-gradient-20);
      }

      .cls-15 {
        fill: url(#linear-gradient-6);
      }

      .cls-16 {
        isolation: isolate;
      }

      .cls-17 {
        fill: #f15a24;
      }

      .cls-18 {
        fill: url(#Degradado_sin_nombre_55);
      }

      .cls-19 {
        fill: #07b9ef;
      }

      .cls-20 {
        fill: url(#linear-gradient-11);
      }

      .cls-21, .cls-6, .cls-22, .cls-7 {
        mix-blend-mode: soft-light;
      }

      .cls-23 {
        clip-path: url(#clippath-1);
      }

      .cls-24 {
        fill: url(#linear-gradient-10);
      }

      .cls-6 {
        opacity: .74;
      }

      .cls-22 {
        opacity: .5;
      }

      .cls-25 {
        fill: url(#linear-gradient-23);
      }

      .cls-25, .cls-26, .cls-27, .cls-28 {
        opacity: .3;
      }

      .cls-25, .cls-26, .cls-27, .cls-28, .cls-29 {
        mix-blend-mode: multiply;
      }

      .cls-30 {
        fill: url(#linear-gradient-16);
      }

      .cls-26, .cls-31 {
        fill: #ff7900;
      }

      .cls-32 {
        fill: #f96500;
      }

      .cls-33 {
        fill: url(#linear-gradient-21);
      }

      .cls-34 {
        fill: url(#linear-gradient-5);
      }

      .cls-35 {
        clip-path: url(#clippath);
      }

      .cls-28 {
        fill: #f46431;
      }

      .cls-36 {
        fill: url(#linear-gradient-7);
      }

      .cls-37 {
        fill: url(#linear-gradient-24);
      }

      .cls-38 {
        fill: #f4f7fa;
      }

      .cls-39 {
        fill: url(#linear-gradient-9);
      }

      .cls-40 {
        fill: url(#linear-gradient-22);
      }

      .cls-41 {
        fill: url(#linear-gradient-3);
      }

      .cls-42 {
        fill: url(#linear-gradient);
      }

      .cls-29 {
        fill: #ed1c24;
        opacity: .2;
      }

      .cls-43 {
        fill: url(#linear-gradient-19);
      }

      .cls-44 {
        fill: url(#linear-gradient-4);
      }

      .cls-45 {
        fill: url(#Degradado_sin_nombre_7);
      }

      .cls-7 {
        opacity: .6;
      }

      .cls-46 {
        fill: url(#linear-gradient-8);
      }

      .cls-47 {
        fill: #f9d5b7;
      }

      .cls-48 {
        fill: url(#linear-gradient-12);
      }

      .cls-49 {
        fill: url(#linear-gradient-13);
      }
    </style>
    <clipPath id="clippath">
      <path class="cls-3" d="m1513.05,1779.13c-85.99-80.69-199.45-211.74-250.79-397.04-67.33-243.02,31.34-365.82,20.21-777.26-7.04-260.15-14.57-441.63-145.72-538.7-102.78-76.07-269.17-91.19-370.15-20.68-83.96,58.63-132.54,183.32-147.36,272.32-12.08,72.54-2.38,125.21-44.19,163.42-42.73,39.05-88.86,16.94-128.82,45.87-81.03,58.66-34.11,252.95-26.53,284.36,84.36,349.31,406.22,584.9,547.85,685.97,117.11,83.57,298.27,194.93,545.5,281.76Z"/>
    </clipPath>
    <clipPath id="clippath-1">
      <path class="cls-9" d="m1051.2,1773.43c-186.17,1.59-423.57-22.94-651.08-125.36-58.06-26.14-416.73-187.6-374.69-350.9,14.81-57.52,66.83-66.69,87.97-143.26,25.05-90.72-31.95-135.91-71.62-248.85-23.67-67.39-92.92-264.61,25.11-374.08,70.53-65.42,204.75-96.55,307-72.87,149.98,34.73,201.78,180.56,285.16,428.83,73.91,220.08,55.12,274.17,111.11,431.72,41.55,116.93,119.69,277.88,281.04,454.76Z"/>
    </clipPath>
    <linearGradient id="linear-gradient" x1="495.04" y1="1387.64" x2="1960.67" y2="1387.64" gradientUnits="userSpaceOnUse">
      <stop offset="0" stop-color="#aa80f9"/>
      <stop offset="1" stop-color="#6165d7"/>
    </linearGradient>
    <linearGradient id="linear-gradient-2" x1="855.56" y1="480.06" x2="1759.82" y2="480.06" gradientUnits="userSpaceOnUse">
      <stop offset="0" stop-color="#311944"/>
      <stop offset="1" stop-color="#893976"/>
    </linearGradient>
    <linearGradient id="linear-gradient-3" x1="1489.11" y1="773.3" x2="1610.03" y2="773.3" xlink:href="#linear-gradient-2"/>
    <linearGradient id="linear-gradient-4" x1="1448.37" y1="14.34" x2="1631.59" y2="1213.16" gradientUnits="userSpaceOnUse">
      <stop offset="0" stop-color="#ff9085"/>
      <stop offset="1" stop-color="#fb6fbb"/>
    </linearGradient>
    <linearGradient id="Degradado_sin_nombre_7" data-name="Degradado sin nombre 7" x1="2057.41" y1="1685.89" x2="2476.12" y2="1784.8" gradientUnits="userSpaceOnUse">
      <stop offset="0" stop-color="#fff" stop-opacity=".6"/>
      <stop offset="1" stop-color="#f15a24"/>
    </linearGradient>
    <linearGradient id="linear-gradient-5" x1="-3671.57" y1="1595.31" x2="-3392.41" y2="2113.06" gradientTransform="translate(-1351.97) rotate(-180) scale(1 -1)" gradientUnits="userSpaceOnUse">
      <stop offset="0" stop-color="#ffc444"/>
      <stop offset="1" stop-color="#f36f56"/>
    </linearGradient>
    <linearGradient id="linear-gradient-6" x1="-3753.39" y1="1629.52" x2="-3479.83" y2="2178.49" xlink:href="#linear-gradient-5"/>
    <linearGradient id="Degradado_sin_nombre_7-2" data-name="Degradado sin nombre 7" x1="2055.95" y1="721.66" x2="2381.57" y2="798.58" xlink:href="#Degradado_sin_nombre_7"/>
    <linearGradient id="linear-gradient-7" x1="-3679.3" y1="633.26" x2="-3400.15" y2="1151.01" xlink:href="#linear-gradient-5"/>
    <linearGradient id="linear-gradient-8" x1="-3761.13" y1="667.46" x2="-3487.57" y2="1216.43" xlink:href="#linear-gradient-5"/>
    <linearGradient id="Degradado_sin_nombre_7-3" data-name="Degradado sin nombre 7" x1="2186.3" y1="1186.14" x2="2549.24" y2="1271.87" xlink:href="#Degradado_sin_nombre_7"/>
    <linearGradient id="linear-gradient-9" x1="-3840.76" y1="1087.6" x2="-3529.61" y2="1664.69" xlink:href="#linear-gradient-5"/>
    <linearGradient id="linear-gradient-10" x1="-3931.96" y1="1125.73" x2="-3627.05" y2="1737.61" xlink:href="#linear-gradient-5"/>
    <linearGradient id="linear-gradient-11" x1="1506.72" y1="2639.93" x2="1589.19" y2="2639.93" gradientTransform="translate(2349.41) rotate(-180) scale(1 -1)" xlink:href="#linear-gradient"/>
    <linearGradient id="linear-gradient-12" x1="1559.94" y1="2610.5" x2="1588.63" y2="2610.5" gradientTransform="translate(2349.41) rotate(-180) scale(1 -1)" gradientUnits="userSpaceOnUse">
      <stop offset="0" stop-color="#f36f56"/>
      <stop offset="1" stop-color="#ffc444"/>
    </linearGradient>
    <linearGradient id="linear-gradient-13" x1="1863.31" y1="2631.02" x2="1927.34" y2="2631.02" gradientTransform="translate(2349.41) rotate(-180) scale(1 -1)" xlink:href="#linear-gradient"/>
    <linearGradient id="linear-gradient-14" x1="1851.31" y1="2592.8" x2="1908.38" y2="2592.8" xlink:href="#linear-gradient-12"/>
    <linearGradient id="linear-gradient-15" x1="2071.79" y1="1916.9" x2="1759.46" y2="2101.36" gradientTransform="translate(2349.41) rotate(-180) scale(1 -1)" xlink:href="#linear-gradient-2"/>
    <linearGradient id="linear-gradient-16" x1="2127.75" y1="2011.67" x2="1815.43" y2="2196.12" gradientTransform="translate(2349.41) rotate(-180) scale(1 -1)" xlink:href="#linear-gradient-2"/>
    <linearGradient id="Degradado_sin_nombre_55" data-name="Degradado sin nombre 55" x1="1888.34" y1="1643.03" x2="1754.2" y2="1453" gradientTransform="translate(2349.41) rotate(-180) scale(1 -1)" gradientUnits="userSpaceOnUse">
      <stop offset="0" stop-color="#230a0d"/>
      <stop offset="1" stop-color="#1d1d1b"/>
    </linearGradient>
    <linearGradient id="linear-gradient-17" x1="1629.54" y1="1259.14" x2="1740.26" y2="1936.23" gradientTransform="translate(2349.41) rotate(-180) scale(1 -1)" xlink:href="#linear-gradient-4"/>
    <linearGradient id="linear-gradient-18" x1="1743.57" y1="1240.49" x2="1854.29" y2="1917.59" gradientTransform="translate(2349.41) rotate(-180) scale(1 -1)" xlink:href="#linear-gradient-4"/>
    <linearGradient id="linear-gradient-19" x1="1720.67" y1="1244.24" x2="1831.39" y2="1921.33" gradientTransform="translate(2349.41) rotate(-180) scale(1 -1)" xlink:href="#linear-gradient-4"/>
    <linearGradient id="linear-gradient-20" x1="1503.65" y1="1362.11" x2="1154.27" y2="2107.73" gradientTransform="translate(2349.41) rotate(-180) scale(1 -1)" gradientUnits="userSpaceOnUse">
      <stop offset="0" stop-color="#444b8c"/>
      <stop offset="1" stop-color="#26264f"/>
    </linearGradient>
    <linearGradient id="linear-gradient-21" x1="875.14" y1="942.23" x2="852.79" y2="1001.85" gradientTransform="translate(1001.14 -53.3) rotate(149.69) scale(1 -1)" xlink:href="#linear-gradient-12"/>
    <linearGradient id="linear-gradient-22" x1="867.53" y1="866.77" x2="791.95" y2="960.45" gradientTransform="translate(1001.14 -53.3) rotate(149.69) scale(1 -1)" xlink:href="#linear-gradient-12"/>
    <linearGradient id="linear-gradient-23" x1="1247.8" y1="1470.69" x2="1621.68" y2="1470.69" xlink:href="#linear-gradient-20"/>
    <linearGradient id="linear-gradient-24" x1="1302.42" y1="1541.05" x2="1284.84" y2="1453.97" xlink:href="#linear-gradient-12"/>
  </defs>
  <g class="cls-16">
    <g id="Capa_2" data-name="Capa 2">
      <g id="Illustration">
        <path class="cls-28" d="m2354.36,559.5l-52.95,3.57c-6.08-23.63-14.06-46.45-23.97-68.21l43.93-29.48c11.99-8.04,15.06-24.32,6.88-36.36l-51.24-75.38c-8.2-12.07-24.6-15.35-36.62-7.33l-44.52,29.71c-16.91-17.32-35.27-33.21-54.92-47.44l23.47-48.2c6.33-13,.79-28.78-12.38-35.26l-82.49-40.59c-13.22-6.5-29.09-1.23-35.46,11.79l-23.64,48.35c-23.12-6.73-47.04-11.44-71.53-14.16l-4.11-54.23c-1.1-14.56-13.92-25.66-28.63-24.79l-92.21,5.44c-14.78.87-25.86,13.42-24.75,28.01l4.13,54.39c-24.01,5.68-47.21,13.28-69.34,22.81l-31.1-45.34c-8.39-12.23-25.17-15.59-37.48-7.5l-77.17,50.68c-12.36,8.12-15.56,24.64-7.13,36.88l31.2,45.35c-17.72,16.75-33.91,35.01-48.42,54.56l-49.93-24.12c-13.52-6.53-29.77-1.13-36.3,12.07l-40.85,82.65c-6.54,13.23-.85,29.24,12.71,35.74l49.56,23.79c-6.76,23.23-11.4,47.28-13.96,71.89l-54.88,3.7c-15.02,1.01-26.3,13.77-25.18,28.5l6.99,92.1c1.12,14.73,14.21,25.81,29.23,24.75l54.43-3.83c6.14,24.15,14.3,47.45,24.43,69.65l-44.78,29.88c-12.43,8.3-15.65,24.92-7.18,37.11l52.9,76.19c8.45,12.17,25.35,15.29,37.74,6.97l44.43-29.81c17.43,17.65,36.42,33.74,56.69,48.11l-23.22,47.5c-6.49,13.27-.83,29.18,12.63,35.52l84.02,39.57c13.41,6.32,29.51.69,35.96-12.56l22.91-47.05c23.71,6.57,48.22,10.99,73.26,13.36l3.95,52.01c1.11,14.6,13.97,25.49,28.73,24.33l92.07-7.26c14.69-1.16,25.7-13.9,24.59-28.46l-3.94-51.86c24.22-6.15,47.57-14.25,69.76-24.3l29.39,42.72c8.26,12.01,24.77,15.06,36.87,6.81l75.51-51.48c12.05-8.22,15.15-24.6,6.92-36.59l-29.48-42.98c17.46-17.03,33.39-35.52,47.58-55.3l47.11,22.61c13.11,6.29,28.84.8,35.13-12.27l39.32-81.63c6.28-13.04.78-28.72-12.3-35.04l-47.21-22.81c6.43-23.02,10.81-46.82,13.12-71.16l52.52-3.7c14.45-1.02,25.27-13.54,24.18-27.98l-6.85-90.27c-1.1-14.44-13.7-25.35-28.15-24.37Zm-477.3-162.21c148.4-9.43,277.05,101.68,288.16,248.11,11.11,146.43-99.43,274.03-247.7,285.06-149.17,11.1-279.87-99.87-291.11-247.91-11.23-148.04,101.35-275.78,250.65-285.26Z"/>
        <g>
          <path class="cls-3" d="m1513.05,1779.13c-85.99-80.69-199.45-211.74-250.79-397.04-67.33-243.02,31.34-365.82,20.21-777.26-7.04-260.15-14.57-441.63-145.72-538.7-102.78-76.07-269.17-91.19-370.15-20.68-83.96,58.63-132.54,183.32-147.36,272.32-12.08,72.54-2.38,125.21-44.19,163.42-42.73,39.05-88.86,16.94-128.82,45.87-81.03,58.66-34.11,252.95-26.53,284.36,84.36,349.31,406.22,584.9,547.85,685.97,117.11,83.57,298.27,194.93,545.5,281.76Z"/>
          <g class="cls-35">
            <g class="cls-22">
              <path class="cls-3" d="m1611.38,1843.47c-149.91-56.96-278.94-124.92-383.51-201.98-154.78-114.06-251.18-245.1-286.53-389.47-27.64-112.91-17.39-235.27-4.41-390.18,10.76-128.42,29.95-218.38,46.89-297.76,21.95-102.87,39.28-184.12,27.25-301.6-12.22-119.36-51.6-238.05-117.03-352.78l5.85-3.34c65.9,115.56,105.56,235.14,117.88,355.44,12.14,118.54-5.29,200.25-27.36,303.69-16.89,79.18-36.04,168.92-46.76,296.91-13.44,160.34-23.15,276.18,4.24,388.02,34.96,142.79,130.51,272.55,283.98,385.65,104.07,76.69,232.56,144.36,381.9,201.1l-2.4,6.3Z"/>
              <path class="cls-3" d="m948.37,771.82l-1.09-3.65c-69.21-232.33-193.5-377.69-285.57-458.72-99.68-87.72-183.91-120.92-184.75-121.24l2.44-6.29c.85.33,86.2,33.97,186.76,122.47,92.24,81.18,216.58,226.42,286.46,458.12,16.71-7.98,91.17-46.03,165.68-122.77,77.6-79.94,171.16-219.46,176.14-430.23l6.74.16c-5.04,213.08-99.71,354.15-178.25,434.97-85.09,87.57-170.23,125.29-171.08,125.66l-3.49,1.52Z"/>
              <path class="cls-3" d="m928.92,1118.45l-2.35-.69c-113-33.16-241.26-163.23-381.22-386.59-104.04-166.03-175.93-324.42-176.65-326l6.14-2.77c.71,1.58,72.45,159.61,176.26,325.26,95.06,151.69,237.06,340.79,375.04,382.94,11.48-16.49,91.69-129.94,192.99-229.34,109.53-107.47,364.49-144.59,367.05-144.95l.94,6.67c-2.54.36-255.33,37.17-363.28,143.09-108.5,106.45-192.71,229.13-193.55,230.36l-1.38,2.02Z"/>
              <path class="cls-3" d="m1185.93,1609.96l-6.67-.79c-1.26-.15-128.33-15.72-294.29-73.58-153.21-53.42-371.93-154.86-543.87-334.76L9.15,853.52l4.87-4.66,331.96,347.32c171.01,178.93,388.71,279.87,541.22,333.05,143.76,50.12,258.06,68.36,286.21,72.35-35.56-64.37-48.41-131.56-38.19-199.81,8.41-56.17,32.37-113.13,71.24-169.29,66.01-95.39,153.49-156.33,154.36-156.93l3.83,5.55c-.87.6-87.46,60.94-152.75,155.37-38.23,55.28-61.79,111.27-70.03,166.4-10.27,68.77,3.43,136.49,40.72,201.28l3.35,5.82Z"/>
            </g>
          </g>
        </g>
        <g>
          <path class="cls-9" d="m1051.2,1773.43c-186.17,1.59-423.57-22.94-651.08-125.36-58.06-26.14-416.73-187.6-374.69-350.9,14.81-57.52,66.83-66.69,87.97-143.26,25.05-90.72-31.95-135.91-71.62-248.85-23.67-67.39-92.92-264.61,25.11-374.08,70.53-65.42,204.75-96.55,307-72.87,149.98,34.73,201.78,180.56,285.16,428.83,73.91,220.08,55.12,274.17,111.11,431.72,41.55,116.93,119.69,277.88,281.04,454.76Z"/>
          <g class="cls-23">
            <g class="cls-22">
              <path class="cls-9" d="m1516.98,1873.22c-88.94,0-176.14-10.17-261.16-30.51-251.33-60.16-469.44-210.17-648.26-445.85-185.89-245-282.78-521.28-331.33-709.92-33.82-131.42-27.64-276.89,18.38-432.36l6.46,1.91c-45.67,154.29-51.83,298.55-18.32,428.77,48.39,188.03,144.95,463.42,330.17,707.52,177.85,234.4,394.68,383.57,644.46,443.36,187.51,44.88,385.91,39.93,589.71-14.73l1.74,6.51c-112.54,30.18-223.49,45.28-331.87,45.29Z"/>
              <path class="cls-9" d="m410.06,1059.11l-2.55-1.64C5.72,798.63,9.29,500.13,19.95,414.8c.21-1.69.36-2.78.37-3.25l6.74-.05c0,.65-.1,1.57-.42,4.13-10.52,84.15-13.9,378.19,381.94,634.5,9.64-12.53,54.72-73.41,91.88-161.39,38.35-90.82,75.87-229.98,36.78-377.13l6.51-1.73c39.59,149.07,1.64,289.83-37.17,381.67-42.01,99.41-94.1,164.56-94.63,165.2l-1.9,2.36Z"/>
              <path class="cls-9" d="m454.84,1405.84c-159.98,0-271.8-41.73-342.47-82.04-51.79-29.54-87.48-61.47-108.3-83.06-22.64-23.47-32.86-39.75-33.29-40.43l5.72-3.56c.41.65,41.72,65.71,139.59,121.42,162.98,92.78,355.4,89.12,488.76,69.5,9.44-21.02,104.42-241.36,81.74-536.15l-24.09-313.1,6.72-.52,24.09,313.1c23.88,310.4-82.03,538.9-83.1,541.17l-.77,1.63-1.78.26c-55.17,8.21-106.05,11.78-152.82,11.78Z"/>
            </g>
          </g>
        </g>
        <g>
          <g>
            <path class="cls-32" d="m1538.54,2433.71c-33.07-10.97-57.78-39.03-64.76-73.53l-48.13-238.21-411.72,14.62-50.67,248.17c-7.1,34.76,21.31,69.62,54.03,82.42l172.26,67.4c32.04,12.54,66.48,17.53,100.71,14.6l364.04-31.14c10.64-.91,19.18-9.28,20.42-20.01,1.24-10.73,8.69-22.78-1.45-26.15l-134.71-38.17Z"/>
            <path class="cls-32" d="m1542.61,2419.22c-33.04-10.83-57.73-38.54-64.69-72.6l-48.08-235.22-401.69,14.45-50.62,245.05c-7.09,34.32,11.67,68.73,44.35,81.37l172.08,66.55c32.01,12.38,66.41,17.31,100.61,14.42l363.67-30.75c10.63-.9,19.16-9.16,20.4-19.76,1.24-10.6-5.16-20.6-15.3-23.92l-120.73-39.58Z"/>
          </g>
          <g>
            <g>
              <path class="cls-31" d="m172.63,2280.3c-44.65,2.66-81.18-26.3-81.18-64.58V836.07c0-38.28,36.53-67.84,81.18-65.9l2064.82,89.47c32.78,1.42,59.32,29.06,59.32,61.61v1173.38c0,32.56-26.54,60.62-59.32,62.58l-2064.82,123.09Z"/>
              <path class="cls-31" d="m191.18,2280.3c-44.65,2.66-81.18-26.3-81.18-64.58V836.07c0-38.28,36.53-67.84,81.18-65.9l2064.82,89.47c32.78,1.42,59.32,29.06,59.32,61.61v1173.38c0,32.56-26.54,60.62-59.32,62.58l-2064.82,123.09Z"/>
              <path class="cls-26" d="m2256.01,887.25L191.19,802.31c-23.87-.98-43.28,14.79-43.28,35.23v1376.1c0,20.44,19.41,35.9,43.28,34.52l2064.82-118.57c17.57-1.01,31.78-15.98,31.78-33.45V920.19c0-17.47-14.21-32.21-31.78-32.93Z"/>
              <path class="cls-47" d="m191.18,2130.96c-9.29.46-16.86-5.64-16.86-13.59V838.56c0-7.95,7.57-14.12,16.86-13.75l2064.82,81.78c6.85.27,12.42,6.04,12.42,12.86v1096.47c0,6.82-5.57,12.64-12.42,12.98l-2064.82,102.07Z"/>
            </g>
            <path class="cls-7" d="m2021.89,2071.81c-173.71-107.45-52.38-412.98-247.46-566.48-196.68-154.76-473.43,35.05-611.2-125.22-102.58-119.34,17.45-263.44-80.5-375.67-153.61-176-546.83,66.06-727.48-107.33-25.65-24.62-51.53-61.97-66.27-121.89l-116.34-5.04c-44.65-1.93-81.18,27.63-81.18,65.9v1379.64c0,38.28,36.53,67.24,81.18,64.58l2064.82-123.09c32.78-1.95,59.32-30.02,59.32-62.58v-20.86c-137.1,46.52-220.92,31.42-274.88-1.96Z"/>
          </g>
        </g>
        <g>
          <path class="cls-19" d="m1973.7,779.85l-1493.74-51.74c-50.2-1.74-91.07,38.51-91.07,89.9v1114.38c0,51.4,40.87,91.95,91.07,90.6l1493.74-40.4c43.11-1.17,77.92-40.48,77.92-87.83V868.27c0-47.34-34.81-86.93-77.92-88.42Z"/>
          <path class="cls-6" d="m408.29,1963.55V896.42c0-47.56,37.77-84.86,84.19-83.32l1452.2,48.26c40.03,1.33,72.37,38.01,72.37,81.94v985.58c0,43.93-32.33,80.36-72.37,81.39l-1452.2,37.23c-46.41,1.19-84.19-36.4-84.19-83.96Z"/>
          <path class="cls-1" d="m1973.7,779.85l-1493.74-51.74c-50.2-1.74-91.07,38.51-91.07,89.9v66.76l1662.73,44.99v-61.49c0-47.34-34.81-86.93-77.92-88.42Z"/>
          <path class="cls-5" d="m550.8,813.96c0,16.69-13.21,29.84-29.52,29.36-16.34-.48-29.6-14.43-29.6-31.17s13.26-29.88,29.6-29.36c16.31.52,29.52,14.48,29.52,31.17Z"/>
          <path class="cls-5" d="m653.82,817.12c0,16.61-13.08,29.69-29.23,29.22-16.18-.47-29.31-14.36-29.31-31.01s13.13-29.74,29.31-29.22c16.15.52,29.23,14.4,29.23,31.01Z"/>
          <path class="cls-5" d="m755.83,820.24c0,16.53-12.95,29.55-28.94,29.08-16.02-.47-29.02-14.28-29.02-30.86s13-29.59,29.02-29.08c15.99.51,28.94,14.33,28.94,30.86Z"/>
          <polygon class="cls-42" points="1960.67 1597.23 495.04 1607.9 495.04 1167.39 1960.67 1187.5 1960.67 1597.23"/>
          <polygon class="cls-5" points="1960.67 1700.7 495.04 1719.13 495.04 1671.83 1960.67 1656.7 1960.67 1700.7"/>
          <polygon class="cls-5" points="1960.67 1808.63 495.04 1835.17 495.04 1787.87 1960.67 1764.63 1960.67 1808.63"/>
          <g>
            <polygon class="cls-5" points="1284.78 1071.18 495.04 1056.15 495.04 1103.46 1284.78 1116.7 1284.78 1071.18"/>
            <polygon class="cls-5" points="1877.36 1082.45 1877.36 1126.64 1960.67 1128.04 1960.67 1084.04 1877.36 1082.45"/>
          </g>
          <g class="cls-22">
            <path class="cls-5" d="m1393.82,1349.16c-174.43-258.65-476.54-176.55-667.8-462.58-34.5-51.6-57.92-104.1-73.98-152.51l-172.09-5.96c-50.2-1.74-91.07,38.51-91.07,89.9v1114.39c0,51.39,40.87,91.95,91.07,90.6l1137.2-30.76c-33.93-49.67-65.25-105.21-91.77-167.29-101.7-238.14-26.38-319.8-131.57-475.79Z"/>
          </g>
          <g class="cls-21">
            <polygon class="cls-5" points="700.38 1277.61 521.24 1275.95 521.24 1223.63 700.38 1225.73 700.38 1277.61"/>
            <polygon class="cls-5" points="1654.39 1286.48 814.66 1278.68 814.66 1227.06 1654.39 1236.89 1654.39 1286.48"/>
            <polygon class="cls-5" points="989.03 1367.74 814.66 1366.84 814.66 1315.23 989.03 1316.55 989.03 1367.74"/>
            <polygon class="cls-5" points="1918.24 1372.57 1100.28 1368.32 1100.28 1317.4 1918.24 1323.61 1918.24 1372.57"/>
            <polygon class="cls-5" points="989.03 1455.19 814.66 1455 814.66 1403.39 989.03 1404 989.03 1455.19"/>
            <polygon class="cls-5" points="1918.24 1456.2 1100.28 1455.31 1100.28 1404.39 1918.24 1407.24 1918.24 1456.2"/>
            <polygon class="cls-5" points="700.38 1543.51 521.24 1544.05 521.24 1491.73 700.38 1491.62 700.38 1543.51"/>
            <polygon class="cls-5" points="1654.39 1540.63 814.66 1543.17 814.66 1491.55 1654.39 1491.03 1654.39 1540.63"/>
          </g>
        </g>
        <g>
          <path class="cls-2" d="m1759.82,329.63l-.37,317.98-.07,51.06c-.03,29.94-20.4,22.65-48.07,22.11l-101.86,1.22-13.29.17-91.87,1.1-15.12.19-574.67,6.88-3.76.05c-30.31-.7-55.12-26.97-55.12-58.39l-.07-387.45c0-30.85,23.9-55.47,53.43-54.82l1.73.04,21.9,1.21,777,41.86c27.67,1.23,50.25,26.81,50.21,56.78Z"/>
          <polygon class="cls-41" points="1610.03 702.56 1596.16 722.17 1577.17 748.98 1504.19 852.05 1489.49 845.05 1489.25 746.61 1489.18 723.46 1489.11 694.55 1504.33 695.55 1610.03 702.56"/>
          <path class="cls-17" d="m1776.11,328.54l-.41,318.7-.07,52.21c-.03,30.08-22.75,54.17-50.52,53.52l-137.72-3.72-10.23-.27-72.88-1.95-15.05-.42-565.79-15.28c-3.05-.07-6.03-.38-8.95-.99-26.17-5.01-46.34-29.27-46.34-57.65l-.07-389.25c0-26.44,17.42-48.02,40.88-53.63,4.61-1.12,9.46-1.59,14.44-1.37l9.22.51,793.04,42.57c27.78,1.23,50.45,26.89,50.42,57Z"/>
          <polygon class="cls-44" points="1625.69 701.92 1609.43 722 1587.39 749.25 1504.17 852.06 1504.25 747.05 1504.25 723.29 1504.25 695.57 1504.25 693.94 1625.69 701.92"/>
        </g>
        <g>
          <path class="cls-5" d="m1252.68,573.43l-144.57-81.08v-24.61l144.57-75.22v40.31l-98.83,47.89,98.83,52.56v40.14Z"/>
          <path class="cls-5" d="m1395.02,372.67l-74.71,237.13-38.72-1.3,75.7-238.67,37.73,2.84Z"/>
          <path class="cls-5" d="m1422.01,541.12l90.25-40.95-90.25-56.61v-39.16l130.1,88.21v22.8l-130.1,64.7v-38.99Z"/>
        </g>
        <path class="cls-29" d="m1775.7,647.24l-.07,52.21c-.03,30.08-22.75,54.17-50.52,53.52l-137.72-3.72-83.2,102.8-14.71-6.99-.24-98.44-565.79-15.28c-3.05-.07-6.03-.38-8.95-.99l-3.76.05c-30.31-.7-55.12-26.97-55.12-58.39l-.07-387.41c0-30.85,23.9-55.13,53.43-54.77,4.61-1.12,9.46-1.59,14.44-1.37l9.22.51c-.03.68-.03,1.36-.03,2.07-.24,75.97,28.21,183.97,188.47,196.68,250.35,19.84,314.9,75.55,408.99,186,61.46,72.13,155.84,38.02,229.37,33.9,5.54-.31,10.98-.46,16.25-.37Z"/>
        <g>
          <path class="cls-45" d="m2263.91,1563.14c107.24,3.29,197.3,68.77,214.85,151.64.02.11.04.22.07.33.95,4.54,1.68,9.12,2.19,13.76.03.31.07.61.1.92.22,2.16.39,4.34.52,6.52.02.4.04.79.06,1.19.11,2.23.18,4.47.18,6.72,0,96.31-98.3,169.3-217.96,163.11-3.18-.17-6.35-.39-9.49-.67-.31-.03-.62-.05-.93-.08-2.98-.27-5.94-.59-8.88-.95-.46-.06-.92-.11-1.37-.17-2.85-.36-5.68-.78-8.49-1.23-.53-.08-1.06-.17-1.59-.26-2.76-.46-5.51-.96-8.23-1.5-.55-.11-1.1-.23-1.65-.34-2.71-.56-5.41-1.15-8.08-1.78-.52-.12-1.03-.25-1.55-.38-2.65-.65-5.29-1.33-7.91-2.05-.47-.13-.93-.27-1.4-.4-2.35-.67-4.69-1.37-7-2.09-.59-.19-1.18-.36-1.77-.55-2.35-.76-4.68-1.56-6.99-2.37-.5-.18-1.01-.33-1.51-.51,0,0,.01-.01.02-.02-79.54-28.69-135.47-93.27-135.47-165.48,0-93.81,94.36-166.96,212.3-163.34Z"/>
          <path class="cls-34" d="m2028.91,1726.48c0,93.81,94.36,174.74,212.3,180.85,119.66,6.19,217.96-66.8,217.96-163.11s-98.3-177.41-217.96-181.08c-117.93-3.62-212.3,69.53-212.3,163.34Z"/>
          <g>
            <polygon class="cls-5" points="2336.58 1675.08 2336.58 1812.52 2218.74 1865.82 2218.13 1864.87 2122.11 1795.73 2122.94 1682.42 2219.83 1618.22 2219.68 1617.35 2336.58 1675.08"/>
            <polygon class="cls-38" points="2219.9 1618.17 2218.95 1864.97 2122.2 1795.73 2122.99 1682.42 2219.9 1618.17"/>
          </g>
          <g class="cls-27">
            <path class="cls-15" d="m2189.15,1860.94c25.82-49.47-.28-98.03,34.65-129.34,35.64-31.94,82.19,1.02,132.59-24.28,19.57-9.82,41.38-29.27,57.62-70.47,28.3,30.3,45.15,67.59,45.15,107.37,0,96.31-98.3,169.3-217.96,163.11-27.17-1.41-53.07-6.78-76.85-15.35,11.72-10.18,19.48-20.87,24.79-31.04Z"/>
          </g>
        </g>
        <g>
          <path class="cls-10" d="m2271.65,601.09c107.24,3.29,197.3,68.76,214.85,151.64.02.11.04.22.07.33.95,4.54,1.68,9.12,2.19,13.76.03.31.07.61.1.92.22,2.16.39,4.34.52,6.52.02.4.04.79.06,1.19.11,2.23.18,4.47.18,6.72,0,96.31-98.3,169.3-217.96,163.11-3.18-.17-6.35-.39-9.49-.67-.31-.03-.62-.05-.93-.08-2.98-.27-5.94-.59-8.88-.95-.46-.06-.92-.11-1.37-.17-2.85-.37-5.68-.78-8.49-1.23-.53-.08-1.06-.17-1.59-.26-2.76-.46-5.51-.96-8.23-1.5-.55-.11-1.1-.23-1.65-.34-2.71-.56-5.41-1.15-8.08-1.78-.52-.12-1.03-.25-1.55-.38-2.65-.65-5.29-1.33-7.91-2.05-.47-.13-.93-.27-1.4-.4-2.35-.67-4.69-1.37-7.01-2.09-.59-.19-1.18-.36-1.77-.55-2.35-.76-4.68-1.56-6.99-2.37-.5-.18-1.01-.33-1.51-.51,0,0,.01-.01.02-.02-79.54-28.69-135.47-93.27-135.47-165.48,0-93.81,94.36-166.96,212.3-163.34Z"/>
          <path class="cls-36" d="m2036.65,764.43c0,93.81,94.36,174.74,212.3,180.85,119.66,6.19,217.96-66.8,217.96-163.11s-98.3-177.41-217.96-181.08c-117.93-3.62-212.3,69.53-212.3,163.34Z"/>
          <g class="cls-27">
            <path class="cls-46" d="m2196.89,898.88c25.82-49.47-.28-98.03,34.65-129.34,35.64-31.94,82.19,1.02,132.59-24.28,19.57-9.82,41.38-29.27,57.62-70.47,28.3,30.3,45.15,67.59,45.15,107.37,0,96.31-98.3,169.3-217.96,163.11-27.17-1.41-53.07-6.78-76.85-15.35,11.72-10.18,19.48-20.87,24.79-31.04Z"/>
          </g>
          <g>
            <g>
              <path class="cls-38" d="m2233.45,889.47c-59.61-2.43-107.18-53.41-107.18-113.68s47.57-109.25,107.18-109.18c60.9.07,111.43,51.11,111.43,113.77s-50.53,111.57-111.43,109.09Zm0-213.2c-54.5-.16-98.06,44.57-98.06,99.71s43.56,101.7,98.06,103.84c55.57,2.17,101.6-42.51,101.6-99.64s-46.03-103.75-101.6-103.91Z"/>
              <path class="cls-38" d="m2288.82,779.21c0,31.19-24.92,55.69-55.37,54.75-30.12-.93-54.3-26.47-54.3-57.06s24.18-55.11,54.3-54.77c30.45.34,55.37,25.89,55.37,57.08Z"/>
            </g>
            <path class="cls-38" d="m2309.41,683.83c0,13.28-10.68,23.96-23.81,23.85-13.06-.11-23.61-10.88-23.61-24.05s10.55-23.85,23.61-23.85,23.81,10.77,23.81,24.05Z"/>
          </g>
        </g>
        <g>
          <path class="cls-4" d="m2426.72,1051.74c119.53,3.67,219.91,76.65,239.48,169.03.03.12.05.24.07.36,1.06,5.06,1.87,10.17,2.44,15.33.04.34.08.68.11,1.02.25,2.41.44,4.84.58,7.27.02.44.04.88.06,1.33.12,2.49.2,4.98.2,7.49,0,107.35-109.57,188.71-242.94,181.8-3.55-.18-7.07-.44-10.58-.74-.34-.03-.69-.05-1.03-.08-3.32-.3-6.62-.66-9.9-1.06-.51-.06-1.02-.12-1.53-.19-3.18-.41-6.33-.87-9.47-1.37-.59-.09-1.18-.19-1.77-.29-3.08-.51-6.14-1.07-9.17-1.67-.62-.12-1.23-.25-1.84-.38-3.02-.62-6.03-1.28-9-1.99-.58-.14-1.15-.28-1.72-.43-2.96-.72-5.9-1.48-8.81-2.29-.52-.15-1.04-.3-1.56-.45-2.62-.74-5.22-1.52-7.81-2.34-.65-.21-1.32-.4-1.97-.61-2.62-.84-5.21-1.73-7.79-2.65-.56-.2-1.13-.37-1.68-.57,0,0,.01-.01.02-.02-88.66-31.98-150.99-103.96-150.99-184.45,0-104.56,105.18-186.1,236.63-182.06Z"/>
          <path class="cls-39" d="m2164.79,1233.8c0,104.56,105.18,194.77,236.63,201.57,133.38,6.9,242.94-74.45,242.94-181.8s-109.57-197.74-242.94-201.83c-131.45-4.03-236.63,77.5-236.63,182.06Z"/>
          <g class="cls-27">
            <path class="cls-24" d="m2343.39,1383.67c28.78-55.14-.31-109.27,38.62-144.16,39.73-35.6,91.61,1.13,147.78-27.06,21.81-10.95,46.12-32.62,64.23-78.55,31.54,33.77,50.33,75.33,50.33,119.68,0,107.35-109.57,188.71-242.94,181.8-30.28-1.57-59.16-7.56-85.66-17.11,13.06-11.34,21.71-23.26,27.63-34.6Z"/>
          </g>
          <g>
            <path class="cls-5" d="m2413.54,1245.19c.02,10.84-8.6,19.46-19.24,19.24-10.6-.22-19.19-9.13-19.2-19.91-.02-10.78,8.54-19.38,19.13-19.23,10.63.16,19.29,9.07,19.31,19.9Z"/>
            <path class="cls-5" d="m2345.96,1363.16c-10.72-.38-20.1-3.58-27.9-9.53-33.46-25.5-26.7-92.55,15.48-153.47,31.43-45.39,74.41-74.92,109.57-74.92,11.02,0,20.74,2.92,28.87,8.69,35.33,25.08,28.35,94.2-15.8,156.47-32.28,45.54-75.57,73.97-110.22,72.75Zm97.18-225.59c-30.89-.06-71.01,28.07-99.91,69.72-37.23,53.66-45.58,115.93-18.36,136.61,5.77,4.39,12.86,6.75,21.07,7.02,30.38,1.01,70.66-26.17,100.19-67.91,38.7-54.69,47.34-118.64,18.77-138.99-5.99-4.27-13.32-6.44-21.76-6.45Z"/>
            <path class="cls-5" d="m2443.72,1366.59h0c-35.29-1.24-78.5-32.45-110.1-79.12-42.28-62.44-49.08-129.54-15.73-153.73,7.77-5.63,17.11-8.5,27.79-8.5,34.53,0,77.81,29.78,110.26,76.27,44.52,63.79,51.98,133.36,16.71,157.35-8.12,5.52-17.85,8.12-28.92,7.73Zm-98.03-229.19c-8.18-.01-15.25,2.09-20.99,6.25-27.13,19.63-18.72,82.02,18.61,137.02,29.05,42.81,69.4,72.49,100.38,73.52,8.47.28,15.81-1.64,21.79-5.73,28.53-19.46,19.46-83.9-19.54-139.92-29.68-42.64-69.96-71.08-100.25-71.14Z"/>
            <path class="cls-5" d="m2396.92,1315.37h0l-3.6,1.71c-34.9-1.48-67.38-9.21-91.6-23.33-25.23-14.71-38.87-33.4-38.58-53.54.57-39.63,56.42-70.06,128.49-69.58l3.59.16c49.6,1.04,95.38,16.92,119.03,41.48,10.86,11.28,16.53,22.2,16.39,35.03-.47,41.26-59.84,74.59-133.72,68.06Zm-5.27-132.25c-64.48-.55-116.43,25.43-116.89,57.93-.22,15.45,11.3,30.73,32.54,43.07,22.6,13.13,53.16,21.15,86.17,22.5l3.43.12c65.94,1.75,120.84-24.24,121.23-57.94.11-9.55-4.19-18.93-12.78-27.87-21.38-22.26-63.78-36.69-110.27-37.75l-3.42-.05Z"/>
          </g>
        </g>
        <g>
          <path class="cls-20" d="m761.57,2622.53s-2.4,19.07-.79,25.46c1.61,6.39,57.05,11,75.87,8.78,18.82-2.22-11.21-21.44-23.2-25.05-11.99-3.61-51.88-9.19-51.88-9.19Z"/>
          <path class="cls-48" d="m789.48,2590.72l-5.84,38.26s-14.9,6.7-22.06.08l-.79-40.04,28.7,1.71Z"/>
          <path class="cls-49" d="m476.94,2589.01s11.76,8.73,8.63,19.18c-3.14,10.45-30.58,52.34-50.15,64.23-19.56,11.89-13.43-12.88-7.74-28.31,5.69-15.43,20.24-49.41,25.92-55.11,5.68-5.7,23.34,0,23.34,0Z"/>
          <path class="cls-13" d="m498.1,2546.98c-5.69,15.85-11.16,28.88-15.43,38.49-9.47,21.26-14.64,29.24-20.5,36.16-5.11,6.02-17.2,18.88-20.46,16.74-3.3-2.17,5.55-17.8,22.6-63.58,2.48-6.64,10.3-27.82,10.3-27.82h23.48Z"/>
          <path class="cls-11" d="m905.58,1884.66c4.06,39.84,7.95,101.68,2.13,176.73-7.59,97.78-27.14,159.65-51.66,263.91-14.99,63.72-35.18,157.49-53.45,274.77-4.24,2.43-16.71,8.81-32.77,6.42-8.99-1.33-15.72-4.91-19.69-7.48-47.94-146.49-33.78-237.27-10.65-293.83,9.86-24.11,21.82-43.13,28.21-80.19,8.46-49.03-2-76.44-16.91-190.01-10.63-80.95-8.79-93.46-1.72-105.6,28.27-48.54,114.73-47.59,156.5-44.71Z"/>
          <path class="cls-30" d="m740.57,1901.7c-29.37,151.67-58.19,231.33-80.01,276.38-5.38,11.11-23.33,46.96-40.29,98.35-15.02,45.49-21.28,78.96-24.49,93.69-10.12,46.49-35.15,114.37-102.48,203.41-.84.49-12.32,6.99-23.3,1.2-5.56-2.93-8.32-7.6-9.42-9.78,8.8-85.12,18.91-156.65,27.68-211.86,1.84-11.58,9.95-62.24,22.66-129.16,4.97-26.19,12.26-64.57,20.99-103.99,10.87-49.09,27.54-115.87,53.23-195.89,51.81-7.45,103.62-14.9,155.43-22.36Z"/>
          <path class="cls-18" d="m765.59,1301.78c16.65-15.4,48.52-33.14,64.5-74.4,4.81-12.42,21.86-56.42-3.29-90.08-14.92-19.98-42.64-33.55-67.07-28.74-20.88,4.11-24.14,18.64-59.62,47.91-13.81,11.39-36,29.7-60.71,39.88-42.32,17.44-67.75,1.03-110.24,2.9-52.2,2.3-112.84,31.43-142.05,73.8-51.85,75.19,23.26,151.46-33.54,239.54-18.61,28.86-27.78,22.39-71.86,78.25-44.14,55.94-66.21,83.9-62.28,118.17,5.45,47.56,56.68,93,104.93,96.09,47.13,3.02,77.09-34.06,101.08-17.84,17.08,11.54,7.31,33.99,25.45,60.97,23.38,34.78,69.33,41.71,76.75,42.83,68.88,10.39,161.76-70.38,201.21-166.08,71.13-172.57-53.82-339.48,36.73-423.18Z"/>
          <path class="cls-8" d="m1048.24,1349.69c.47-48.17-108.95-86.66-159.02-99.07-77.88-19.29-140.25-7.18-155.39-3.97-97.13,20.58-157.62,78.86-180.39,103.36,18.64,12.14,70.09,49.18,95.57,119.45,7.93,21.86,31.35,96.61-2.15,166.62-19.3,40.34-53.44,70.63-79.37,93.63-38.89,34.5-59.03,39.8-72.07,70.71-14.2,33.66.11,50.07-17.52,73.12-18.94,24.75-41.12,13.24-73.22,38.27-32.88,25.63-21.18,46.73-51.1,75.06-43.48,41.16-101.12,27.79-103.8,46.31-2.31,15.93,38.65,37.55,73.46,46.31,68.92,17.36,129.04-11.78,146.92-20.76,49.49-24.86,40.95-40.96,78.68-59.92,63.19-31.74,106.37,3.58,250.29,7.22,77.94,1.97,117.34,2.41,138.93-23.95,19.72-24.09,9.35-50.5-2.48-164.36-5.63-54.19-7.66-108.7-11.81-163.02-11.74-153.66-12.1-167.18-1.68-188.43,37.33-76.1,125.74-73.35,126.16-116.58Z"/>
          <g class="cls-27">
            <path class="cls-12" d="m353.58,1986.86c29.92-28.33,18.22-49.42,51.1-75.06,32.1-25.03,54.29-13.52,73.22-38.27,17.63-23.04,3.33-39.46,17.52-73.12,13.04-30.91,33.18-36.21,72.07-70.71,25.93-23.01,60.07-53.29,79.37-93.63,33.49-70.01,10.07-144.75,2.15-166.62-25.48-70.27-76.93-107.31-95.57-119.45,1.79-1.93,3.91-4.14,6.18-6.46,122.83,16.88,194.45,87.86,203.31,108.87,20.47,48.58-11.94,66.43-12.78,206.54-.4,66.97,6.82,93.41-14.9,121.37-24.85,31.97-53.49,22.08-89.43,63.88-27.61,32.11-23.19,52.47-48.97,66-27.72,14.55-45.38-2.41-76.65,4.26-52.24,11.14-63.41,71.37-97.94,104.33-26.12,24.92-74.4,42.34-169.63,23.64-2.2-3.21-3.27-6.34-2.84-9.27,2.68-18.52,60.32-5.15,103.8-46.31Z"/>
          </g>
          <path class="cls-43" d="m725.66,1490.22c13.06,27.73-46.94,92.31-113.63,122.98-13.59,6.25-111.16,51.11-154.65,7.97-35.93-35.65-12.74-109.36-4.46-135.68,40.65-129.23,165.51-194.96,217.84-218.67,39.05,97.64,16.05,141.15,7,154.74-9.46,14.19-35.85,44-63.88,70.26-19.72,18.47-31.99,27.46-30.34,30.34,2.05,3.59,25.16-3.19,114.93-46.88,10.41,1.68,22.74,5.47,27.2,14.94Z"/>
          <path class="cls-14" d="m1101.25,1330.92l-44.04,219.34c-1.41,7.03-6.86,12.55-13.87,14.05l-328.41,70.48c-11.77,2.53-22.65-6.99-21.72-18.99l17.33-223.08c.6-7.74,6.09-14.22,13.63-16.08,52.09-12.86,252.61-61.01,358.36-67.27,11.81-.7,21.05,9.93,18.72,21.53Z"/>
          <path class="cls-33" d="m773.69,1170.72s-6.19,49.52-24.47,60.87c-18.28,11.34-47.83,26.16-51.08,30.19-3.26,4.02,113.23,16.54,170.96-12.59h0c-19.02-3.97-24.2-5.43-24.2-5.43-5.16-1.46-14.79-4.17-24.45-9.68-6.57-3.74-17.16-11.05-26.88-24.86l.21-27.42-20.09-11.09Z"/>
          <path class="cls-40" d="m770.91,1188.26s11.92,16.36,30.61,9.54c16.73-6.1,6.75-49.33-6.53-54.26-4.43-1.64-12.56-.92-17.99,2.47-3.82,2.39-14.03,15.07-8.18,29.27-4.23-1.23-7.95-.11-8.88,1.98-1.18,2.66,2.4,6.27,3.21,7.09,2.81,2.84,6.2,3.63,7.76,3.89Z"/>
          <path class="cls-25" d="m805.51,1520.56c35.27-9.94,64.52,14.75,92.62-4.79,28.78-20.02,10-54.21,39.92-87.83,32-35.95,72.59-18.34,102.2-51.1,10.99-12.16,20.88-31.98,21.04-65.77,7.42-.72,14.53-1.29,21.24-1.68,11.81-.7,21.05,9.94,18.72,21.53l-44.04,219.34c-1.41,7.03-6.86,12.55-13.87,14.05l-315.61,67.73c22.28-78.18,52.02-104.22,77.78-111.48Z"/>
          <path class="cls-37" d="m1078.17,1447.6s20.95-19.36,23.23-41.86c2.28-22.49-13.53-40.49-28.85-45.08-15.31-4.59-23.49,2.18-13.21,24.33,10.28,22.15,26.59,36.53,18.83,62.61Z"/>
        </g>
      </g>
    </g>
  </g>
</svg>