<?xml version="1.0" encoding="UTF-8"?>
<svg id="Capa_2" data-name="Capa 2" xmlns="http://www.w3.org/2000/svg" viewBox="0 0 199.69 227.09">
  <defs>
    <style>
      .cls-1, .cls-2 {
        fill: #fff;
      }

      .cls-2 {
        font-family: "Lato", sans-serif;
        font-size: 36.94px;
      }
    </style>
  </defs>
  <g id="Capa_1-2" data-name="Capa 1">
    <g>
      <path class="cls-1" d="m130.83,120.98c-9.69.13-9.69-15.08,0-14.94,9.69-.13,9.69,15.08,0,14.94Z"/>
      <path class="cls-1" d="m100.12,172.82c-7.94.11-7.94-12.35,0-12.24,7.94-.11,7.94,12.35,0,12.24Z"/>
      <path class="cls-1" d="m38.91,173.92c-9.37.13-9.37-14.58,0-14.45,9.37-.13,9.37,14.58,0,14.45Z"/>
      <path class="cls-1" d="m7.99,121.72c-10.66.15-10.66-16.58,0-16.43,10.65-.15,10.65,16.58,0,16.43Zm0-14.93c-8.71-.12-8.71,13.55,0,13.43,8.71.12,8.71-13.55,0-13.43Z"/>
      <path class="cls-1" d="m38.91,66.59c-8.13.11-8.13-12.65,0-12.54,8.13-.11,8.13,12.65,0,12.54Z"/>
      <path class="cls-1" d="m100.12,68.12c-10.13.14-10.13-15.76,0-15.61,10.13-.14,10.13,15.76,0,15.61Zm0-14.11c-8.18-.11-8.18,12.73,0,12.61,8.18.11,8.18-12.73,0-12.61Z"/>
      <path class="cls-1" d="m192.26,121.15c-9.91.14-9.91-15.42,0-15.28,9.91-.14,9.91,15.42,0,15.28Zm0-13.78c-7.96-.11-7.96,12.39,0,12.28,7.96.11,7.96-12.39,0-12.28Z"/>
      <path class="cls-1" d="m7.99,227.09c-9.34.13-9.34-14.53,0-14.39,9.33-.13,9.33,14.53,0,14.39Z"/>
      <path class="cls-1" d="m130.83,14.25c-9.24.13-9.24-14.38,0-14.25,9.24-.13,9.24,14.38,0,14.25Z"/>
      <path class="cls-1" d="m94.05,165.95h-47.96c.05.49.05,1.01,0,1.5h47.96c-.07-.49-.07-1.01,0-1.5Z"/>
      <path class="cls-1" d="m126.47,107.46c.4-.29.84-.55,1.3-.75l-23.12-40.04c-.41.29-.84.54-1.3.75l23.12,40.04Z"/>
      <path class="cls-1" d="m45.13,61.07h47.22c-.05-.49-.05-1.01,0-1.5h-47.22c.06.49.06,1.01,0,1.5Z"/>
      <path class="cls-1" d="m36.29,66c-.46-.21-.89-.48-1.28-.79l-23.58,40.84c.46.21.89.46,1.3.75l23.56-40.81Z"/>
      <path class="cls-1" d="m12.73,120.21c-.41.29-.84.54-1.3.75l23.1,40.01c.4-.3.82-.57,1.28-.78l-23.08-39.98Z"/>
      <path class="cls-1" d="m10.92,213.33c.46.21.89.46,1.3.75l23.59-40.87c-.45-.22-.88-.48-1.28-.78l-23.61,40.9Z"/>
      <path class="cls-1" d="m184.65,112.76h-46.39c.05.49.05,1.01,0,1.5h46.39c-.05-.49-.05-1.01,0-1.5Z"/>
      <path class="cls-1" d="m127.94,13.63c-.46-.21-.89-.46-1.3-.75l-23.29,40.34c.46.21.89.46,1.3.75l23.29-40.34Z"/>
    </g>
    <text class="cls-2" transform="translate(55.43 124.23)"><tspan x="0" y="0">Js</tspan></text>
  </g>
</svg>