<?xml version="1.0" encoding="UTF-8"?>
<svg id="Capa_2" data-name="Capa 2" xmlns="http://www.w3.org/2000/svg" viewBox="0 0 672.54 424.71">
  <defs>
    <style>
      .cls-1, .cls-2 {
        fill: #fff;
      }

      .cls-3 {
        fill: #dbdbdb;
      }

      .cls-4 {
        fill: #ff99ba;
      }

      .cls-5 {
        fill: #37474f;
      }

      .cls-6 {
        fill: #050400;
      }

      .cls-6, .cls-7 {
        opacity: .1;
      }

      .cls-2 {
        opacity: .3;
      }

      .cls-8 {
        fill: #455a64;
      }

      .cls-9 {
        fill: #a6a6a6;
      }

      .cls-10 {
        fill: #c7c7c7;
      }

      .cls-11 {
        fill: none;
        stroke: #ffc727;
        stroke-miterlimit: 10;
      }

      .cls-12 {
        fill: #ebebeb;
      }

      .cls-13 {
        fill: #ffc727;
      }

      .cls-14 {
        fill: #ffc4c0;
      }

      .cls-15 {
        fill: #ad6359;
      }

      .cls-16 {
        fill: #263238;
      }
    </style>
  </defs>
  <g id="Background_Complete" data-name="Background Complete">
    <g>
      <path class="cls-12" d="M652.86,113.76l5.89-9.49-2.91-1.8c-.85-.53-1.32-1.5-1.23-2.5,.05-.55,.07-1.11,.05-1.67-.02-1,.5-1.94,1.39-2.41l3.01-1.62-5.28-9.85-3.01,1.62c-.88,.47-1.95,.39-2.77-.18-.46-.32-.93-.61-1.42-.88-.88-.48-1.43-1.4-1.4-2.41l.11-3.42-11.16-.35-.1,3.43c-.03,1.01-.65,1.88-1.56,2.31-.25,.12-.49,.24-.73,.37-.24,.13-.48,.27-.71,.41-.86,.52-1.92,.55-2.77,.02l-2.93-1.81-5.89,9.49,2.91,1.81c.85,.53,1.32,1.5,1.23,2.5-.05,.55-.07,1.11-.05,1.66,.02,1-.5,1.93-1.39,2.41l-3.01,1.62,5.28,9.85,3.01-1.62c.88-.47,1.95-.39,2.77,.18,.46,.32,.93,.61,1.42,.87,.88,.48,1.43,1.4,1.4,2.41l-.11,3.43,11.16,.35,.11-3.43c.03-1,.65-1.87,1.55-2.3,.25-.12,.49-.24,.74-.37,.24-.13,.48-.27,.71-.41,.86-.52,1.93-.55,2.79-.02l2.91,1.8Zm-9.45-7.05c-4.45,2.39-9.99,.72-12.38-3.74-2.39-4.45-.72-10,3.73-12.39,4.45-2.39,10-.71,12.39,3.74,2.39,4.45,.71,10-3.74,12.38Z"/>
      <path class="cls-12" d="M79.41,166.54l-3.91-6.78-2.07,1.2c-.61,.35-1.36,.32-1.95-.07-.33-.21-.66-.41-1.01-.59-.63-.32-1.03-.95-1.03-1.65v-2.4h-7.83v2.4c0,.7-.4,1.33-1.03,1.65-.35,.18-.69,.37-1.01,.59-.59,.38-1.34,.42-1.95,.07l-2.07-1.2-3.91,6.78,2.08,1.2c.61,.35,.95,1.02,.91,1.73,0,.19-.01,.38-.01,.58s0,.38,.01,.58c.04,.7-.3,1.37-.91,1.72l-2.09,1.21,3.91,6.78,2.08-1.2c.61-.35,1.36-.32,1.95,.07,.32,.21,.66,.41,1.01,.58,.63,.32,1.03,.95,1.03,1.65v2.4h7.83v-2.4c0-.7,.4-1.33,1.03-1.65,.35-.18,.68-.37,1.01-.58,.59-.39,1.34-.42,1.95-.07l2.08,1.2,3.91-6.78-2.08-1.2c-.61-.35-.94-1.02-.91-1.72,0-.19,.01-.39,.01-.58s0-.38-.01-.58c-.04-.7,.3-1.37,.91-1.73l2.08-1.2Zm-7.48,3.5c0,3.54-2.87,6.41-6.41,6.41s-6.41-2.87-6.41-6.41,2.87-6.41,6.41-6.41,6.41,2.87,6.41,6.41Z"/>
      <g>
        <path class="cls-12" d="M39.31,228.9c-16.83,0-30.47,13.64-30.47,30.47s13.64,30.47,30.47,30.47,30.47-13.65,30.47-30.47-13.65-30.47-30.47-30.47Zm0,44.7c-7.86,0-14.23-6.37-14.23-14.23s6.37-14.23,14.23-14.23,14.23,6.37,14.23,14.23-6.37,14.23-14.23,14.23Z"/>
        <polygon class="cls-12" points="45.17 230.17 33.45 230.17 34.09 221.87 44.52 221.87 45.17 230.17"/>
        <polygon class="cls-12" points="22.86 234.12 14.58 242.4 9.17 236.08 16.54 228.71 22.86 234.12"/>
        <polygon class="cls-12" points="9.88 252.68 9.88 264.4 1.59 263.75 1.59 253.33 9.88 252.68"/>
        <polygon class="cls-12" points="13.83 274.98 22.12 283.27 15.79 288.68 8.42 281.31 13.83 274.98"/>
        <polygon class="cls-12" points="32.39 287.96 44.11 287.96 43.46 296.26 33.04 296.26 32.39 287.96"/>
        <polygon class="cls-12" points="54.7 284.01 62.98 275.73 68.39 282.05 61.02 289.42 54.7 284.01"/>
        <polygon class="cls-12" points="67.68 265.45 67.68 253.73 75.97 254.38 75.97 264.8 67.68 265.45"/>
        <polygon class="cls-12" points="63.73 243.15 55.44 234.86 61.77 229.45 69.14 236.82 63.73 243.15"/>
      </g>
      <g>
        <path class="cls-12" d="M34.28,54.25c0-1.25,.17-4.58,.17-5.99,0-6.08-2.16-8.83-7.83-8.99-2.67-.17-4.25-1.75-4.25-4s1.58-3.83,4.25-4c5.66-.25,7.83-2.91,7.83-9.08,0-1.41-.17-4.75-.17-5.99,0-8.08,3.41-13.24,16.32-16.07,2.58-.58,4.58,1,4.58,3.41,0,2-1.33,3.08-2.33,3.41-8.08,2.5-9.24,5.08-9.24,10.74,0,1.67,.17,4.41,.17,6.16,0,6.49-3.16,9.66-8.66,11.41,5.58,1.83,8.66,4.91,8.66,11.41,0,1.75-.17,4.5-.17,6.16,0,5.66,1.17,8.24,9.24,10.74,1,.33,2.33,1.41,2.33,3.41,0,2.42-2,4-4.58,3.42-12.91-2.83-16.32-7.99-16.32-16.16Z"/>
        <path class="cls-12" d="M83.08,16.19c0,1.25-.17,4.58-.17,5.99,0,6.16,2.25,8.83,7.91,9.08,2.58,.17,4.16,1.75,4.16,4s-1.58,3.83-4.16,4c-5.66,.17-7.91,2.91-7.91,8.99,0,1.42,.17,4.75,.17,5.99,0,8.16-3.41,13.32-16.32,16.16-2.58,.58-4.58-1-4.58-3.42,0-2,1.33-3.08,2.41-3.41,7.99-2.5,9.16-5.08,9.16-10.74,0-1.67-.17-4.41-.17-6.16,0-6.5,3.16-9.66,8.66-11.41-5.58-1.83-8.66-4.91-8.66-11.41,0-1.75,.17-4.5,.17-6.16,0-5.66-1.17-8.24-9.16-10.74-1.08-.33-2.41-1.41-2.41-3.41,0-2.41,2-4,4.58-3.41,12.91,2.83,16.32,7.99,16.32,16.07Z"/>
      </g>
      <g>
        <path class="cls-12" d="M650.87,224.45l-12.76-12.87c-1.35-1.35-1.35-3.5,0-4.85,1.29-1.3,3.5-1.3,4.84,0l15.13,15.35c.17,.1,.27,.27,.32,.38,.11,0,.11,.11,.11,.11,.11,.11,.16,.32,.27,.48,0,.05,.05,.05,.05,.1,.05,.17,.05,.27,.1,.43,0,.06,.11,.11,.11,.22v.38c0,.05,.05,.21,.05,.27,0,.16-.05,.21-.05,.32v.38c0,.06-.11,.11-.11,.27-.05,.05-.05,.22-.1,.32,0,.05-.05,.16-.16,.21-.05,.16-.05,.27-.16,.43,0,0-.11,.05-.16,.11-.05,.16-.1,.27-.27,.32l-15.13,15.35c-.7,.65-1.56,.97-2.48,.97-.86,0-1.67-.32-2.37-.97-1.35-1.35-1.35-3.45,0-4.85l12.76-12.87Z"/>
        <path class="cls-12" d="M622.78,242.92c-.32,.16-.75,.21-1.07,.21-1.13,0-2.26-.65-2.75-1.78l-13.19-31.45c-.65-1.45,.05-3.23,1.51-3.82,1.56-.65,3.28,.05,3.93,1.56l13.19,31.4c.65,1.51-.05,3.29-1.61,3.88Z"/>
        <path class="cls-12" d="M579.43,225.9c0-.11-.05-.11-.05-.16-.05-.11-.05-.27-.16-.48,0-.05-.05-.05-.05-.11v-.43c0-.05-.06-.21-.06-.27,0-.06,.06-.22,.06-.27v-.38c0-.11,.05-.11,.05-.16,.11-.22,.11-.32,.16-.49,0-.05,.05-.05,.05-.1,.06-.16,.17-.27,.27-.48,0,0,0-.11,.05-.11,.11-.11,.22-.27,.38-.38l15.13-15.35c1.34-1.3,3.55-1.3,4.84,0,1.35,1.34,1.35,3.5,0,4.85l-12.76,12.87,12.76,12.87c1.35,1.4,1.35,3.5,0,4.85-.7,.65-1.5,.97-2.42,.97-.86,0-1.78-.32-2.43-.97l-15.13-15.35c-.17-.11-.27-.27-.38-.38-.05,0-.05-.05-.05-.05-.1-.21-.21-.38-.27-.48Z"/>
      </g>
    </g>
  </g>
  <g id="Floor">
    <polygon class="cls-16" points="0 359.51 84.07 359.26 168.13 359.17 336.27 359 504.4 359.17 588.47 359.26 672.54 359.51 588.47 359.76 504.4 359.85 336.27 360.02 168.13 359.85 84.07 359.76 0 359.51"/>
  </g>
  <g id="Database">
    <g>
      <g>
        <path class="cls-8" d="M668.8,332.54v25.6c0,6.99-29.31,12.65-65.46,12.65s-63.65-5.66-63.65-12.65v-25.6h129.12Z"/>
        <path class="cls-5" d="M668.79,331.57c0-6.99-29.31-12.65-65.46-12.65s-63.65,5.67-63.65,12.65,27.5,12.65,63.65,12.65,65.46-5.67,65.46-12.65Z"/>
        <g>
          <path class="cls-5" d="M614.75,354.26v3.22c-21.22,.77-40.68-.61-61.63-4.16v-3.27c20.94,3.59,40.43,4.99,61.63,4.2Z"/>
          <path class="cls-5" d="M629.64,353.35v3.23c-2.71,.22-5.44,.42-8.16,.57v-3.23c2.71-.15,5.44-.34,8.16-.57Z"/>
          <path class="cls-5" d="M642.53,351.97v3.25c-2.69,.34-5.39,.65-8.08,.92v-3.25c2.7-.26,5.38-.57,8.08-.92Z"/>
          <path class="cls-13" d="M655.36,350.05v3.27c-2.63,.45-5.25,.86-7.89,1.24v-3.26c2.64-.37,5.26-.79,7.89-1.24Z"/>
        </g>
      </g>
      <g>
        <path class="cls-8" d="M668.8,300.6v25.6c0,6.99-29.31,12.65-65.46,12.65s-63.65-5.66-63.65-12.65v-25.6h129.12Z"/>
        <path class="cls-5" d="M668.79,299.63c0-6.99-29.31-12.65-65.46-12.65s-63.65,5.67-63.65,12.65,27.5,12.65,63.65,12.65,65.46-5.67,65.46-12.65Z"/>
        <g>
          <path class="cls-5" d="M614.75,322.32v3.22c-21.22,.77-40.68-.61-61.63-4.16v-3.27c20.94,3.59,40.43,4.99,61.63,4.2Z"/>
          <path class="cls-5" d="M629.64,321.41v3.23c-2.71,.22-5.44,.42-8.16,.57v-3.23c2.71-.15,5.44-.34,8.16-.57Z"/>
          <path class="cls-5" d="M642.53,320.04v3.25c-2.69,.34-5.39,.65-8.08,.92v-3.25c2.7-.26,5.38-.57,8.08-.92Z"/>
          <path class="cls-13" d="M655.36,318.12v3.27c-2.63,.45-5.25,.86-7.89,1.24v-3.26c2.64-.37,5.26-.79,7.89-1.24Z"/>
        </g>
      </g>
      <g>
        <path class="cls-8" d="M668.8,268.67v25.6c0,6.99-29.31,12.65-65.46,12.65s-63.65-5.66-63.65-12.65v-25.6h129.12Z"/>
        <path class="cls-5" d="M668.79,267.7c0-6.99-29.31-12.65-65.46-12.65s-63.65,5.67-63.65,12.65,27.5,12.65,63.65,12.65,65.46-5.67,65.46-12.65Z"/>
        <g>
          <path class="cls-5" d="M614.75,290.39v3.22c-21.22,.77-40.68-.61-61.63-4.16v-3.27c20.94,3.59,40.43,4.99,61.63,4.2Z"/>
          <path class="cls-5" d="M629.64,289.48v3.23c-2.71,.22-5.44,.42-8.16,.57v-3.23c2.71-.15,5.44-.34,8.16-.57Z"/>
          <path class="cls-5" d="M642.53,288.1v3.25c-2.69,.34-5.39,.65-8.08,.92v-3.25c2.7-.26,5.38-.57,8.08-.92Z"/>
          <path class="cls-13" d="M655.36,286.19v3.27c-2.63,.45-5.25,.86-7.89,1.24v-3.26c2.64-.37,5.26-.79,7.89-1.24Z"/>
        </g>
      </g>
    </g>
  </g>
  <g id="Device">
    <g>
      <rect class="cls-3" x="84.21" y="39.05" width="504.11" height="337.22"/>
      <rect class="cls-16" x="87.87" y="43.17" width="496.79" height="328.99"/>
      <g>
        <rect class="cls-1" x="109.87" y="64.32" width="452.79" height="286.69"/>
        <g>
          <rect class="cls-8" x="109.87" y="64.32" width="452.79" height="7.45"/>
          <g>
            <path class="cls-10" d="M116.91,68.04c0,.78-.63,1.41-1.41,1.41s-1.41-.63-1.41-1.41,.63-1.41,1.41-1.41,1.41,.63,1.41,1.41Z"/>
            <path class="cls-1" d="M122.68,68.04c0,.78-.63,1.41-1.41,1.41s-1.41-.63-1.41-1.41,.63-1.41,1.41-1.41,1.41,.63,1.41,1.41Z"/>
            <path class="cls-13" d="M128.46,68.04c0,.78-.63,1.41-1.41,1.41s-1.41-.63-1.41-1.41,.63-1.41,1.41-1.41,1.41,.63,1.41,1.41Z"/>
          </g>
        </g>
        <g>
          <path class="cls-13" d="M336.21,259.7c-28.7,0-52.04-23.34-52.04-52.04s23.35-52.04,52.04-52.04,52.04,23.35,52.04,52.04-23.35,52.04-52.04,52.04Zm0-100.2c-26.56,0-48.16,21.61-48.16,48.16s21.61,48.16,48.16,48.16,48.16-21.61,48.16-48.16-21.61-48.16-48.16-48.16Z"/>
          <path class="cls-13" d="M336.21,240.03c-17.85,0-32.36-14.52-32.36-32.36s14.52-32.36,32.36-32.36,32.36,14.52,32.36,32.36-14.52,32.36-32.36,32.36Zm0-60.85c-15.71,0-28.49,12.78-28.49,28.49s12.78,28.49,28.49,28.49,28.49-12.78,28.49-28.49-12.78-28.49-28.49-28.49Z"/>
          <g>
            <circle class="cls-13" cx="336.21" cy="124.25" r="12.64"/>
            <path class="cls-13" d="M348.85,291.08c0,6.97-5.67,12.64-12.64,12.64s-12.64-5.67-12.64-12.64,5.68-12.64,12.64-12.64,12.64,5.68,12.64,12.64Z"/>
            <rect class="cls-13" x="334.27" y="135.38" width="3.88" height="41.77"/>
            <rect class="cls-13" x="334.27" y="238.18" width="3.88" height="41.77"/>
          </g>
          <g>
            <circle class="cls-13" cx="440.17" cy="207.66" r="12.64" transform="translate(196.84 629.16) rotate(-85.26)"/>
            <circle class="cls-13" cx="232.24" cy="207.66" r="12.64" transform="translate(6.68 422.57) rotate(-85.42)"/>
            <rect class="cls-13" x="387.27" y="205.72" width="41.77" height="3.88"/>
            <rect class="cls-13" x="243.37" y="205.72" width="41.77" height="3.88"/>
          </g>
          <g>
            <path class="cls-13" d="M418.21,179.23c-6.97,0-12.64-5.67-12.64-12.64s5.67-12.64,12.64-12.64,12.64,5.67,12.64,12.64-5.67,12.64-12.64,12.64Zm0-21.4c-4.83,0-8.76,3.93-8.76,8.76s3.93,8.76,8.76,8.76,8.76-3.93,8.76-8.76-3.93-8.76-8.76-8.76Z"/>
            <polygon class="cls-13" points="361.91 191.26 359.17 188.52 383.04 164.65 407.51 164.65 407.51 168.53 384.65 168.53 361.91 191.26"/>
          </g>
          <g>
            <path class="cls-13" d="M254.33,179.23c-6.97,0-12.64-5.67-12.64-12.64s5.67-12.64,12.64-12.64,12.64,5.67,12.64,12.64-5.67,12.64-12.64,12.64Zm0-21.4c-4.83,0-8.76,3.93-8.76,8.76s3.93,8.76,8.76,8.76,8.76-3.93,8.76-8.76-3.93-8.76-8.76-8.76Z"/>
            <polygon class="cls-13" points="310.63 191.26 287.89 168.53 265.03 168.53 265.03 164.65 289.5 164.65 313.37 188.52 310.63 191.26"/>
          </g>
          <g>
            <path class="cls-13" d="M254.33,261.38c-6.97,0-12.64-5.67-12.64-12.64s5.67-12.64,12.64-12.64,12.64,5.67,12.64,12.64-5.67,12.64-12.64,12.64Zm0-21.4c-4.83,0-8.76,3.93-8.76,8.76s3.93,8.76,8.76,8.76,8.76-3.93,8.76-8.76-3.93-8.76-8.76-8.76Z"/>
            <polygon class="cls-13" points="289.5 250.68 265.03 250.68 265.03 246.8 287.89 246.8 310.63 224.06 313.37 226.8 289.5 250.68"/>
          </g>
          <g>
            <path class="cls-13" d="M418.21,261.38c-6.97,0-12.64-5.67-12.64-12.64s5.67-12.64,12.64-12.64,12.64,5.67,12.64,12.64-5.67,12.64-12.64,12.64Zm0-21.4c-4.83,0-8.76,3.93-8.76,8.76s3.93,8.76,8.76,8.76,8.76-3.93,8.76-8.76-3.93-8.76-8.76-8.76Z"/>
            <polygon class="cls-13" points="407.51 250.68 383.04 250.68 359.17 226.8 361.91 224.06 384.65 246.8 407.51 246.8 407.51 250.68"/>
          </g>
          <g>
            <path class="cls-13" d="M313.11,146.36c0,3.08-2.51,5.59-5.59,5.59s-5.59-2.51-5.59-5.59,2.51-5.59,5.59-5.59,5.59,2.51,5.59,5.59Z"/>
            <path class="cls-13" d="M294.61,129.17c0,3.08-2.51,5.59-5.59,5.59s-5.59-2.51-5.59-5.59,2.51-5.59,5.59-5.59,5.59,2.51,5.59,5.59Z"/>
            <path class="cls-13" d="M370.48,146.36c0,3.08-2.51,5.59-5.59,5.59s-5.59-2.51-5.59-5.59,2.51-5.59,5.59-5.59,5.59,2.51,5.59,5.59Z"/>
            <path class="cls-13" d="M388.97,129.17c0,3.08-2.51,5.59-5.59,5.59s-5.59-2.51-5.59-5.59,2.51-5.59,5.59-5.59,5.59,2.51,5.59,5.59Z"/>
          </g>
          <g>
            <path class="cls-13" d="M294.61,286.15c0,3.08-2.51,5.59-5.59,5.59s-5.59-2.51-5.59-5.59,2.51-5.59,5.59-5.59,5.59,2.51,5.59,5.59Z"/>
            <path class="cls-13" d="M313.11,268.97c0,3.08-2.51,5.59-5.59,5.59s-5.59-2.51-5.59-5.59,2.51-5.59,5.59-5.59,5.59,2.51,5.59,5.59Z"/>
            <path class="cls-13" d="M388.97,286.15c0,3.08-2.51,5.59-5.59,5.59s-5.59-2.51-5.59-5.59,2.51-5.59,5.59-5.59,5.59,2.51,5.59,5.59Z"/>
            <path class="cls-13" d="M370.48,268.97c0,3.08-2.51,5.59-5.59,5.59s-5.59-2.51-5.59-5.59,2.51-5.59,5.59-5.59,5.59,2.51,5.59,5.59Z"/>
          </g>
          <g>
            <path class="cls-13" d="M326.39,213.16h-7.21l-1.46,3.86c-.27,.65-.89,1.04-1.54,1.04-.21,0-.39-.03-.56-.09-.86-.33-1.28-1.28-.98-2.14l6.56-17.49c.27-.65,.92-1.07,1.57-1.04,.68-.03,1.31,.39,1.57,1.04l6.56,17.49c.3,.86-.12,1.81-.98,2.14-.15,.06-.36,.09-.56,.09-.65,0-1.28-.39-1.51-1.04l-1.46-3.86Zm-1.22-3.27l-2.4-6.39-2.41,6.39h4.81Z"/>
            <path class="cls-13" d="M341.93,209.98h-3.65v6.44c0,.89-.74,1.63-1.66,1.63s-1.63-.74-1.63-1.63v-17.52c0-.92,.74-1.63,1.63-1.63h5.32c3.53,0,6.38,2.85,6.38,6.39s-2.85,6.33-6.38,6.33Zm-3.65-3.3h3.65c1.72,0,3.06-1.37,3.09-3.03-.03-1.72-1.37-3.09-3.09-3.09h-3.65v6.12Z"/>
            <path class="cls-13" d="M352.51,198.9c0-.92,.71-1.63,1.63-1.63s1.66,.71,1.66,1.63v17.52c0,.92-.77,1.63-1.66,1.63s-1.63-.71-1.63-1.63v-17.52Z"/>
          </g>
        </g>
      </g>
      <g>
        <rect class="cls-10" x="18.54" y="401.56" width="635.45" height="23.14"/>
        <polygon class="cls-12" points="18.54 401.56 84.2 376.28 588.33 376.28 654 401.56 18.54 401.56"/>
        <polygon class="cls-16" points="90.06 392.59 132.44 376.28 540.1 376.28 582.47 392.59 90.06 392.59"/>
      </g>
    </g>
  </g>
  <g id="Window">
    <g>
      <rect class="cls-16" x="373.79" y="9.09" width="253.54" height="168.26"/>
      <g>
        <rect class="cls-8" x="373.79" y="9.09" width="253.54" height="7.45"/>
        <g>
          <path class="cls-10" d="M380.83,12.81c0,.78-.63,1.41-1.41,1.41s-1.41-.63-1.41-1.41,.63-1.41,1.41-1.41,1.41,.63,1.41,1.41Z"/>
          <path class="cls-1" d="M386.6,12.81c0,.78-.63,1.41-1.41,1.41s-1.41-.63-1.41-1.41,.63-1.41,1.41-1.41,1.41,.63,1.41,1.41Z"/>
          <path class="cls-13" d="M392.38,12.81c0,.78-.63,1.41-1.41,1.41s-1.41-.63-1.41-1.41,.63-1.41,1.41-1.41,1.41,.63,1.41,1.41Z"/>
        </g>
      </g>
      <g>
        <g>
          <rect class="cls-12" x="394.96" y="49.94" width="7.39" height="1.45"/>
          <rect class="cls-12" x="411.08" y="49.94" width="120.79" height="1.45"/>
          <rect class="cls-13" x="536.41" y="49.94" width="14.05" height="1.45"/>
          <rect class="cls-12" x="558.89" y="84.14" width="37.43" height="1.45"/>
          <rect class="cls-9" x="553.51" y="49.94" width="44.75" height="1.45"/>
          <rect class="cls-12" x="394.96" y="56.78" width="7.39" height="1.45"/>
          <rect class="cls-9" x="418.29" y="56.78" width="55.67" height="1.45"/>
          <rect class="cls-9" x="534.49" y="84.14" width="21.06" height="1.45"/>
          <rect class="cls-9" x="411.08" y="77.3" width="53.17" height="1.45"/>
          <rect class="cls-13" x="418.29" y="63.62" width="37.3" height="1.45"/>
          <rect class="cls-9" x="545.8" y="70.46" width="54.1" height="1.45"/>
          <rect class="cls-9" x="504.33" y="104.02" width="27.53" height="1.45"/>
          <rect class="cls-9" x="459.73" y="63.62" width="95.53" height="1.45"/>
          <rect class="cls-13" x="411.08" y="84.14" width="118.6" height="1.45"/>
          <rect class="cls-12" x="477.45" y="56.78" width="71.44" height="1.45"/>
          <rect class="cls-12" x="561.18" y="63.62" width="23.98" height="1.45"/>
          <rect class="cls-12" x="394.96" y="63.62" width="7.39" height="1.45"/>
          <rect class="cls-9" x="394.96" y="70.46" width="7.39" height="1.45"/>
          <rect class="cls-12" x="411.08" y="70.46" width="43.7" height="1.45"/>
          <rect class="cls-12" x="418.29" y="90.97" width="43.7" height="1.45"/>
          <rect class="cls-13" x="535.74" y="97.81" width="61.01" height="1.45"/>
          <rect class="cls-12" x="457.81" y="97.81" width="74.11" height="1.45"/>
          <rect class="cls-9" x="418.29" y="97.81" width="32.85" height="1.45"/>
          <rect class="cls-12" x="467.26" y="77.3" width="83.2" height="1.45"/>
          <rect class="cls-13" x="553.51" y="77.3" width="44.75" height="1.45"/>
          <rect class="cls-13" x="459.22" y="70.46" width="83.14" height="1.45"/>
          <rect class="cls-12" x="394.96" y="77.3" width="7.39" height="1.45"/>
          <rect class="cls-12" x="394.96" y="84.14" width="7.39" height="1.45"/>
          <rect class="cls-9" x="394.96" y="90.97" width="7.39" height="1.45"/>
          <rect class="cls-12" x="394.96" y="97.81" width="7.39" height="1.45"/>
          <rect class="cls-12" x="394.96" y="104.02" width="7.39" height="1.45"/>
          <rect class="cls-12" x="411.08" y="104.02" width="86.71" height="1.45"/>
          <rect class="cls-12" x="394.96" y="110.86" width="7.39" height="1.45"/>
          <rect class="cls-9" x="418.29" y="110.86" width="55.67" height="1.45"/>
          <rect class="cls-9" x="411.08" y="131.38" width="53.17" height="1.45"/>
          <rect class="cls-13" x="418.29" y="117.7" width="37.3" height="1.45"/>
          <rect class="cls-13" x="503.71" y="145.06" width="27.3" height="1.45"/>
          <rect class="cls-13" x="418.29" y="158.73" width="37.3" height="1.45"/>
          <rect class="cls-9" x="459.73" y="117.7" width="95.53" height="1.45"/>
          <rect class="cls-13" x="411.08" y="138.22" width="118.6" height="1.45"/>
          <rect class="cls-12" x="477.45" y="110.86" width="71.44" height="1.45"/>
          <rect class="cls-12" x="549.21" y="124.54" width="23.94" height="1.45"/>
          <rect class="cls-12" x="394.96" y="117.7" width="7.39" height="1.45"/>
          <rect class="cls-9" x="394.96" y="124.54" width="7.39" height="1.45"/>
          <rect class="cls-12" x="411.08" y="124.54" width="43.7" height="1.45"/>
          <rect class="cls-12" x="467.26" y="131.38" width="83.2" height="1.45"/>
          <rect class="cls-13" x="459.22" y="124.54" width="83.14" height="1.45"/>
          <rect class="cls-12" x="394.96" y="131.38" width="7.39" height="1.45"/>
          <rect class="cls-12" x="394.96" y="145.06" width="7.39" height="1.45"/>
          <rect class="cls-12" x="411.08" y="145.06" width="86.71" height="1.45"/>
          <rect class="cls-12" x="394.96" y="151.89" width="7.39" height="1.45"/>
          <rect class="cls-9" x="418.29" y="151.89" width="55.67" height="1.45"/>
          <rect class="cls-9" x="459.73" y="158.73" width="95.53" height="1.45"/>
          <rect class="cls-12" x="394.96" y="158.73" width="7.39" height="1.45"/>
        </g>
        <g>
          <path class="cls-13" d="M398.54,36.93c.2,.21,.2,.52,0,.72-.1,.1-.22,.14-.35,.14-.14,0-.26-.05-.37-.14l-2.24-2.27s-.03-.02-.04-.05c0,0-.02-.02-.02-.02-.02-.02-.02-.04-.02-.06-.02,0-.02-.02-.02-.03,0-.02,0-.04-.02-.05,0-.02-.02-.03-.02-.04v-.06s0-.02,0-.05c0,0,0-.03,0-.04v-.06s.02-.02,.02-.03c0-.02,0-.04,.02-.06,0,0,0,0,0-.02,.02-.02,.02-.06,.04-.07,0,0,0-.02,.02-.02,0-.02,.02-.04,.05-.06l2.24-2.27c.2-.19,.53-.19,.72,0,.2,.2,.2,.52,0,.72l-1.89,1.9,1.89,1.9Z"/>
          <path class="cls-13" d="M400.57,37.19l1.95-4.65c.1-.22,.35-.33,.58-.23,.22,.09,.32,.35,.22,.57l-1.95,4.65c-.07,.17-.24,.26-.41,.26-.05,0-.11,0-.16-.03-.23-.09-.33-.35-.24-.57Z"/>
          <path class="cls-13" d="M407.19,35.31s0,0,0,0c-.02,.02-.03,.04-.06,.06l-2.24,2.27c-.1,.1-.23,.14-.36,.14-.14,0-.25-.05-.36-.14-.2-.2-.2-.51,0-.72l1.89-1.9-1.89-1.9c-.2-.2-.2-.52,0-.72,.19-.19,.52-.19,.72,0l2.24,2.27s.04,.04,.06,.06c0,0,0,.02,0,.02,.02,.03,.03,.05,.04,.07,0,0,0,0,0,.02,0,.02,0,.04,.02,.07,0,0,0,0,0,.02v.06s0,.03,0,.04c0,0,0,.03,0,.04v.06s0,0,0,.02c-.02,.03-.02,.06-.02,.07,0,0,0,0,0,.02,0,.02-.02,.04-.04,.07Z"/>
        </g>
      </g>
    </g>
  </g>
  <g id="Arrows">
    <g>
      <g>
        <polyline class="cls-11" points="610.28 255.36 610.28 218.06 588.5 218.06"/>
        <path class="cls-13" d="M612.53,255.24c0,1.25-1.01,2.26-2.26,2.26s-2.26-1.01-2.26-2.26,1.01-2.26,2.26-2.26,2.26,1.01,2.26,2.26Z"/>
        <path class="cls-13" d="M588.62,215.8c-1.25,0-2.26,1.01-2.26,2.26s1.01,2.26,2.26,2.26,2.26-1.01,2.26-2.26-1.01-2.26-2.26-2.26Z"/>
      </g>
      <g>
        <polyline class="cls-11" points="320.36 39.17 320.36 22.7 374.07 22.7"/>
        <path class="cls-13" d="M322.62,39.06c0,1.25-1.01,2.26-2.26,2.26s-2.26-1.01-2.26-2.26,1.01-2.26,2.26-2.26,2.26,1.01,2.26,2.26Z"/>
        <path class="cls-13" d="M373.96,24.95c1.25,0,2.26-1.01,2.26-2.26s-1.01-2.26-2.26-2.26-2.26,1.01-2.26,2.26,1.01,2.26,2.26,2.26Z"/>
      </g>
    </g>
  </g>
  <g id="Cloud">
    <g>
      <g>
        <path class="cls-13" d="M65.93,56.55c0,8.74,6.76,15.9,15.35,16.54v.05h93.93c10.77,0,19.49-8.72,19.49-19.49,0-10.15-7.76-18.5-17.67-19.41-.56-17.64-15.04-31.78-32.82-31.78-14.15,0-26.22,8.95-30.83,21.51-2.62-1.32-5.58-2.06-8.72-2.06-10.36,0-18.84,8.08-19.46,18.29-.87-.15-1.78-.22-2.7-.22-9.16,0-16.58,7.43-16.58,16.58Z"/>
        <path class="cls-7" d="M65.93,56.55c0,8.74,6.76,15.9,15.35,16.54v.05h93.93c10.77,0,19.49-8.72,19.49-19.49,0-10.15-7.76-18.5-17.67-19.41-.56-17.64-15.04-31.78-32.82-31.78-14.15,0-26.22,8.95-30.83,21.51-2.62-1.32-5.58-2.06-8.72-2.06-10.36,0-18.84,8.08-19.46,18.29-.87-.15-1.78-.22-2.7-.22-9.16,0-16.58,7.43-16.58,16.58Z"/>
      </g>
      <path class="cls-13" d="M56.56,56.55c0,8.74,6.76,15.9,15.35,16.54v.05h93.93c10.77,0,19.49-8.72,19.49-19.49,0-10.15-7.76-18.5-17.67-19.41-.56-17.64-15.04-31.78-32.82-31.78-14.15,0-26.22,8.95-30.83,21.51-2.62-1.32-5.58-2.06-8.71-2.06-10.36,0-18.84,8.08-19.46,18.29-.87-.15-1.78-.22-2.7-.22-9.16,0-16.58,7.43-16.58,16.58Z"/>
      <g>
        <rect class="cls-1" x="109.86" y="54.1" width="22.17" height="19.03"/>
        <polygon class="cls-1" points="102.25 54.1 139.64 54.1 120.95 35.45 102.25 54.1"/>
      </g>
    </g>
  </g>
  <g id="Character">
    <g>
      <g>
        <g>
          <g>
            <path class="cls-15" d="M340.53,389.28c-2.83,1.09-85,2.58-88.21,.74-.35-.21-.25-3.83-1.46-13.21-.06-.45-1.93-2.19-4.86-4.64-10.99-9.21-36.81-28.63-36.81-28.63l40.27-33.71,40.47,37.14,10.34,10.15s33.57,18.13,36.9,20.52c3.3,2.41,6.2,10.54,3.37,11.63Z"/>
            <path class="cls-12" d="M340.53,389.28c-2.83,1.1-85,2.58-88.21,.75-.35-.21-.25-3.83-1.46-13.22-.05-.45-1.93-2.18-4.86-4.64-3.82-3.2-5.63-4.66-11.32-9.09l52.13-19.17,3.13,3.07,10.33,10.16s33.57,18.12,36.9,20.52c3.3,2.4,6.21,10.54,3.37,11.62Z"/>
          </g>
          <g>
            <path class="cls-13" d="M346.19,390.41c-2.85,.99-90.4,1.95-93.55,.01-.74-.46-1.42-5.54-1.96-12.51-.07-.87-8.94-7.96-10.15-9.27l53.65-18.07,6.77,6.38s39.48,18.37,42.71,20.87c3.21,2.5,5.39,11.6,2.54,12.59Z"/>
            <g>
              <path class="cls-16" d="M344.97,387.15c-13.75-.18-74.77,.41-88.38,1.28-.11,0-.11,.08,0,.09,13.63,.47,74.63-.56,88.38-1.14,.29-.01,.29-.22,0-.23Z"/>
              <g>
                <path class="cls-16" d="M305.32,357.53c-5.42-.95-12.03-.04-16.12,3.86-.16,.15,.06,.37,.23,.32,5.32-1.74,10.29-2.88,15.87-3.5,.39-.04,.4-.62,.01-.68Z"/>
                <path class="cls-16" d="M309.25,359.84c-5.42-.95-12.03-.04-16.12,3.87-.16,.15,.06,.37,.23,.32,5.32-1.75,10.29-2.88,15.87-3.5,.39-.04,.4-.62,.01-.68Z"/>
                <path class="cls-16" d="M313.19,362.14c-5.42-.95-12.03-.04-16.12,3.86-.16,.15,.06,.37,.23,.32,5.32-1.75,10.29-2.88,15.87-3.5,.39-.04,.4-.62,.01-.68Z"/>
                <path class="cls-16" d="M317.12,364.45c-5.42-.95-12.03-.04-16.12,3.86-.16,.15,.06,.37,.23,.32,5.32-1.74,10.29-2.88,15.87-3.5,.39-.04,.4-.62,.01-.68Z"/>
                <g>
                  <path class="cls-16" d="M315.17,344.9c-2.16-2.9-6.1-1.54-8.34,.38-3.62,3.12-6.77,7.96-8.19,12.49-.04,.11,.04,.18,.13,.19,.02,.41,.4,.84,.86,.67,4.45-1.71,9.42-2.98,13.21-6,2.21-1.76,4.38-4.99,2.33-7.73Zm-9.33,9.77c-2.17,.89-4.37,1.67-6.5,2.65,1.6-2.43,3.1-4.92,4.94-7.19,.88-1.08,1.81-2.18,2.83-3.13,1.59-1.48,7.93-4.68,7.04,1.27-.49,3.28-5.74,5.34-8.32,6.4Z"/>
                  <path class="cls-16" d="M284.87,356.52c4.48,1.85,9.61,1.69,14.36,2.1,.49,.04,.73-.48,.64-.88,.08-.04,.14-.12,.07-.22-2.63-3.96-6.99-7.74-11.34-9.73-2.68-1.23-6.85-1.44-8.12,1.95-1.2,3.21,1.77,5.7,4.39,6.78Zm-2.49-3.83c-2.5-5.47,4.47-4.16,6.41-3.18,1.25,.63,2.44,1.43,3.59,2.22,2.41,1.67,4.53,3.64,6.75,5.53-2.32-.34-4.65-.48-6.98-.74-2.78-.3-8.39-.83-9.77-3.84Z"/>
                </g>
              </g>
            </g>
          </g>
        </g>
        <g>
          <path class="cls-8" d="M290.49,344.8l-50.69,26.26s-51.71-43.43-56.55-43.78c-4.7-.34-75.88,47.85-111.64,48-37.04,.16-38.92-38.65-38.92-38.65l54.03-12.41c38.95-19.2,79.52-53.68,106.06-50.46,28.82,3.49,97.7,71.04,97.7,71.04Z"/>
          <g>
            <path class="cls-16" d="M278.11,338.11c-8.56,4.23-6.16,2.9-14.67,7.22-4.16,2.11-25.12,12.69-28.68,15.31-.08,.06,0,.19,.09,.16,4.19-1.4,24.91-12.43,29.04-14.62,8.43-4.47,5.96-3.28,14.35-7.84,.16-.09,.04-.31-.12-.23Z"/>
            <path class="cls-16" d="M230.82,358.95c-9.91-8.74-41.28-32.81-42.6-33.87-1.06-.85-2.13-1.96-3.38-2.54-1.06-.49-2.11-.22-3.13,.25-1.5,.7-2.97,1.47-4.46,2.2-2.93,1.43-5.86,2.86-8.79,4.29-11.36,5.54-22.65,11.23-34.09,16.59-11,5.15-18.86,10.01-30.35,13.97-11.43,3.94-23.24,6.94-35.26,8.41-1.48,.18-2.97,.34-4.45,.47-.11,0-.11,.17,0,.17,11.8-.57,23.42-2.99,34.7-6.45,11.39-3.5,19.11-8.05,29.93-13.02,11.21-5.16,22.25-10.67,33.3-16.16,5.83-2.9,11.65-5.83,17.5-8.69,1.33-.65,3.21-2.06,4.73-1.36,.65,.3,1.2,.83,1.75,1.29,.65,.54,1.3,1.08,1.95,1.62,2.51,2.09,41.21,31.99,42.52,32.98,.1,.07,.23-.06,.13-.14Z"/>
          </g>
        </g>
      </g>
      <g>
        <g>
          <path class="cls-15" d="M68.59,263.2c5.28,20.87,15.82,45.78,20.17,49.77,5.5,5.04,41.33,13.71,43.11,13.86,4.41,.35,12.52-31.52,7.82-32.09-7.15-.87-33.12-1.7-34.71-3.26-1.65-1.63-12.9-15.19-24.5-30.53-8.01-10.6-15.16-10.69-11.88,2.26Z"/>
          <g>
            <path class="cls-15" d="M128.3,325.2c.53,.25,8.06,3.83,12.69,5.06,3.46,.92,13.47,3.3,14.86-.41,.95-2.53-4.78-4.62-8.79-6.19-2.12-.83-4.75-2.96-4.16-4.32,1.03-2.38,6.48-.13,10.07,1.85,6.95,3.83,16.25,10.81,20.37,7.23,1.55-1.35-.34-3.71-3.08-6,4.43,2.64,9.14,4.78,10.92,3.35,1.03-.82,1.05-1.91,.44-3.14,1.36,.41,2.55,.3,3.36-.6,1.39-1.52,.65-3.7-.96-5.91,.5-.06,.94-.33,1.27-.88,2.9-4.65-12.44-17.48-17.67-18.59-15.39-3.3-31.51-2.26-31.51-2.26-5.91,4.94-7.82,30.79-7.81,30.8Z"/>
            <g>
              <path class="cls-16" d="M150.5,310.6c3.62,.48,7.2,1.75,10.3,3.7,3.94,2.48,6.58,5.42,9.91,8.36,.09,.08-.03,.22-.12,.14-1.58-1.4-8.13-6.65-9.82-7.84-3.09-2.18-6.53-3.68-10.28-4.3-.04,0-.03-.07,.01-.06Z"/>
              <path class="cls-16" d="M153.21,304.04c4.05,1.01,8.2,2.03,11.97,3.85,4.13,1.99,7.41,5.32,10.63,8.51,1.93,1.92,3.83,3.88,5.67,5.89,.08,.08-.03,.22-.12,.14-3.27-3.3-6.63-6.52-10.09-9.61-3.26-2.92-6.87-5.12-10.99-6.59-2.32-.83-4.7-1.47-7.08-2.12-.04-.01-.03-.08,.01-.07Z"/>
              <path class="cls-16" d="M157.38,298.26c3.93,.72,7.35,1.33,10.86,3.34,4.65,2.67,9.17,7.25,10.76,8.87,1.76,1.79,3.45,3.64,5.12,5.52,.07,.08-.06,.2-.13,.12-3.8-4.1-7.89-7.98-12.19-11.55-2.06-1.71-4.28-3.18-6.77-4.19-2.46-.99-5.08-1.53-7.66-2.09-.02,0-.01-.03,0-.03Z"/>
            </g>
          </g>
        </g>
        <g>
          <path class="cls-13" d="M135.55,292.62l-9.45,36.05s-30.76-7.16-36.6-12.86c-5.84-5.7-17.6-36.07-21.35-50.88-3.75-14.81,3.83-14.82,11.25-5.73,7.42,9.09,25.86,31.1,26.85,31.54,.99,.45,29.29,1.88,29.29,1.88Z"/>
          <path class="cls-16" d="M122.89,312.25c1.04-3.94,2.11-7.88,3.01-11.86,.51-2.26,1.03-4.52,1.52-6.79,.02-.09-.13-.13-.15-.05-1.2,3.91-2.4,7.84-3.42,11.81-1.02,3.95-2.07,7.89-3.03,11.86-.55,2.25-1.03,4.52-1.44,6.81,0,.05,.06,.07,.08,.02,1.34-3.87,2.39-7.83,3.44-11.8Z"/>
          <path class="cls-7" d="M127.03,325.13l-.93,3.53s-30.76-7.16-36.6-12.86c-5.85-5.7-17.6-36.06-21.35-50.88-3.75-14.82,3.84-14.82,11.26-5.73,2.21,2.71,5.41,6.58,8.83,10.68l38.79,55.26Z"/>
        </g>
      </g>
      <g>
        <path class="cls-8" d="M31.92,339.84s-4.88,35.23,13.1,48.4c17.98,13.17,146.22,7.19,165.48,.24,19.26-6.95,18.81-38.38-2.72-44.94-20.47-6.24-106.7-6.71-108.86-7.48-.54-.19,7.46-5.37,7.42-5.66l-19.8-5.33-54.62,14.78Z"/>
        <g>
          <path class="cls-16" d="M58.47,338.06c-.03-.15-.26-.09-.26,.05,.15,3.96-1.18,8.17-3.67,11.26-2.87,3.54-7.2,5.62-11.11,7.77-.38,.21-.07,.8,.33,.66,2.4-.81,4.76-1.95,6.93-3.27,1.98-1.2,3.79-2.68,5.14-4.58,2.49-3.49,3.49-7.68,2.64-11.9Z"/>
          <path class="cls-16" d="M97.39,332.41c-.93-1.11-1.93-2.15-2.9-3.23-2.28-2.54-4.57-5.08-6.96-7.52-.23-.23-.64,.12-.43,.38,1.62,1.97,3.32,3.88,5,5.79,.86,.98,1.72,1.96,2.59,2.94,.81,.91,1.81,1.81,2.42,2.87,.64,1.1-.12,2.09-1.28,2.25-1.04,.15-2.02-.35-2.83-.94-1.86-1.33-3.36-3.27-4.92-4.92-.96-1.01-1.92-2.01-2.89-3.01-1.03-1.06-2.13-2.06-3.16-3.11-.07-.07-.19,.03-.13,.11,.91,1.16,1.75,2.38,2.66,3.55,.91,1.16,1.83,2.32,2.77,3.46,.89,1.08,1.8,2.14,2.75,3.17,.8,.88,1.7,1.73,2.76,2.3,1.7,.92,4.6,1.04,5.41-1.14,.4-1.08-.18-2.14-.86-2.95Z"/>
          <path class="cls-16" d="M207.84,388.69c-6.7,.35-13.38,.97-20.08,1.34-6.64,.37-13.29,.63-19.95,.79-13.36,.32-26.73,.26-40.09-.21-13.5-.48-28.07-1.33-41.5-2.73-6.43-.67-12.94-1.19-19.31-2.34-5.75-1.04-11-3.23-15.42-7.23-8.95-8.11-12.73-20.35-14.51-32.11-.24-1.58-.44-3.16-.63-4.74-.01-.11-.18-.1-.16,0,1.19,12.08,3.5,24.63,11.44,34.1,3.43,4.1,7.74,7.41,12.72,9.21,6.07,2.2,12.74,2.54,19.09,3.18,13.49,1.37,28.12,2.28,41.66,2.88,13.63,.6,27.28,.79,40.91,.54,13.64-.26,27.27-.91,40.86-2.04,1.66-.14,3.31-.29,4.97-.49,.09-.01,.09-.16,0-.15Z"/>
          <path class="cls-16" d="M163.85,338.63c-4.24-.48-8.47-.94-12.73-1.24-4.3-.3-8.6-.54-12.91-.76-8.51-.43-17.04-.79-25.57-.9-4.84-.06-9.68,.08-14.51,.3-.16,0-.13,.23,.01,.24,8.53,.48,17.07,.73,25.61,1.01,8.52,.28,17.04,.74,25.56,1.26,4.83,.3,9.66,.49,14.49,.72,.35,.02,.4-.59,.05-.63Z"/>
          <path class="cls-16" d="M107.33,329.93c-3.38,1.53-6.52,3.49-9.59,5.56-3.03,2.04-6.12,4.18-8.83,6.63-.08,.07,.03,.17,.11,.13,3.26-1.65,6.38-3.67,9.48-5.62,3.11-1.95,6.2-3.94,9.05-6.25,.2-.16,.06-.57-.22-.44Z"/>
        </g>
      </g>
      <g>
        <g>
          <g>
            <path class="cls-12" d="M31.7,343.33l68.26-20.36-7.79-24.63s5.15-8.03,2.53-15.38c-2.33-6.56-18.84-25.68-22.12-28.18-5.63-4.3-15.43-5.42-20.51,1.08-20.96,26.8-20.37,87.47-20.37,87.47Z"/>
            <path class="cls-16" d="M53.76,254.11l9.75-2.78h.01c.22,.01,.43,.03,.63,.07l-10.82,3.09c.13-.14,.27-.26,.43-.38Zm-6.25,8.68l25.81-7.38c-.08-.07-.14-.13-.21-.19l-25.44,7.27c-.07,.1-.12,.2-.16,.3Zm-3.74,7.7l34.52-9.86c-.07-.07-.13-.14-.19-.21l-34.21,9.77c-.05,.1-.1,.2-.12,.3Zm-2.8,7.42l41.9-11.95c-.05-.07-.11-.13-.16-.2l-41.64,11.88c-.02,.09-.05,.19-.09,.27Zm-2.17,7.26l48.39-13.81c-.04-.07-.1-.13-.15-.2l-48.17,13.74c-.02,.09-.04,.19-.07,.27Zm-1.75,7.12l54.16-15.45c-.04-.07-.09-.14-.14-.21l-53.96,15.4c-.01,.09-.03,.17-.05,.26Zm-1.41,7.04l58.89-16.8c-.02-.08-.05-.15-.09-.23l-58.76,16.76c-.01,.09-.03,.17-.04,.26Zm-1.15,6.96l60.89-17.37c.01-.09,.01-.17,.02-.25l-60.86,17.36c-.02,.09-.03,.17-.04,.26Zm-.92,6.9l59.78-17.06c.03-.1,.08-.19,.13-.28l-59.88,17.08c-.01,.09-.02,.17-.03,.26Zm-.72,6.84l60.7-17.32-.08-.23-60.6,17.29c-.01,.09-.01,.17-.02,.26Zm-.55,6.79l63.17-18.02-.08-.24-63.07,18c-.01,.09-.02,.17-.02,.26Zm-.38,6.74l65.48-18.69-.08-.22-65.39,18.64c0,.09,0,.17-.01,.26Zm-.2,6.44c-.01,.09-.01,.16,0,.25l67.6-19.29-.08-.23-67.52,19.26Z"/>
          </g>
          <g>
            <path class="cls-16" d="M81.87,295.48c-3.07,1.31-6.13,2.74-8.98,4.5-1.42,.87-2.79,1.81-4.14,2.78-.68,.48-1.36,.94-2.06,1.4-.71,.47-1.49,.94-2.29,1.22-.07,.03-.04,.13,.04,.11,.8-.23,1.57-.44,2.33-.77,.73-.31,1.43-.71,2.11-1.12,1.45-.87,2.85-1.81,4.29-2.7,2.9-1.79,5.8-3.58,8.82-5.16,.14-.07,.02-.31-.12-.25Z"/>
            <path class="cls-16" d="M90.62,295.85c-2.69,.55-5.4,1.23-8.02,2.08-1.32,.43-2.6,.93-3.87,1.46-.61,.26-1.21,.52-1.81,.8-.66,.3-1.28,.69-1.95,.98-.07,.03-.03,.14,.04,.11,.64-.26,1.32-.41,1.97-.63,.65-.22,1.3-.45,1.96-.67,1.31-.44,2.62-.87,3.92-1.32,2.61-.91,5.21-1.79,7.85-2.61,.14-.04,.07-.24-.07-.22Z"/>
          </g>
          <g>
            <path class="cls-13" d="M57.87,252.05s7.14,21.97,7.96,40.64c1.33,30.13,6.11,72.79,7.56,84.49,1.45,11.7-34.5,48.11-44.02,43.9-4.64-2.06-7.97-27.27-3.33-76.22,1.72-18.16,9.2-62.54,20.04-81.69,7.58-13.39,11.79-11.13,11.79-11.13Z"/>
            <g class="cls-7">
              <path d="M62.91,349.77c-2.29,1.92-4.57,3.91-6.72,6-2,1.94-3.99,3.89-6.09,5.73-2.05,1.8-4.18,3.51-6.47,5-2.35,1.53-4.81,2.68-7.44,3.61-.09,.03-.09,.19,.03,.18,8.75-.81,15.85-7.66,21.51-13.77,1.91-2.07,3.76-4.23,5.53-6.42,.2-.25-.11-.54-.35-.34Z"/>
              <path d="M63.08,353.46c-2.56,3.45-5.27,6.71-8.46,9.6-3.11,2.82-6.6,5.22-10.29,7.22-2.14,1.16-4.37,2.21-6.62,3.14-.14,.06-.09,.25,.06,.23,8.54-1.61,16.34-6.93,21.6-13.77,1.52-1.97,2.86-4.05,3.86-6.33,.05-.11-.09-.19-.16-.09Z"/>
              <path d="M63.31,358.16c.47,5.97,.44,16.35,.19,18.61-.22,2.06-.57,4.16-1.59,6-1.91,3.44-5.61,6.11-9.12,7.73-3.29,1.52-7.55,2.37-10.82,.33-1.98-1.23-2.49-3.6-3.03-5.71-.67-2.6-1.19-5.25-1.45-7.92-.01-.12-.19-.12-.19,0,.13,2.44,.31,4.87,.66,7.29,.31,2.17,.55,4.61,1.95,6.39,2.51,3.19,7.1,3.38,10.73,2.41,2.25-.6,4.35-1.71,6.26-3.03,1.79-1.24,3.52-2.66,4.89-4.36,1.36-1.7,2.08-3.66,2.73-5.74,.99-3.16,.33-16.43-1.07-22-.02-.09-.15-.09-.14,0Z"/>
            </g>
          </g>
          <path class="cls-13" d="M70.71,253.56c6.68,6.09,20.07,27.04,21.7,31.74,2.06,5.94-.23,13.04-.23,13.04l7.79,24.63-5.98-24.4s4.24-6.57,2.18-14.7c-2.06-8.13-18.9-25.15-21.23-27.57-2.33-2.42-4.22-2.74-4.22-2.74Z"/>
        </g>
        <g>
          <g>
            <path class="cls-15" d="M59.15,251.54c-.05,1.31,3.61,10.89,9.3,12.17,1.85,.41,4.57-9.59,4.57-9.59l.37-.69,5.16-9.7-10-11.14-1.47-1.52s-7.89,19.92-7.92,20.47Z"/>
            <path class="cls-16" d="M67.08,231.07s-1.87,4.7-4.03,10.25c1.38,6.04,8.83,11.67,10.34,12.11l5.16-9.7-10-11.15-1.47-1.51Z"/>
          </g>
          <g>
            <path class="cls-16" d="M63.87,226.78c1.46,1.27,3.57,1.71,5.38,.95,1.78-.75,2.95-2.52,3.09-4.42,1.65,1.25,3.83,1.68,5.66,.36,1.89-1.37,2.21-3.79,1.18-5.78,0-.01-.03,0-.03,.01,.74,1.91,.4,4.22-1.36,5.46-1.51,1.06-3.12,.85-4.54,.07,1.52,.23,3.11-.01,4.34-.98,1.34-1.07,1.99-2.91,1.5-4.55,1.88-.52,3.71-1.73,4.42-3.62,.6-1.59,.27-3.47-.96-4.63,1.73-.87,2.91-2.76,2.75-4.73-.14-1.85-1.39-3.45-3.07-4.15,2.51-1.5,2.63-5.18,.16-6.83,.8-.68,1.07-1.82,.77-2.85-.34-1.18-1.33-2-2.38-2.57,.29-1.05,.09-2.23-.67-3.06-1.01-1.1-2.61-1.22-3.81-.45-.84-1.76-1.99-3.56-3.85-4.34-1.53-.64-3.44-.5-4.63,.71-1.92-2.95-5.95-3.57-8.68-1.32-1.1-.96-2.67-1.19-4.06-.71-1.4,.48-2.17,1.18-2.51,1.54-1.06-.78-2.53-.76-3.61,0-1.06,.75-1.47,1.9-1.59,3.11-.2,.26-.44,.47-.8,.66-1.62,.85-2.69,2.33-2.92,4.15-2.13,.33-3.54,2.67-2.83,4.71-1.97,.98-2.78,3.58-1.74,5.51-1.46,.93-2.48,2.45-2.73,4.18-.19,1.32,.17,2.88,1.37,3.56-.83,.64-.74,1.95-.16,2.79,.22,.32,.49,.6,.78,.86,.34,.31,.85,.62,1.06,1.04,.22,.43,.08,.97,.09,1.43,.01,.33,.06,.66,.14,.98,.62,2.43,3.03,4.18,5.52,4.01,.07,1.78,1.58,3.01,3.15,3.62,.52,.2,1.05,.31,1.59,.42,.5,.1,.93,.22,1.32,.59,.23,.23,.41,.5,.64,.73,.78,.77,1.83,.87,2.87,.86,.38,4.74,6.1,5.78,9.14,2.66Zm-15.12-45.18c1.03-1,2.44-1.18,3.72-.59-.07,.08-.11,.13-.11,.13,0,0-.44-.07-.66-.09-.4-.02-.8,.03-1.19,.13-.81,.2-1.56,.65-2.12,1.27-.25,.28-.44,.59-.62,.93-.02,.04-.05,.08-.07,.12,.19-.7,.48-1.35,1.04-1.9Zm31.05,4.92c-.74-1.07-2.13-1.6-3.38-1.24-.01-.03-.03-.06-.05-.09,1.23-.54,2.5-.7,3.53,.47,.72,.82,.77,1.77,.52,2.68,0,0-.01,0-.02,0-.04-.64-.23-1.25-.61-1.8Zm-24.87,37.6s.03,0,.05,0c1.08,2.99,4.28,4.38,7.09,3.47-3.02,1.23-6.35,.54-7.13-3.47Z"/>
            <path class="cls-15" d="M94.64,230.2c-.56,19.28-12.17,21.12-16.33,21-3.77-.11-16.61-.98-18.05-20.22-1.43-19.24,7.71-25.07,16.35-25.27,8.65-.2,18.58,5.21,18.02,24.49Z"/>
            <g>
              <path class="cls-16" d="M92.09,227.86c-.44-.12-.82-.31-1.25-.47-.48-.19-.87-.29-1.18-.72-.16-.24-.08-.65,.13-.83,.5-.42,1.14-.34,1.72-.13,.63,.22,1.06,.55,1.41,1.12,.34,.55-.26,1.2-.84,1.04Z"/>
              <path class="cls-16" d="M79.06,226.38c.46,0,.88-.07,1.33-.12,.51-.05,.92-.04,1.33-.38,.22-.18,.25-.6,.1-.83-.37-.54-1-.63-1.62-.59-.67,.04-1.17,.24-1.66,.69-.48,.44-.07,1.23,.53,1.23Z"/>
              <g>
                <g>
                  <path class="cls-16" d="M81.62,230.87c0-.05-.11,.05-.11,.11-.08,1.31-.4,2.8-1.62,3.12-.04,.01-.04,.08,0,.07,1.46-.07,1.86-2.05,1.73-3.3Z"/>
                  <path class="cls-16" d="M80.59,229.39c-2.09-.36-2.65,3.84-.72,4.18,1.9,.33,2.47-3.88,.72-4.18Z"/>
                </g>
                <path class="cls-16" d="M79.73,229.51c-.4,.19-.81,.56-1.26,.54-.52-.02-.85-.51-1.12-.98-.03-.05-.07-.02-.08,.04-.12,.8,.08,1.67,.93,1.91,.77,.22,1.43-.42,1.74-1.21,.06-.14-.04-.38-.2-.31Z"/>
              </g>
              <g>
                <g>
                  <path class="cls-16" d="M89.05,231.6s.1,.07,.09,.12c-.15,1.31-.1,2.83,1.05,3.36,.04,.02,.03,.08-.02,.07-1.43-.32-1.47-2.34-1.12-3.56Z"/>
                  <path class="cls-16" d="M90.33,230.33c2.12,.02,1.93,4.25-.03,4.24-1.93-.01-1.75-4.25,.03-4.24Z"/>
                </g>
                <path class="cls-16" d="M91.2,230.64c.32,.24,.64,.66,1.04,.71,.46,.05,.82-.39,1.14-.82,.03-.04,.06,0,.06,.05-.01,.81-.32,1.64-1.1,1.76-.72,.11-1.21-.61-1.36-1.42-.03-.15,.09-.37,.23-.28Z"/>
              </g>
              <path class="cls-16" d="M79.19,241.35c.21,.39,.38,.89,.83,1.06,.43,.17,1,.13,1.45,.1,.04,0,.07,.05,.03,.08-.48,.38-1.25,.47-1.8,.19-.54-.28-.66-.85-.64-1.42,0-.08,.11-.08,.14-.02Z"/>
              <path class="cls-16" d="M86.14,237.9s-.21,1.97-.44,2.87c-.02,.08-.25,.07-.56,.01-.02,0-.03,0-.04,0-1.65-.15-3.11-1.09-3.75-2.63-.04-.1,.1-.17,.16-.09,.97,1.16,2.22,1.72,3.62,2.09,.13-.23,.25-3.38,.4-3.36,.5,.08,1.38,.66,1.92,.97,.56-4.09,.46-8.23,1.08-12.3,.02-.14,.24-.14,.25,0,.41,4.34-.13,9.06-.6,13.29-.05,.53-1.73-.61-2.05-.85Z"/>
              <g>
                <path class="cls-16" d="M84.6,240.53s-1.13,.85-2.35,.92c-.45,.03-.91-.04-1.33-.3-.87-.52-.64-1.4-.25-2.09,.32-.57,.75-1.01,.75-1.01,0,0,1,1.69,3.17,2.48Z"/>
                <path class="cls-4" d="M82.25,241.45c-.45,.03-.91-.04-1.33-.3-.87-.52-.64-1.4-.25-2.09,.98,.4,1.78,1.38,1.58,2.39Z"/>
              </g>
            </g>
            <g>
              <path class="cls-16" d="M62.62,233.17c3.57,.48,4.56-7.7,4.56-7.7,0,0,12.45-.92,16.15-13.34,0,0,3.06,6.43,11.01,10.08,0,0-.41-13.61-11.18-16.35,0,0-13.34-4.99-20.96,5.56-7.62,10.55-1.99,21.43,.41,21.75Z"/>
              <path class="cls-16" d="M83.36,211.21c.04,1.9-.41,3.82-1.18,5.58-.77,1.77-1.88,3.42-3.31,4.74-.33,.36-.75,.62-1.12,.94l-.57,.45c-.2,.13-.41,.26-.62,.38-.42,.24-.83,.51-1.25,.73-.44,.2-.88,.39-1.33,.57-.22,.09-.44,.19-.67,.27l-.69,.2-1.38,.39c-.94,.17-1.89,.3-2.82,.41,.91-.3,1.82-.51,2.71-.82l1.31-.5,.65-.25c.21-.1,.41-.21,.62-.32,.41-.22,.82-.43,1.24-.63,.4-.23,.78-.5,1.16-.75l.58-.38,.53-.44c.34-.3,.74-.56,1.04-.9,1.37-1.23,2.43-2.77,3.3-4.4,.43-.82,.79-1.68,1.08-2.57,.31-.88,.53-1.8,.69-2.73Z"/>
            </g>
            <g>
              <path class="cls-15" d="M64.52,232.82s-3.49-6.47-6.37-5.29c-2.89,1.18-.75,10.21,2.3,11.77,3.05,1.56,4.54-1.24,4.54-1.24l-.47-5.24Z"/>
              <path class="cls-16" d="M58.82,230.11c-.05-.01-.07,.06-.03,.08,2.13,1.16,3.06,3.37,3.64,5.62-.57-.9-1.42-1.46-2.62-.8-.06,.03-.02,.13,.05,.13,.94-.09,1.58,.15,2.11,.95,.38,.57,.6,1.26,.84,1.9,.08,.21,.45,.15,.4-.09,0-.02,0-.04-.01-.05,.39-2.84-1.36-7.09-4.39-7.73Z"/>
            </g>
            <g>
              <g>
                <path class="cls-13" d="M59,237.71c-.04,.91-2.44-2.39-2.53-2.86-.09-.47-1.78-1.97-2.17-2.91s-1.07-3.64-1.09-4.28c-.02-.64-1.04-2.32-.93-3.43,.11-1.11,1.45-10.99,8.71-17.04,7.26-6.05,13.22-5.94,13.22-5.94,0,0,4.2-.35,9.03,.43,4.83,.78,10.78,12.82,10.78,13.07,0,.25-.4,.99-.24,1.7,.17,.71,.84,1.48,.41,2.1-.44,.62,.39,2.4,.31,3.1-.08,.7-.28,.86-.2,1.35,.08,.49-1.07-12.07-15.56-17.73,0,0-18.79,12.86-19.75,32.44Z"/>
                <path class="cls-13" d="M94.29,222.86s0,.09,.01,.14c0,.04,0,0-.01-.14Z"/>
                <path class="cls-13" d="M94.29,222.86s0,.09,.01,.14c0,.04,0,0-.01-.14Z"/>
                <path class="cls-2" d="M89.64,207.96c.18-.03,.35-.03,.52,0h0c.34,.5,.66,.99,.96,1.47,0,0,0,0,0,0-.09,.5-.48,.91-1,1.01-.69,.13-1.36-.32-1.49-1.01-.13-.69,.32-1.36,1.01-1.49Zm-7.1-.9c.76,.43,1.47,.88,2.14,1.35,.21-.27,.3-.63,.23-1-.13-.69-.8-1.14-1.49-1.01-.39,.08-.71,.33-.88,.66Zm8,7.08c.5,.7,.94,1.4,1.32,2.07,.61-.2,.98-.81,.86-1.45-.13-.69-.8-1.14-1.49-1.01-.28,.05-.51,.19-.69,.39Zm-26.44-9.25c.21,.57,.81,.92,1.43,.8,.69-.13,1.14-.8,1.01-1.49-.04-.22-.14-.42-.28-.58-.69,.36-1.42,.78-2.16,1.27Zm-.72,10.71c.13,.69,.8,1.14,1.49,1.01,.69-.13,1.14-.8,1.01-1.49-.13-.69-.8-1.14-1.49-1.01-.69,.13-1.14,.8-1.01,1.49Zm16.56-13.57c.13,.69,.8,1.14,1.49,1.01,.69-.13,1.14-.8,1.01-1.49h0c-.83-.13-1.64-.21-2.4-.27h0c-.1,.23-.13,.49-.08,.75Zm-7.1,2.25c.13,.69,.8,1.14,1.49,1.01s1.14-.8,1.01-1.49c-.13-.69-.8-1.14-1.49-1.01-.69,.13-1.14,.8-1.01,1.49Zm-4.16,5.77c.13,.69,.8,1.14,1.49,1.01,.69-.13,1.14-.8,1.01-1.49-.13-.69-.8-1.14-1.49-1.01-.69,.13-1.14,.8-1.01,1.49Zm-9.6,.56c.13,.69,.8,1.14,1.49,1.01,.69-.13,1.14-.8,1.01-1.49s-.8-1.14-1.49-1.01c-.69,.13-1.14,.8-1.01,1.49Zm-.96,9.62c.13,.69,.8,1.14,1.49,1.01,.69-.13,1.14-.8,1.01-1.49-.13-.69-.8-1.14-1.49-1.01-.69,.13-1.14,.8-1.01,1.49Zm-.28,14.35c.12,.64,.7,1.07,1.34,1.03,.09-.83,.22-1.65,.37-2.45-.22-.09-.46-.11-.7-.07-.69,.13-1.14,.8-1.01,1.49Zm3.95-9.89c.04,.23,.14,.43,.29,.59,.32-.71,.66-1.41,1.01-2.1-.1,0-.2,0-.29,.02-.69,.13-1.14,.8-1.01,1.49Zm-7.59-7.73c.28,.2,.63,.29,.99,.22,.69-.13,1.14-.8,1.01-1.49-.1-.52-.5-.9-.99-1.01-.38,.77-.72,1.53-1.01,2.27Zm1.66,10.41c.13,.69,.8,1.14,1.49,1.01,.69-.13,1.14-.8,1.01-1.49-.13-.69-.8-1.14-1.49-1.01-.69,.13-1.14,.8-1.01,1.49Zm-2.41,1.57c.14,.61,.33,1.32,.5,1.93,.21-.27,.31-.64,.24-1.01-.08-.43-.37-.76-.74-.92Zm-1.09-5.18c.21,.08,.44,.1,.67,.05,.69-.13,1.14-.8,1.01-1.49-.11-.59-.62-1.01-1.2-1.03-.26,1.08-.4,1.94-.47,2.46Z"/>
                <g>
                  <path class="cls-6" d="M56.47,234.85c-.06-.9,.07-1.8,.19-2.69,.12-.89,.26-1.78,.42-2.67,.31-1.77,.64-3.55,1.04-5.3,.1-.44,.19-.88,.32-1.3,.14-.4,.37-.79,.6-1.17,.47-.76,1.01-1.49,1.53-2.22,.52-.73,1.06-1.45,1.61-2.17l1.63-2.16c-1.19,1.36-2.33,2.75-3.43,4.19-.55,.72-1.08,1.45-1.57,2.21-.24,.38-.49,.77-.65,1.23-.14,.44-.24,.88-.34,1.32-.38,1.77-.71,3.54-.97,5.33-.13,.89-.25,1.79-.33,2.69-.04,.45-.08,.9-.09,1.35-.02,.45-.02,.91,.05,1.35Z"/>
                  <path class="cls-6" d="M59.02,216.45c-.79,.74-1.49,1.55-2.16,2.4-.67,.85-1.29,1.73-1.83,2.67-.53,.94-1.03,1.91-1.35,2.95-.32,1.03-.53,2.11-.47,3.19,.03-.27,.06-.53,.08-.8,0-.13,.04-.26,.07-.39l.09-.39c.03-.13,.05-.26,.08-.39l.12-.38c.09-.25,.14-.51,.26-.76l.3-.74,.34-.72c.11-.24,.24-.48,.36-.71,.13-.23,.25-.47,.39-.7,.52-.93,1.13-1.81,1.75-2.69,.31-.44,.63-.86,.96-1.29,.32-.43,.66-.84,1.01-1.26Z"/>
                  <path class="cls-6" d="M93.68,215.86c-.37-.96-.94-1.82-1.47-2.69-.55-.87-1.13-1.71-1.72-2.54-.61-.83-1.18-1.66-1.88-2.44-.71-.75-1.52-1.4-2.41-1.91,.41,.31,.8,.63,1.17,.98,.37,.34,.73,.7,1.06,1.09,.32,.39,.62,.8,.91,1.21l.89,1.24,1.77,2.49c.3,.42,.59,.84,.87,1.26,.29,.42,.57,.85,.81,1.3Z"/>
                  <path class="cls-6" d="M94.07,218.99c-.21-.71-.51-1.39-.82-2.06-.31-.67-.65-1.32-1.03-1.96-.2-.31-.4-.63-.63-.92-.24-.28-.47-.57-.71-.85l-.72-.84c-.25-.27-.49-.55-.75-.81,.2,.31,.42,.61,.63,.91l.65,.89c.21,.3,.44,.59,.66,.88,.22,.29,.41,.59,.6,.91,.38,.62,.73,1.27,1.09,1.91,.18,.32,.35,.64,.52,.97,.18,.32,.34,.65,.51,.98Z"/>
                </g>
                <path class="cls-6" d="M62.5,206c2.39,1.3,7.89,4.2,9.2,4.22,.31,0,.77-.05,1.33-.13,3.22-3.12,5.71-4.83,5.71-4.83,1.81,.71,3.42,1.52,4.84,2.41,1.67-.81,3.55-2.24,4.23-2.77-1.49-1.7-3.08-3-4.57-3.24-4.83-.78-9.03-.43-9.03-.43,0,0-5.15-.09-11.71,4.76Z"/>
              </g>
              <g>
                <g>
                  <path class="cls-13" d="M78.12,202.45s5.64-5.96,12.74-5.3c0,0-1.71,6.82-4.62,8.58-1.45,.87-6.98,.21-7.43-.82-.45-1.04-.69-2.46-.69-2.46Z"/>
                  <path class="cls-2" d="M86.76,197.47c-.04,.56-.45,1.05-1.03,1.17-.47,.09-.93-.09-1.22-.44,.71-.29,1.46-.54,2.25-.73Zm.61,5.65c.07,.38,.31,.68,.62,.86,.46-.67,.88-1.44,1.24-2.22-.25-.14-.55-.19-.85-.13-.69,.13-1.14,.8-1.01,1.49Zm-7.42-1.08c.13,.69,.8,1.14,1.49,1.01,.69-.13,1.14-.8,1.01-1.49-.13-.69-.8-1.14-1.49-1.01-.69,.13-1.14,.8-1.01,1.49Z"/>
                  <path class="cls-6" d="M78.12,202.46s.25,1.42,.69,2.45c.01,.04,.04,.09,.09,.13,.03,.05,.07,.09,.13,.13,.04,.02,.07,.05,.13,.08,.57,.37,1.73,.65,2.97,.78,.04-.95,.03-2.21-.12-3.14-.13-.81-.89-1.64-1.68-2.32-1.41,1.03-2.21,1.89-2.21,1.89Z"/>
                </g>
                <g>
                  <path class="cls-13" d="M76.23,203.04s-9.35-3.51-14.44-2.38c0,0,1.48,5.56,6.06,7.82,2.05,1.01,9.22-1.6,9.11-2.81-.11-1.21-.73-2.63-.73-2.63Z"/>
                  <path class="cls-2" d="M65.05,203.2c.69-.13,1.36,.32,1.49,1.01,.13,.69-.32,1.36-1.01,1.49-.69,.13-1.36-.32-1.49-1.01-.13-.69,.32-1.36,1.01-1.49Zm7.79,1.09c.13,.69,.8,1.14,1.49,1.01s1.14-.8,1.01-1.49c-.13-.69-.8-1.14-1.49-1.01-.69,.13-1.14,.8-1.01,1.49Zm-3.52,4.41c.31,0,.65-.04,1-.09-.2-.07-.41-.08-.63-.04-.13,.03-.25,.07-.36,.13Z"/>
                  <path class="cls-6" d="M74.09,202.32c-.36,.86-.73,2.12-.5,3.23,.13,.62,.5,1.26,.94,1.85,1.43-.6,2.47-1.27,2.44-1.74-.11-1.2-.74-2.62-.74-2.62,0,0-.83-.32-2.14-.72Z"/>
                </g>
                <path class="cls-13" d="M74.76,205.02c.48,1.73,2.27,2.73,4,2.25,1.73-.48,2.73-2.27,2.25-4-.48-1.73-2.27-2.73-4-2.25-1.73,.48-2.73,2.27-2.25,4Z"/>
              </g>
            </g>
          </g>
        </g>
        <g>
          <path class="cls-14" d="M45.75,263.48c-14.76,27.02-28.24,78.82-20.79,86.42,8.29,8.46,28.79-29.36,28.19-31.06-.46-1.28,2.03-31.12,4.15-52.91,2.12-21.77-7.9-9.13-11.55-2.45Z"/>
          <g>
            <path class="cls-13" d="M53.35,318.81c.06-3.13,3.76-42.6,4.51-54.96,.67-11.09-2.38-14.7-8.97-6.05-12.13,15.91-32.59,59.9-33.03,79.75-.43,19.12,14.54,16.4,24.16,4.89,7.87-9.42,13.33-23.62,13.33-23.62Z"/>
            <g>
              <path class="cls-16" d="M52.89,323.91c.73-14.56,2.03-29.81,3.76-44.3-.74,14.57-2.02,29.82-3.76,44.3h0Z"/>
              <path class="cls-16" d="M56.07,288.2c.1-2.01,.73-3.84,1.7-5.59,.03,2.02-.62,3.9-1.7,5.59h0Z"/>
            </g>
          </g>
        </g>
        <g>
          <g>
            <path class="cls-15" d="M26.02,349.13c7.95,2.98,19.62-3.43,50.52-16.82,4.28-1.85-.68-35.54-5.35-33.8-5.88,2.2-28.22,11.99-29.76,12.92-13.01,7.78-20.81,35.68-15.41,37.7Z"/>
            <g>
              <path class="cls-15" d="M72.18,293.93c9.63-4.35,12.77-3.99,18.95-11.98,4.05-5.24,9.14-4.9,7.94,1.88-1.96,11.1-13.2,19.33-17.92,21.05l-8.97-10.96Z"/>
              <path class="cls-15" d="M48.35,311.44s9.44-9.58,19.24-15.24c6.78-3.91,21.82-9.53,42.81,.73,5.54,2.71,8.79,10.48-.34,8.33-6.66-1.57-10.07-3.78-14.12-3.73,0,0,5.18,10.04,2.26,14.76-1.31,2.11-5,7.79-8.51,11.8,0,0-1.08-.53-2.35-1.4,0,0-3.15,4.16-10.92,5.66l-28.06-20.93Z"/>
              <g>
                <path class="cls-15" d="M74.66,293.51c4.02,.79,12.53,2.62,18.96,6.53,7.15,4.34,19.75,14.64,16.49,19.88-2.39,3.84-7.55,.34-7.55,.34,0,0,4.31,5.35,1.39,8.35-2.66,2.73-6.49-.22-6.49-.22,0,0,2.06,3.7-1.01,5.84-3.69,2.57-7.4-5.6-13.39-6.22-1.35-.14-8.4-34.5-8.4-34.5Z"/>
                <g>
                  <path class="cls-16" d="M87.77,306.82c3.66,1.37,11.18,6.6,14.8,13.26,.08,.15,.01,.29-.09,.17-5.53-6.48-11.91-11.43-14.74-13.36-.04-.03,0-.08,.04-.07Z"/>
                  <path class="cls-16" d="M83.59,314.17c3.04,1.5,10.55,7.25,13.98,14.12,.08,.15,0,.29-.1,.17-5.5-7.01-11.21-12.12-13.92-14.22-.04-.03,0-.08,.05-.06Z"/>
                </g>
              </g>
            </g>
          </g>
          <g>
            <path class="cls-13" d="M64.06,297.62l-2.29,49.32s-34.6,7.55-41.28,3.2c-4.78-3.11,6.19-29.52,20.33-38.6l23.25-13.91Z"/>
            <path class="cls-16" d="M27.95,328.16c.77-3.22,4.77-11.29,12.86-16.66,.07-.05,.16,.06,.09,.11-5.64,4.58-11.82,13.55-12.83,16.59-.03,.08-.15,.03-.13-.05Z"/>
            <path class="cls-16" d="M53.62,342.02c-.15-4.77-.05-9.54,.06-14.31,.11-4.78,.22-9.55,.45-14.32,.13-2.7,.25-5.39,.47-8.09,0-.07,.12-.08,.13,0,.16,4.76,.07,9.54,0,14.3-.08,4.78-.21,9.56-.39,14.33-.1,2.7-.25,5.39-.47,8.09-.01,.13-.24,.15-.24,0Z"/>
            <path class="cls-16" d="M63.82,297.27c-1.72,.71-3.31,1.67-4.92,2.6-1.61,.93-3.2,1.89-4.78,2.87-3.15,1.94-10.04,5.68-15.14,10.09-.06,.05,.47,.07,.52,.02,2.32-2.22,22.74-13.76,24.26-14.89,.02,.14,.05,.28,.1,.42,.03,.1,.18,.13,.21,.01,.08-.27,.07-.54,.13-.81,.04-.23-.15-.41-.37-.32Z"/>
            <path class="cls-16" d="M62.3,338.55c0,2.89-.09,5.78-.2,8.67-7.12,1.57-14.32,2.81-21.56,3.64-4.88,.43-17.75,2.16-21.19-1.37,3.7,3.41,21.01,.34,26.41-.29,5.17-.73,10.84-1.68,15.94-2.58,0,0-.27,.31-.27,.31,.25-2.8,.52-5.59,.87-8.37h0Z"/>
          </g>
        </g>
        <g>
          <rect class="cls-10" x="74" y="338.34" width="78.39" height="3.52"/>
          <polygon class="cls-9" points="107.75 338.34 105.07 341.86 169.37 341.86 169.37 338.34 107.75 338.34"/>
          <g>
            <polygon class="cls-9" points="111.13 341.86 187.53 341.86 203.04 289.97 126.64 289.97 111.13 341.86"/>
            <polygon class="cls-10" points="113.78 341.86 190.17 341.86 205.68 289.97 129.29 289.97 113.78 341.86"/>
            <path class="cls-1" d="M156.55,315.91c-.5,2.57,1.18,4.65,3.75,4.65s5.05-2.08,5.55-4.65c.5-2.57-1.18-4.65-3.75-4.65s-5.05,2.08-5.55,4.65Z"/>
          </g>
        </g>
      </g>
    </g>
  </g>
  <g id="Speech_Bubble" data-name="Speech Bubble">
    <g>
      <g>
        <polygon class="cls-1" points="95.56 154.3 95.56 197.68 101.65 197.68 101.65 208.2 112.17 197.68 169.91 197.68 169.91 154.3 95.56 154.3"/>
        <path class="cls-16" d="M95.56,154.3l.16,21.75c.07,7.23,.12,14.43,.12,21.62l-.28-.28,6.09-.02h.3s0,.3,0,.3l.03,10.52-.55-.23,10.49-10.55c.12-.13,.1-.11,.26-.11,16.99-.04,40.98-.15,57.74-.12,0,0-.48,.48-.48,.48l.12-43.38,.36,.36c-18.53-.02-55.82-.23-74.35-.36h0Zm0,0c18.53-.14,55.82-.34,74.35-.36,0,0,.36,0,.36,0v.37s.12,43.38,.12,43.38v.48s-.48,0-.48,0c-16.67,.06-40.82-.11-57.74-.12,0,0,.26-.11,.26-.11l-10.55,10.49-.56,.55v-.78s.03-10.52,.03-10.52l.3,.3-6.09-.02h-.28c-.04-12.73,.24-30.77,.28-43.66h0Z"/>
      </g>
      <g>
        <path class="cls-13" d="M122.75,182.94c.71,.74,.71,1.84,0,2.55-.37,.34-.79,.51-1.24,.51-.48,0-.94-.17-1.3-.51l-7.95-8.07c-.09-.03-.11-.08-.14-.17-.03-.03-.09-.06-.09-.06-.06-.08-.06-.14-.08-.23-.06-.03-.09-.08-.09-.11-.03-.06-.03-.14-.06-.17,0-.08-.06-.11-.06-.14v-.2c0-.06-.03-.08-.03-.17,0-.03,.03-.11,.03-.14v-.2c0-.06,.06-.08,.06-.11,.03-.09,.03-.14,.06-.23,0-.03,.03-.03,.03-.06,.06-.08,.09-.2,.14-.25,0,0,0-.06,.06-.06,.03-.06,.08-.14,.17-.2l7.95-8.07c.71-.68,1.87-.68,2.55,0,.71,.71,.71,1.84,0,2.55l-6.7,6.76,6.7,6.76Z"/>
        <path class="cls-13" d="M129.96,183.84l6.93-16.5c.34-.79,1.24-1.16,2.06-.82,.77,.31,1.13,1.25,.79,2.01l-6.93,16.53c-.26,.59-.85,.93-1.44,.93-.17,0-.39-.03-.56-.11-.82-.31-1.19-1.25-.85-2.04Z"/>
        <path class="cls-13" d="M153.45,177.19s0,.03-.03,.03c-.06,.06-.11,.14-.2,.2l-7.95,8.07c-.34,.34-.82,.51-1.27,.51-.48,0-.9-.17-1.27-.51-.71-.71-.71-1.81,0-2.55l6.7-6.76-6.7-6.76c-.71-.71-.71-1.84,0-2.55,.68-.68,1.84-.68,2.55,0l7.95,8.07c.09,.06,.14,.14,.2,.2,.03,0,.03,.06,.03,.06,.05,.11,.11,.17,.14,.25,0,.03,.03,.03,.03,.06,.03,.09,.03,.14,.08,.26,0,.03,.03,.03,.03,.08v.2s.03,.11,.03,.14c0,.03-.03,.11-.03,.14v.23s-.03,.03-.03,.06c-.06,.11-.06,.2-.08,.25,0,.03-.03,.03-.03,.09-.03,.06-.09,.14-.14,.25Z"/>
      </g>
    </g>
  </g>
</svg>