<?xml version="1.0" encoding="UTF-8"?>
<svg xmlns="http://www.w3.org/2000/svg" xmlns:xlink="http://www.w3.org/1999/xlink" viewBox="0 0 398 186.94">
  <defs>
    <style>
      .cls-1, .cls-2, .cls-3, .cls-4, .cls-5, .cls-6 {
        fill: none;
      }

      .cls-1, .cls-2, .cls-3, .cls-5 {
        stroke-miterlimit: 10;
      }

      .cls-1, .cls-4 {
        stroke: #fff;
        stroke-width: 3.17px;
      }

      .cls-7 {
        fill: url(#Degradado_sin_nombre_12-9);
      }

      .cls-2 {
        stroke-width: 4.22px;
      }

      .cls-2, .cls-5 {
        stroke: #3b3c3a;
      }

      .cls-8 {
        fill: url(#Degradado_sin_nombre_12-4);
      }

      .cls-9, .cls-10, .cls-11 {
        fill: #fff;
      }

      .cls-12 {
        fill: #c5dffb;
      }

      .cls-13 {
        fill: url(#Degradado_sin_nombre_59-4);
      }

      .cls-14 {
        fill: #d8d8d8;
      }

      .cls-15 {
        fill: url(#Degradado_sin_nombre_3-2);
      }

      .cls-16 {
        fill: url(#Degradado_sin_nombre_59-6);
      }

      .cls-17 {
        isolation: isolate;
      }

      .cls-18 {
        fill: url(#Degradado_sin_nombre_12-2);
      }

      .cls-19 {
        fill: url(#Degradado_sin_nombre_55);
      }

      .cls-20 {
        fill: #898a89;
      }

      .cls-21 {
        fill: #f25c21;
      }

      .cls-22 {
        fill: url(#Degradado_sin_nombre_59-7);
      }

      .cls-3, .cls-5, .cls-6 {
        stroke-width: 2px;
      }

      .cls-3, .cls-6 {
        stroke: #f25c21;
        stroke-dasharray: 0 0 3.17 5.28;
      }

      .cls-23 {
        fill: url(#Degradado_sin_nombre_59-3);
      }

      .cls-10 {
        mix-blend-mode: soft-light;
      }

      .cls-24 {
        fill: url(#Degradado_sin_nombre_3);
      }

      .cls-25 {
        fill: #7e9bf5;
      }

      .cls-26 {
        fill: url(#Degradado_sin_nombre_12-6);
      }

      .cls-11 {
        font-family: Exo-Medium, 'Exo Medium';
        font-size: 12.67px;
      }

      .cls-27 {
        fill: url(#Degradado_sin_nombre_3-3);
      }

      .cls-28 {
        fill: url(#Degradado_sin_nombre_59);
      }

      .cls-29 {
        fill: url(#Degradado_sin_nombre_3-5);
      }

      .cls-30 {
        fill: #9fcaf8;
      }

      .cls-31 {
        clip-path: url(#clippath);
      }

      .cls-32 {
        fill: url(#Degradado_sin_nombre_12-7);
      }

      .cls-33 {
        fill: url(#Degradado_sin_nombre_12-5);
      }

      .cls-34 {
        fill: #d9eafc;
      }

      .cls-35 {
        fill: url(#Degradado_sin_nombre_12-8);
      }

      .cls-4 {
        stroke-dasharray: 0 0 0 7.39;
        stroke-linecap: round;
      }

      .cls-4, .cls-6 {
        stroke-linejoin: round;
      }

      .cls-36 {
        fill: #7ddc66;
      }

      .cls-37 {
        fill: url(#Degradado_sin_nombre_59-2);
      }

      .cls-38 {
        fill: url(#Degradado_sin_nombre_12-3);
      }

      .cls-39 {
        fill: url(#Degradado_sin_nombre_12);
      }

      .cls-40 {
        fill: url(#Degradado_sin_nombre_59-5);
      }

      .cls-41 {
        fill: url(#Degradado_sin_nombre_3-4);
      }

      .cls-42 {
        fill: #3b3c3a;
      }
    </style>
    <clipPath id="clippath">
      <ellipse class="cls-34" cx="242.34" cy="76.36" rx="40.13" ry="39.11"/>
    </clipPath>
    <linearGradient id="Degradado_sin_nombre_3" data-name="Degradado sin nombre 3" x1="336.35" y1="87.54" x2="354.88" y2="69.01" gradientUnits="userSpaceOnUse">
      <stop offset="0" stop-color="#ffc300"/>
      <stop offset="1" stop-color="#ff8d00"/>
    </linearGradient>
    <linearGradient id="Degradado_sin_nombre_12" data-name="Degradado sin nombre 12" x1="457.76" y1="148.32" x2="473.24" y2="132.84" gradientTransform="translate(-88.5 -191.63) rotate(13.74)" gradientUnits="userSpaceOnUse">
      <stop offset=".35" stop-color="#9fcaf8"/>
      <stop offset="1" stop-color="#86a7f6"/>
    </linearGradient>
    <linearGradient id="Degradado_sin_nombre_3-2" data-name="Degradado sin nombre 3" x1="104.92" y1="139.74" x2="149.77" y2="94.89" xlink:href="#Degradado_sin_nombre_3"/>
    <linearGradient id="Degradado_sin_nombre_12-2" data-name="Degradado sin nombre 12" x1="91.57" y1="115.37" x2="97.38" y2="109.56" gradientTransform="matrix(1, 0, 0, 1, 0, 0)" xlink:href="#Degradado_sin_nombre_12"/>
    <linearGradient id="Degradado_sin_nombre_12-3" data-name="Degradado sin nombre 12" x1="91.57" y1="135.21" x2="97.38" y2="129.4" gradientTransform="matrix(1, 0, 0, 1, 0, 0)" xlink:href="#Degradado_sin_nombre_12"/>
    <linearGradient id="Degradado_sin_nombre_12-4" data-name="Degradado sin nombre 12" x1="75.14" y1="125.67" x2="80.95" y2="119.86" gradientTransform="matrix(1, 0, 0, 1, 0, 0)" xlink:href="#Degradado_sin_nombre_12"/>
    <linearGradient id="Degradado_sin_nombre_3-3" data-name="Degradado sin nombre 3" x1="264.23" y1="157.74" x2="324.27" y2="97.7" xlink:href="#Degradado_sin_nombre_3"/>
    <linearGradient id="Degradado_sin_nombre_59" data-name="Degradado sin nombre 59" x1="27.38" y1="111.35" x2="52.71" y2="125.97" gradientUnits="userSpaceOnUse">
      <stop offset=".21" stop-color="#ffc300"/>
      <stop offset=".9" stop-color="#ff8d00"/>
      <stop offset=".91" stop-color="#ff8d00"/>
    </linearGradient>
    <linearGradient id="Degradado_sin_nombre_55" data-name="Degradado sin nombre 55" x1="9.32" y1="116.56" x2="39.14" y2="86.74" gradientUnits="userSpaceOnUse">
      <stop offset=".21" stop-color="#ffc300"/>
      <stop offset="1" stop-color="#ff8d00"/>
    </linearGradient>
    <linearGradient id="Degradado_sin_nombre_59-2" data-name="Degradado sin nombre 59" x1="0" y1="144.52" x2="37.28" y2="107.24" xlink:href="#Degradado_sin_nombre_59"/>
    <linearGradient id="Degradado_sin_nombre_3-4" data-name="Degradado sin nombre 3" x1="1440.69" y1="-237.68" x2="1466.87" y2="-263.86" gradientTransform="translate(937.2 -1341.71) rotate(120.58) scale(1.06 1.02)" xlink:href="#Degradado_sin_nombre_3"/>
    <linearGradient id="Degradado_sin_nombre_12-5" data-name="Degradado sin nombre 12" x1="217.44" y1="185.38" x2="223.82" y2="179" gradientTransform="matrix(1, 0, 0, 1, 0, 0)" xlink:href="#Degradado_sin_nombre_12"/>
    <linearGradient id="Degradado_sin_nombre_12-6" data-name="Degradado sin nombre 12" x1="227.44" y1="185.38" x2="233.82" y2="179" gradientTransform="matrix(1, 0, 0, 1, 0, 0)" xlink:href="#Degradado_sin_nombre_12"/>
    <linearGradient id="Degradado_sin_nombre_12-7" data-name="Degradado sin nombre 12" x1="236.44" y1="185.38" x2="242.82" y2="179" gradientTransform="matrix(1, 0, 0, 1, 0, 0)" xlink:href="#Degradado_sin_nombre_12"/>
    <linearGradient id="Degradado_sin_nombre_59-3" data-name="Degradado sin nombre 59" x1="1122.73" y1="-69.37" x2="1129.12" y2="-75.75" gradientTransform="translate(113.29 -1110.29) rotate(90)" xlink:href="#Degradado_sin_nombre_59"/>
    <linearGradient id="Degradado_sin_nombre_59-4" data-name="Degradado sin nombre 59" x1="1131.73" y1="-69.37" x2="1138.12" y2="-75.75" gradientTransform="translate(113.29 -1110.29) rotate(90)" xlink:href="#Degradado_sin_nombre_59"/>
    <linearGradient id="Degradado_sin_nombre_59-5" data-name="Degradado sin nombre 59" x1="1141.73" y1="-69.37" x2="1148.12" y2="-75.75" gradientTransform="translate(113.29 -1110.29) rotate(90)" xlink:href="#Degradado_sin_nombre_59"/>
    <linearGradient id="Degradado_sin_nombre_12-8" data-name="Degradado sin nombre 12" x1="278.31" y1="45.78" x2="311.26" y2="12.83" gradientTransform="matrix(1, 0, 0, 1, 0, 0)" xlink:href="#Degradado_sin_nombre_12"/>
    <linearGradient id="Degradado_sin_nombre_3-5" data-name="Degradado sin nombre 3" x1="294.96" y1="28.78" x2="308.25" y2="15.5" xlink:href="#Degradado_sin_nombre_3"/>
    <linearGradient id="Degradado_sin_nombre_59-6" data-name="Degradado sin nombre 59" x1="371.57" y1="175.19" x2="378.29" y2="168.47" xlink:href="#Degradado_sin_nombre_59"/>
    <linearGradient id="Degradado_sin_nombre_12-9" data-name="Degradado sin nombre 12" x1="18.01" y1="162.52" x2="24.73" y2="155.8" gradientTransform="matrix(1, 0, 0, 1, 0, 0)" xlink:href="#Degradado_sin_nombre_12"/>
    <linearGradient id="Degradado_sin_nombre_59-7" data-name="Degradado sin nombre 59" x1="125.47" y1="29.63" x2="154.13" y2=".97" xlink:href="#Degradado_sin_nombre_59"/>
  </defs>
  <g class="cls-17">
    <g id="Capa_2" data-name="Capa 2">
      <g id="BACKGROUND_1" data-name="BACKGROUND 1">
        <g>
          <g>
            <ellipse class="cls-34" cx="242.34" cy="76.36" rx="40.13" ry="39.11"/>
            <g class="cls-31">
              <polygon class="cls-30" points="209 55.77 209 62.24 207.32 68.49 209.52 74.63 209.52 71.62 211.93 76.71 217.37 79.43 222.38 82.78 221.46 85.79 221.56 91.26 224.54 95.61 225.91 104.65 229.8 114.69 229.23 112.35 231.05 106.21 234.72 101.86 239.19 97.73 240.1 92.6 239.07 88.02 235.07 86.12 232.32 83 226.48 81.12 222.7 81.66 220.18 78.76 218.46 77.64 218.35 75.75 214.57 74.41 218.24 71.73 221.33 73.51 222.13 71.06 225.79 67.93 227.74 64.25 232.2 63.36 229.68 62.47 232.66 60.79 235.3 61.68 234.49 58.56 232.2 55.1 229.23 54.1 226.48 52.65 225.22 57.33 222.82 56.66 220.53 53.76 222.93 51.2 225.33 50.75 225.79 48.63 227.85 49.08 229.95 51.86 234 51.2 234 48.74 229.95 46.17 226.04 44.61 224.37 46.73 223.02 47.85 221.37 46.62 218.03 48.29 216.99 45.62 214.12 48.18 215.38 49.86 211.56 50.41 209 55.77 209 55.77"/>
              <polygon class="cls-30" points="234.49 40.26 232.66 43.05 235.91 43.31 236.44 46.84 237.13 51.64 239.53 53.87 244.8 49.41 248.23 47.51 249.38 44.52 250.64 41.49 252.7 39.59 245.83 38.81 234.49 40.26 234.49 40.26"/>
              <path class="cls-30" d="M281.83,73.2l-2.86-19.08-7.9-3.35-2.86-.12-.8-2.33-4.92-1-3.55,4.46-.8,2.79,2.4,.89,2.63,.11,.57-3.01,1.15-1.12,.45,3.01-2.75,2.45-3.66-.45-1.6,1.79-2.86,2.01-1.03,.56,.92,2.79-2.98,.22,.57,3.13,1.66,.68-1.2,.89-2.18,3.79-2.18,2.9,.46,5.47,3.21,2.9h4.69s2.08,1.9,2.08,1.9l1.51,4.24v5.8l1.93,6.03,2.68,1.56,3.69-3.46,2.07-5.02,1.64-5.8,3.99-5.02v-3.01l-3.53-3.12-1.1-4.8,3.4,6.14,4.45-1.8-1.15-3.34,.91-.56,2.86-.11h0Zm-12.14-4.8l-2.18,1.79-3.55-.89-3.78,.33-2.06-2.12-4.06-.04,.4-.29,2.18-2.45,3.09-1.12,2.18,2.34,.57,1.12,1.14-2.01-.46-1.67,2.18,3.24,1.6,.89,.23-2.01,1.03,2.01,1.49,.89h0Zm2.63-3.79l-4.12,.56,.46-2.45,1.95,.45,1.72,1.45h0Zm3.67,3.46l-1.09-2.45,.55-3.31,.54,2.75v3.01h0Z"/>
            </g>
          </g>
          <path class="cls-34" d="M100.31,92.78h54.66c0-.28,0-.55-.04-.84-.2-1-.4-2.01-.6-3.01-.7-2.05-1.87-3.78-3.5-5.21-.9-.59-1.79-1.18-2.69-1.77-1.91-.9-3.92-1.28-6.02-1.14-.32,.01-.63,.05-.93,.09,.3-3.85-2.23-8.2-7.25-8.2-1.1,0-2.04,.21-2.84,.57-.03-.15-.06-.3-.09-.45-.74-2.15-1.96-3.97-3.67-5.47-.94-.62-1.88-1.24-2.82-1.86-2-.95-4.11-1.35-6.32-1.2-1.68,.06-3.22,.51-4.63,1.35-1.58,.62-2.91,1.6-4,2.95-1.19,1.27-1.98,2.72-2.37,4.38-.64,1.51-.87,3.1-.69,4.77,.1,.51,.21,1.03,.31,1.54-.34,.14-.66,.31-.98,.5-1.35,.53-2.49,1.37-3.43,2.53-1.02,1.08-1.69,2.33-2.02,3.74-.55,1.29-.75,2.65-.59,4.08,.18,.89,.35,1.77,.53,2.66Z"/>
          <path class="cls-12" d="M54.06,50.73h41.96c0-.21,0-.43-.03-.64-.15-.77-.31-1.54-.46-2.31-.54-1.57-1.43-2.9-2.68-4-.69-.45-1.38-.91-2.06-1.36-1.46-.69-3.01-.99-4.62-.88-.24,0-.48,.04-.72,.07,.23-2.96-1.72-6.3-5.57-6.3-.84,0-1.57,.16-2.18,.44-.02-.12-.05-.23-.07-.34-.56-1.65-1.5-3.05-2.82-4.2l-2.17-1.43c-1.54-.73-3.16-1.04-4.85-.92-1.29,.04-2.47,.39-3.55,1.04-1.21,.47-2.24,1.23-3.07,2.27-.91,.97-1.52,2.09-1.82,3.36-.49,1.16-.67,2.38-.53,3.66,.08,.39,.16,.79,.24,1.18-.26,.11-.51,.24-.75,.38-1.04,.4-1.91,1.05-2.63,1.94-.78,.83-1.3,1.79-1.55,2.87-.42,.99-.57,2.04-.46,3.13,.14,.68,.27,1.36,.41,2.04Z"/>
          <g>
            <rect class="cls-42" x="168.49" y="146.06" width="5.66" height="9.58"/>
            <rect class="cls-42" x="219.96" y="146.06" width="5.66" height="9.58"/>
            <rect class="cls-42" x="168.49" y="78.52" width="59.96" height="61.24"/>
            <g>
              <rect class="cls-14" x="158.39" y="66.95" width="80.17" height="23.12"/>
              <path class="cls-9" d="M167.85,78.52c0-3.48,2.82-6.31,6.31-6.31s6.31,2.82,6.31,6.31-2.82,6.31-6.31,6.31-6.31-2.82-6.31-6.31Z"/>
              <path class="cls-21" d="M229.1,78.52c0-3.48-2.82-6.31-6.31-6.31s-6.31,2.82-6.31,6.31,2.82,6.31,6.31,6.31,6.31-2.82,6.31-6.31Z"/>
              <rect class="cls-20" x="186.51" y="72.21" width="23.93" height="3.55"/>
              <rect class="cls-20" x="186.51" y="81.28" width="23.93" height="3.55"/>
            </g>
            <g>
              <rect class="cls-14" x="158.39" y="97.57" width="80.17" height="23.12"/>
              <path class="cls-21" d="M167.85,109.13c0-3.48,2.82-6.31,6.31-6.31s6.31,2.82,6.31,6.31-2.82,6.31-6.31,6.31-6.31-2.82-6.31-6.31Z"/>
              <path class="cls-9" d="M229.1,109.13c0-3.48-2.82-6.31-6.31-6.31s-6.31,2.82-6.31,6.31,2.82,6.31,6.31,6.31,6.31-2.82,6.31-6.31Z"/>
              <rect class="cls-20" x="186.51" y="102.82" width="23.93" height="3.55"/>
              <rect class="cls-20" x="186.51" y="111.9" width="23.93" height="3.55"/>
            </g>
            <g>
              <rect class="cls-14" x="158.39" y="128.19" width="80.17" height="23.12"/>
              <path class="cls-9" d="M167.85,139.75c0-3.48,2.82-6.31,6.31-6.31s6.31,2.82,6.31,6.31-2.82,6.31-6.31,6.31-6.31-2.82-6.31-6.31Z"/>
              <path class="cls-21" d="M229.1,139.75c0-3.48-2.82-6.31-6.31-6.31s-6.31,2.82-6.31,6.31,2.82,6.31,6.31,6.31,6.31-2.82,6.31-6.31Z"/>
              <rect class="cls-20" x="186.51" y="133.44" width="23.93" height="3.55"/>
              <rect class="cls-20" x="186.51" y="142.52" width="23.93" height="3.55"/>
            </g>
          </g>
          <path class="cls-34" d="M165.15,47.58c-.7-4.91-5.03-7.95-9.85-7.95-1.46,0-2.83,.45-4.03,1.18-.38-2.78-2.46-5.42-6.04-5.42-.54,0-1.03,.07-1.49,.18-.52-1.12-1.24-2.11-2.19-2.94-.65-.43-1.31-.86-1.96-1.29-1.39-.66-2.86-.94-4.39-.84-1.16,.04-2.24,.35-3.22,.94-1.1,.43-2.03,1.11-2.78,2.05-.83,.88-1.37,1.89-1.64,3.04-.44,1.05-.6,2.15-.48,3.3-.07,0-.15,0-.22,0-.99,.03-1.9,.3-2.73,.8-.93,.36-1.72,.94-2.36,1.74-.7,.75-1.17,1.61-1.4,2.58-.35,.84-.49,1.71-.42,2.63h45.2Z"/>
          <polyline class="cls-3" points="198 58 198 13 295.06 13 294.1 93.11"/>
          <g>
            <g>
              <path class="cls-21" d="M372.45,47.2c0-.58-.04-1.14-.12-1.7-.13-.97,.29-1.93,1.14-2.41l2.02-1.16-3.5-6.06-2.23,1.22c-.82,.45-1.82,.35-2.56-.22-.96-.74-2.03-1.34-3.22-1.8-.91-.35-1.52-1.21-1.52-2.19v-2.07h-5.86v1.91c0,1.04-.7,1.95-1.7,2.25-1.48,.44-2.36,1.02-3.17,1.75-.75,.66-1.82,.8-2.7,.32l-2.14-1.17-3.59,6.06,1.97,1.15c.85,.5,1.27,1.46,1.12,2.43-.08,.55-.13,1.12-.13,1.7s.04,1.15,.11,1.71c.13,.97-.3,1.92-1.14,2.4l-2.02,1.17,3.5,6.06,2.34-1.22c.87-.45,1.93-.31,2.66,.34,.82,.73,1.7,1.33,3.2,1.77,1,.29,1.7,1.21,1.7,2.25v3.11h5.86v-3.28c0-.98,.61-1.84,1.52-2.19,1.18-.45,2.25-1.06,3.2-1.79,.75-.58,1.76-.67,2.59-.2l2.13,1.2,3.55-6.06-1.99-1.16c-.85-.49-1.27-1.46-1.13-2.43,.08-.55,.13-1.12,.13-1.69Z"/>
              <circle class="cls-9" cx="359.35" cy="47.2" r="5.29"/>
            </g>
            <g>
              <path class="cls-24" d="M353.95,72.7c-.23-.38-.48-.74-.76-1.08-.47-.59-.58-1.39-.21-2.06l.87-1.58-4.74-2.62-.99,1.7c-.36,.63-1.06,.96-1.78,.88-.93-.11-1.88-.08-2.85,.1-.74,.13-1.49-.19-1.88-.84l-.83-1.37-3.88,2.34,.76,1.27c.42,.69,.32,1.57-.23,2.17-.8,.88-1.15,1.62-1.4,2.42-.23,.74-.89,1.26-1.66,1.29l-1.88,.08,.04,5.45,1.77-.02c.76-.01,1.42,.46,1.72,1.16,.17,.4,.36,.79,.59,1.17,.23,.38,.48,.75,.76,1.09,.47,.59,.57,1.39,.2,2.05l-.88,1.58,4.74,2.62,1.06-1.74c.39-.65,1.15-.98,1.9-.83,.83,.16,1.66,.2,2.82-.1,.78-.2,1.61,.12,2.02,.81l1.24,2.06,3.88-2.34-1.31-2.17c-.39-.65-.33-1.46,.13-2.06,.6-.77,1.07-1.6,1.41-2.46,.27-.68,.9-1.15,1.63-1.17l1.89-.06-.07-5.43-1.78,.03c-.76,.01-1.43-.46-1.72-1.16-.17-.4-.36-.79-.59-1.17Z"/>
              <path class="cls-9" d="M348.78,75.82c1.17,1.94,.55,4.46-1.39,5.62-1.94,1.17-4.46,.55-5.62-1.39-1.17-1.94-.55-4.46,1.39-5.62,1.94-1.17,4.46-.55,5.62,1.39Z"/>
            </g>
            <path class="cls-39" d="M341.02,55.34l-1.45-.33c-.62-.14-1.07-.66-1.17-1.28-.06-.36-.14-.71-.25-1.07-.11-.36-.25-.7-.4-1.03-.27-.57-.19-1.24,.24-1.71l1.02-1.11-3.33-3.06-1.14,1.18c-.42,.44-1.05,.57-1.62,.36-.73-.27-1.51-.44-2.33-.49-.63-.04-1.17-.45-1.36-1.05l-.4-1.28-3.61,1.13,.37,1.18c.2,.64-.05,1.34-.61,1.71-.83,.55-1.26,1.09-1.62,1.69-.33,.55-.97,.84-1.6,.72l-1.54-.31-1.05,4.43,1.44,.33c.62,.14,1.06,.66,1.16,1.28,.06,.36,.14,.72,.25,1.07,.11,.36,.25,.7,.4,1.03,.26,.57,.19,1.24-.24,1.7l-1.02,1.11,3.32,3.06,1.21-1.2c.45-.45,1.13-.56,1.7-.3,.64,.29,1.31,.49,2.31,.48,.67-.01,1.28,.42,1.48,1.06l.6,1.92,3.61-1.13-.63-2.02c-.19-.6,.02-1.25,.52-1.64,.64-.51,1.18-1.09,1.63-1.72,.35-.5,.96-.75,1.56-.62l1.54,.33,1.02-4.42Zm-9.92,3.11c-1.8,.56-3.72-.44-4.29-2.24s.44-3.72,2.24-4.29c1.8-.56,3.72,.44,4.29,2.24s-.44,3.72-2.24,4.29Z"/>
          </g>
          <g>
            <rect class="cls-42" x="107.4" y="84.93" width="39.89" height="70.71" rx="5.84" ry="5.84"/>
            <rect class="cls-15" x="107.4" y="92.41" width="39.89" height="49.81"/>
            <rect class="cls-14" x="121.13" y="146.41" width="12.44" height="4.39" rx="2.08" ry="2.08"/>
            <circle class="cls-10" cx="127.35" cy="117.31" r="17.12"/>
            <path class="cls-1" d="M129.79,115.11h-1.08c-1.99,0-2.66,1.61-2.66,3.61v7.59h8.39v-13.74c0-3.24-2.62-5.86-5.86-5.86h-2.44c-3.24,0-5.86,2.62-5.86,5.86v15.16"/>
          </g>
          <polyline class="cls-3" points="83 51 83 75 154 75"/>
          <path class="cls-21" d="M78.08,51.47c0-2.33,1.89-4.22,4.22-4.22s4.22,1.89,4.22,4.22-1.89,4.22-4.22,4.22-4.22-1.89-4.22-4.22Z"/>
          <path class="cls-21" d="M61.18,51.47c0-2.33,1.89-4.22,4.22-4.22s4.22,1.89,4.22,4.22-1.89,4.22-4.22,4.22-4.22-1.89-4.22-4.22Z"/>
          <polyline class="cls-3" points="66 60 66 171 128 171 128 155"/>
          <polyline class="cls-6" points="263 158 263 171 201 171 201 155"/>
          <g>
            <polygon class="cls-42" points="93.07 131.77 75.71 121.7 93.02 110.72 94.32 112.76 80.37 121.61 94.28 129.68 93.07 131.77"/>
            <circle class="cls-18" cx="94.48" cy="112.46" r="4.11"/>
            <path class="cls-38" d="M98.59,132.3c0-2.27-1.84-4.11-4.11-4.11s-4.11,1.84-4.11,4.11,1.84,4.11,4.11,4.11,4.11-1.84,4.11-4.11Z"/>
            <circle class="cls-8" cx="78.04" cy="122.77" r="4.11"/>
          </g>
          <g>
            <g>
              <path class="cls-42" d="M256.79,97.57h74.93c1.66,0,3,1.34,3,3v50.28h-80.93v-50.28c0-1.66,1.34-3,3-3Z"/>
              <rect class="cls-27" x="257.34" y="104.6" width="73.83" height="46.25"/>
              <path class="cls-14" d="M342.03,148.6h-95.55c1.25,4.18,5.1,7.04,9.46,7.04h76.63c4.36,0,8.21-2.86,9.46-7.04h0Z"/>
              <path class="cls-20" d="M295.78,101.3c0,.84-.68,1.53-1.53,1.53s-1.53-.68-1.53-1.53,.68-1.53,1.53-1.53,1.53,.68,1.53,1.53Z"/>
            </g>
            <text class="cls-11" transform="translate(265.01 123.33)"><tspan x="0" y="0">010101101</tspan><tspan x="0" y="15.08">110101100</tspan></text>
          </g>
          <g>
            <polygon class="cls-28" points="48.46 133.33 37.28 144.52 29.75 107.24 48.46 96.05 48.46 133.33"/>
            <polygon class="cls-19" points="37.28 107.24 0 107.24 11.19 96.05 48.46 96.05 37.28 107.24"/>
            <rect class="cls-37" y="107.24" width="37.28" height="37.28"/>
          </g>
          <g>
            <path class="cls-34" d="M362.94,94.84c.48-.81,3.18-.03,3.77-.75,.59-.72-.64-3.28,.06-3.9,.7-.62,2.99,1,3.77,.5,.78-.5,.41-3.35,1.25-3.73,.84-.37,2.48,1.92,3.37,1.69,1.78-.46,3.4-3.32,5.12-3.2,1.78,.12,2.81,3.18,4.41,3.84,1.61,.67,4.55-.74,5.87,.41,1.31,1.14,.37,4.29,1.27,5.83,.87,1.49,4.1,1.98,4.38,3.87s-2.01,3.59-1.66,5.24,3.34,3.35,3.44,5.02c.1,1.69-2.62,3.43-2.78,5.11-.16,1.68,2.21,3.73,1.8,5.38-.41,1.64-3.48,2.48-4.13,4.06-.64,1.56,.99,4.26,.11,5.74-.84,1.42-3.95,1.24-4.96,2.51-1.02,1.28-.2,4.32-1.38,5.44-1.19,1.12-4.08,.04-5.4,.97-1.32,.93-1.41,4.12-2.85,4.85-1.43,.73-2.33-1.69-3.86-1.18-.44,.15-1.21,3.27-1.65,3.42-.44,.15-2.28-1.83-2.72-1.69-.44,.15-.36,2.72-.8,2.87-.86,.29-2.27-2.16-3.14-2.01-.88,.15-1.63,2.96-2.5,2.97-.88,0-1.47-2.79-2.34-2.93-.86-.13-2.42,2.33-3.26,2.06-.82-.27-.52-3.15-1.31-3.56-.78-.41-2.99,1.48-3.68,.96-.7-.53,.44-3.21-.16-3.84-.61-.63-3.25,.48-3.75-.24-.49-.72,1.4-2.94,1.02-3.74-.37-.79-3.2-.56-3.45-1.42-.27-.92,2.18-2.5,2.07-3.44-.11-.95-2.82-1.72-2.78-2.68,.05-.96,2.84-1.65,3.04-2.6,.2-.94-2.08-2.59-1.73-3.49,.35-.9,3.17-.62,3.67-1.47,.44-.74-1.26-2.96-.73-3.62,.53-.67,3.03,.55,3.65-.03,.62-.58-.36-3.23,.33-3.72,.69-.48,2.71,1.43,3.46,1.05,.74-.38,.58-3.23,1.37-3.5,.32-.11,1.08,2.5,1.4,2.39,.32-.11,.51-2.91,.42-3.3-.08-.39,2.45-.34,2.45-.34-.08-.39-2.9-2.57-2.98-2.96-.18-.86,2.49-2.22,2.44-3.08-.05-.88-2.59-1.7-2.51-2.57,.08-.88,3.72-1.44,3.93-2.3,.21-.85-1.83-4.16-1.38-4.93Z"/>
            <path class="cls-41" d="M370.98,100.31c1.21-2.05,3.18-3.63,5.61-4.26,4.73-1.22,9.39,1.67,10.41,6.46l1.08,5.07c2.67,12.55-4.78,25.59-16.96,29.69l-4.39,1.47c-4.64,1.56-9.51-.97-10.87-5.65-1.36-4.69,1.31-9.75,5.95-11.31l4.39-1.48c3.41-1.15,5.49-4.8,4.75-8.31l-1.08-5.07c-.5-2.33-.04-4.68,1.11-6.61Z"/>
            <path class="cls-21" d="M380.89,101.47c2.16,1.28,2.83,4.14,1.5,6.4-1.33,2.26-4.17,3.05-6.33,1.77-2.16-1.28-2.83-4.14-1.5-6.4,1.33-2.26,4.17-3.05,6.33-1.77Z"/>
            <path class="cls-21" d="M366.74,125.42c2.16,1.28,2.83,4.14,1.5,6.4-1.33,2.26-4.17,3.05-6.33,1.77-2.16-1.28-2.83-4.14-1.5-6.4,1.33-2.26,4.17-3.05,6.33-1.77Z"/>
            <path class="cls-21" d="M379.46,117.37c2.16,1.28,2.83,4.14,1.5,6.4-1.33,2.26-4.17,3.05-6.33,1.77-2.16-1.28-2.83-4.14-1.5-6.4,1.33-2.26,4.17-3.05,6.33-1.77Z"/>
          </g>
          <polyline class="cls-3" points="22 148 22 158 64 158"/>
          <polyline class="cls-3" points="327 158 327 171 374 171 374 149"/>
          <g>
            <g>
              <polygon class="cls-9" points="219 177.44 219 186.94 227.01 182.19 219 177.44"/>
              <polygon class="cls-9" points="229 177.44 229 186.94 237.01 182.19 229 177.44"/>
              <polygon class="cls-9" points="238 177.44 238 186.94 246.01 182.19 238 177.44"/>
            </g>
            <g>
              <polygon class="cls-33" points="219 177.44 219 186.94 227.01 182.19 219 177.44"/>
              <polygon class="cls-26" points="229 177.44 229 186.94 237.01 182.19 229 177.44"/>
              <polygon class="cls-32" points="238 177.44 238 186.94 246.01 182.19 238 177.44"/>
            </g>
          </g>
          <g>
            <g>
              <polygon class="cls-9" points="190.61 14 181.1 14 185.86 22.01 190.61 14"/>
              <polygon class="cls-9" points="190.61 23 181.1 23 185.86 31.01 190.61 23"/>
              <polygon class="cls-9" points="190.61 33 181.1 33 185.86 41.01 190.61 33"/>
            </g>
            <g>
              <polygon class="cls-23" points="190.61 14 181.1 14 185.86 22.01 190.61 14"/>
              <polygon class="cls-13" points="190.61 23 181.1 23 185.86 31.01 190.61 23"/>
              <polygon class="cls-40" points="190.61 33 181.1 33 185.86 41.01 190.61 33"/>
            </g>
          </g>
          <g>
            <rect class="cls-30" x="7.51" y="39.84" width="6.41" height="11.32" transform="translate(56.22 34.78) rotate(90)"/>
            <polygon class="cls-30" points="33 40.9 42 38.12 42 51.15 33 48.85 33 40.9"/>
            <line class="cls-5" x1="23" y1="31" x2="23" y2="62"/>
            <g>
              <rect class="cls-25" x="8.93" y="14.71" width="27.57" height="12.67" transform="translate(43.76 -1.67) rotate(90)"/>
              <rect class="cls-30" x="16.72" y="14.71" width="11.98" height="12.67" transform="translate(43.76 -1.67) rotate(90)"/>
            </g>
            <g>
              <rect class="cls-25" x="9.46" y="63.17" width="26.52" height="12.67" transform="translate(-46.79 92.22) rotate(-90)"/>
              <rect class="cls-30" x="16.72" y="62.64" width="11.98" height="12.67" transform="translate(-46.27 91.69) rotate(-90)"/>
            </g>
            <rect class="cls-42" x="16.09" y="33.77" width="13.26" height="23.42" transform="translate(68.19 22.77) rotate(90)"/>
          </g>
          <g>
            <rect class="cls-42" x="289.63" y=".79" width="10.32" height="15.98"/>
            <polyline class="cls-2" points="275.1 9.92 295.19 28.58 314.48 9.92"/>
            <circle class="cls-35" cx="294.79" cy="29.31" r="23.3"/>
            <circle class="cls-34" cx="294.79" cy="29.31" r="19.29" transform="translate(78.24 231.45) rotate(-48.71)"/>
            <path class="cls-29" d="M314.05,28.63c-.36-10.33-8.83-18.6-19.25-18.61V28.63h19.25Z"/>
            <path class="cls-42" d="M297.74,29.31c0,1.63-1.32,2.95-2.95,2.95s-2.95-1.32-2.95-2.95,1.32-2.95,2.95-2.95,2.95,1.32,2.95,2.95Z"/>
            <circle class="cls-4" cx="294.79" cy="29.31" r="15.56"/>
          </g>
          <path class="cls-16" d="M379.68,171.83c0,2.62-2.13,4.75-4.75,4.75s-4.75-2.13-4.75-4.75,2.13-4.75,4.75-4.75,4.75,2.13,4.75,4.75Z"/>
          <path class="cls-7" d="M26.12,159.16c0,2.62-2.13,4.75-4.75,4.75s-4.75-2.13-4.75-4.75,2.13-4.75,4.75-4.75,4.75,2.13,4.75,4.75Z"/>
          <path class="cls-36" d="M130.05,163.58c2.81,1.34,4,4.71,2.66,7.52-1.34,2.81-4.71,4-7.52,2.66-2.81-1.34-4-4.71-2.66-7.52,1.34-2.81,4.71-4,7.52-2.66Z"/>
          <polygon class="cls-22" points="132.04 0 153.16 0 145.38 15 153.16 15 137 41.16 137 24 128.7 24 132.04 0"/>
        </g>
      </g>
    </g>
  </g>
</svg>